<svg width="33" height="32" fill="none" xmlns="http://www.w3.org/2000/svg"><path d="M16.941 32h-1.875c-.081-.017-.16-.045-.241-.05-2.232-.155-4.354-.726-6.305-1.82C3.263 27.186.407 22.689.03 16.67c-.162-2.59.327-5.097 1.485-7.422C4.354 3.553 8.978.45 15.333.034c2.885-.191 5.636.452 8.175 1.85 4.511 2.482 7.269 6.268 8.241 11.333.119.61.17 1.231.253 1.847v1.875c-.016.09-.047.18-.053.27-.155 2.243-.75 4.368-1.841 6.327-2.5 4.498-6.28 7.255-11.348 8.214-.602.115-1.212.169-1.819.25zm-.924-14.004v-.05c-1.01 0-2.022-.01-3.03.002-2.851.026-5.046 1.98-5.398 4.801-.11.877.076 1.678.787 2.252a13.79 13.79 0 001.788 1.248c2.313 1.33 4.807 1.802 7.455 1.445 2.268-.307 4.261-1.226 6.01-2.688.55-.46.806-1.076.806-1.79-.008-2.648-2.057-4.967-4.702-5.2-1.232-.11-2.477-.02-3.716-.02zm5.281-7.924a5.295 5.295 0 00-5.293-5.276 5.295 5.295 0 00-5.293 5.276c-.011 2.91 2.398 5.315 5.31 5.301 2.907-.014 5.288-2.403 5.276-5.301z" fill="#D7B055"/></svg>