<svg width="41" height="32" fill="none" xmlns="http://www.w3.org/2000/svg"><g clip-path="url(#clip0)" fill="#D7B055"><path d="M8.097 17.456h14.87c.195 0 .397.006.587-.032a1.458 1.458 0 001.165-1.519 1.443 1.443 0 00-1.402-1.35c-.923-.02-1.848-.005-2.773-.005H7.678l-.424-2.913h.582c6.014 0 12.028.003 18.04 0 .24 0 .49-.008.718-.07a1.43 1.43 0 001.029-1.525 1.48 1.48 0 00-1.358-1.305c-.152-.009-.303-.003-.454-.003H6.845c-.22-1.518-.427-2.998-.652-4.478-.134-.875-.677-1.332-1.552-1.338-1.014-.006-2.028 0-3.045 0-.929 0-1.587-.593-1.599-1.435C-.012.613.65-.003 1.605.006 2.892.018 4.188-.047 5.46.092 6.964.255 8.037 1.16 8.693 2.518c.15.311.308.4.637.397 9.437-.009 18.874-.006 28.31-.006 1.442 0 2.581.774 2.934 2.047.116.412.17.878.1 1.296-.723 4.466-1.467 8.926-2.226 13.387-.36 2.111-2.127 3.621-4.265 3.624-7.165.015-14.33.015-21.496.003-2.2-.003-3.983-1.593-4.318-3.79-.095-.653-.175-1.314-.272-2.02zm.628 10.475c.015-2.198 1.848-4.013 4.045-4.004 2.216.01 4.058 1.872 4.028 4.072a4.057 4.057 0 01-4.096 3.998c-2.197-.02-3.992-1.857-3.977-4.066zm4.025 1.157a1.136 1.136 0 001.13-1.124 1.145 1.145 0 00-1.142-1.118c-.6.011-1.095.507-1.104 1.103a1.136 1.136 0 001.116 1.139zm23.606-1.1A4.043 4.043 0 0132.33 32c-2.221 0-4.057-1.839-4.036-4.051.017-2.21 1.832-4.016 4.033-4.016a4.043 4.043 0 014.03 4.055zm-2.912-.006a1.132 1.132 0 00-1.115-1.136c-.608 0-1.13.525-1.124 1.13a1.137 1.137 0 001.097 1.109 1.13 1.13 0 001.142-1.104z"/></g><defs><clipPath id="clip0"><path fill="#fff" d="M0 0h40.707v32H0z"/></clipPath></defs></svg>