<svg width="28" height="28" fill="none" xmlns="http://www.w3.org/2000/svg"><circle cx="14" cy="14" r="14" fill="#fff"/><g clip-path="url(#clip0)" fill="#D7B055"><path d="M8.182 14.546h5.844c.077 0 .156.003.231-.012.28-.053.477-.3.458-.57a.556.556 0 00-.551-.505c-.363-.008-.726-.003-1.09-.003H8.017l-.167-1.092h7.319c.095 0 .193-.003.283-.027a.537.537 0 00.404-.571.57.57 0 00-.534-.49c-.059-.003-.118 0-.178 0H7.69c-.087-.57-.168-1.125-.257-1.68-.052-.328-.266-.5-.61-.501-.398-.003-.797 0-1.197 0-.364 0-.623-.223-.628-.539-.003-.326.257-.557.632-.554.506.005 1.015-.02 1.515.033.591.06 1.013.4 1.27.91.06.116.122.15.251.148 3.71-.003 7.419-.002 11.128-.002.566 0 1.014.29 1.153.768.045.154.066.329.04.486a610.896 610.896 0 01-.876 5.02c-.141.792-.836 1.358-1.676 1.359-2.816.005-5.633.005-8.449 0-.865 0-1.566-.596-1.697-1.42-.038-.245-.069-.493-.107-.758zm.248 3.928c.006-.824.726-1.505 1.59-1.501.87.003 1.594.702 1.583 1.527-.012.836-.733 1.508-1.61 1.499-.864-.008-1.57-.696-1.563-1.525zm1.582.434c.24.001.445-.193.444-.422-.002-.228-.21-.423-.45-.419a.435.435 0 00-.433.414.436.436 0 00.438.427zm9.278-.413c-.004.828-.716 1.505-1.583 1.505-.873 0-1.595-.69-1.587-1.52.007-.828.72-1.505 1.585-1.505.875 0 1.588.684 1.585 1.52zm-1.145-.002a.435.435 0 00-.438-.426c-.24 0-.445.197-.442.424.002.222.197.41.431.416a.435.435 0 00.449-.414z"/></g><defs><clipPath id="clip0"><path fill="#fff" transform="translate(5 8)" d="M0 0h16v12H0z"/></clipPath></defs></svg>