<svg width="39" height="39" fill="none" xmlns="http://www.w3.org/2000/svg"><path d="M19.634 38.732C30.33 38.732 39 30.062 39 19.366S30.33 0 19.634 0C8.94 0 .27 8.67.27 19.366c0 10.695 8.67 19.366 19.366 19.366z" fill="#fff"/><path d="M28.027 15.657c0 4.89-2.734 8.539-6.721 8.539-1.367 0-2.611-.725-3.044-1.554 0 0-.725 2.87-.875 3.427-.538 1.955-2.128 3.914-2.247 4.078a.169.169 0 01-.291-.073c-.032-.25-.456-2.734.04-4.734l1.6-6.79a4.816 4.816 0 01-.396-1.973c0-1.823 1.07-3.221 2.401-3.221 1.135 0 1.682.847 1.682 1.868 0 1.139-.725 2.843-1.099 4.42a1.928 1.928 0 001.964 2.401c2.36 0 3.951-3.03 3.951-6.625 0-2.734-1.823-4.771-5.181-4.771-3.782 0-6.138 2.816-6.138 5.965a3.595 3.595 0 00.825 2.442.606.606 0 01.178.697c-.06.228-.196.78-.255.998a.456.456 0 01-.625.314c-1.736-.715-2.547-2.62-2.547-4.761 0-3.54 2.985-7.783 8.904-7.783 4.748 0 7.874 3.44 7.874 7.136z" fill="#232F3E"/></svg>