<svg width="40" height="39" fill="none" xmlns="http://www.w3.org/2000/svg"><path d="M20.066 38.732c10.696 0 19.366-8.67 19.366-19.366S30.762 0 20.066 0C9.371 0 .7 8.67.7 19.366c0 10.695 8.67 19.366 19.366 19.366z" fill="#fff"/><path d="M9.5 15.656h4.497V30.12H9.499V15.656zm2.25-7.186a2.606 2.606 0 110 5.213 2.606 2.606 0 010-5.213zm5.068 7.186h4.306v1.978h.082a4.721 4.721 0 014.252-2.333c4.557 0 5.39 2.993 5.39 6.885v7.933h-4.492v-7.031c0-1.677-.028-3.837-2.334-3.837-2.305 0-2.697 1.823-2.697 3.714v7.154h-4.488l-.019-14.463z" fill="#232F3E"/></svg>