<svg width="40" height="39" fill="none" xmlns="http://www.w3.org/2000/svg"><path d="M19.932 38.732c10.696 0 19.366-8.67 19.366-19.366S30.628 0 19.932 0C9.237 0 .566 8.67.566 19.366c0 10.695 8.67 19.366 19.366 19.366z" fill="#fff"/><path d="M30.777 12.64a9.033 9.033 0 01-2.557.702 4.448 4.448 0 001.955-2.465 8.868 8.868 0 01-2.825 1.08A4.451 4.451 0 0019.654 15c0 .342.039.683.114 1.017a12.66 12.66 0 01-9.177-4.625 4.452 4.452 0 001.367 5.923 4.458 4.458 0 01-2.019-.556v.06a4.452 4.452 0 003.572 4.36 4.535 4.535 0 01-2.009.078 4.447 4.447 0 004.156 3.09 8.931 8.931 0 01-6.585 1.831 12.554 12.554 0 006.835 2c8.202 0 12.663-6.78 12.663-12.658v-.579a9.032 9.032 0 002.206-2.3z" fill="#232F3E"/></svg>