<svg width="39" height="39" fill="none" xmlns="http://www.w3.org/2000/svg"><path d="M19.366 38.732c10.695 0 19.366-8.67 19.366-19.366S30.062 0 19.366 0 0 8.67 0 19.366C0 30.06 8.67 38.732 19.366 38.732z" fill="#fff"/><path d="M28.789 8.776H9.942a1.167 1.167 0 00-1.166 1.166V28.79a1.167 1.167 0 001.166 1.166H20.09v-8.202h-2.775v-3.19h2.761v-2.36c0-2.734 1.668-4.224 4.101-4.224.824-.004 1.647.039 2.466.128v2.857h-1.69c-1.331 0-1.587.633-1.587 1.558v2.042h3.167l-.414 3.19h-2.734v8.201h5.4a1.166 1.166 0 001.166-1.166V9.942a1.167 1.167 0 00-1.162-1.166z" fill="#232F3E"/></svg>