<svg width="208" height="52" fill="none" xmlns="http://www.w3.org/2000/svg"><path d="M198.25.65H9.75a9.1 9.1 0 00-9.1 9.1v32.5a9.1 9.1 0 009.1 9.1h188.5a9.1 9.1 0 009.1-9.1V9.75a9.1 9.1 0 00-9.1-9.1z" fill="#fff" stroke="#000"/><path d="M55.9 19.364v-7.529h1.183v6.536h3.585v.993H55.9zm6.511-6.366c-.367 0-.686-.282-.686-.644 0-.36.32-.654.686-.654.379 0 .686.293.686.654 0 .362-.307.644-.686.644zm-.52 6.366v-5.452h1.065v5.452H61.89zm2.204-.71l.509-.746c.39.406 1.147.779 1.917.779.804 0 1.23-.316 1.23-.779 0-.542-.65-.722-1.384-.88-.97-.215-2.106-.463-2.106-1.637 0-.87.78-1.614 2.177-1.614.982 0 1.692.338 2.177.779l-.473.71c-.332-.383-.97-.665-1.692-.665s-1.172.27-1.172.71c0 .475.615.633 1.325.791.994.215 2.178.474 2.178 1.727 0 .937-.805 1.67-2.308 1.67-.958 0-1.798-.281-2.378-.846zm7.552.846c-.899 0-1.36-.486-1.36-1.344v-3.352h-.947v-.892h.947v-1.49h1.065v1.49h1.16v.892h-1.16v3.127c0 .383.189.666.556.666.248 0 .473-.102.58-.215l.272.768c-.225.203-.556.35-1.113.35zm1.637-2.867c0-1.58 1.195-2.856 2.863-2.856 1.716 0 2.781 1.275 2.781 2.946v.248h-4.52c.083.926.793 1.693 1.94 1.693.604 0 1.267-.225 1.692-.643l.497.666c-.568.53-1.372.813-2.295.813-1.704 0-2.958-1.152-2.958-2.867zm2.863-2.021c-1.147 0-1.692.88-1.75 1.626h3.49c-.024-.723-.533-1.626-1.74-1.626zm7.92 4.752v-3.488c0-.903-.485-1.196-1.219-1.196-.663 0-1.266.383-1.574.79v3.894H80.21v-5.452h1.065v.768c.379-.44 1.136-.903 2.024-.903 1.206 0 1.834.61 1.834 1.76v3.827h-1.065zm8.23.136c-1.775 0-2.887-1.287-2.887-2.867 0-1.57 1.112-2.856 2.887-2.856 1.787 0 2.887 1.287 2.887 2.856 0 1.58-1.1 2.867-2.887 2.867zm0-.903c1.148 0 1.775-.926 1.775-1.964 0-1.028-.627-1.953-1.775-1.953-1.136 0-1.775.925-1.775 1.953 0 1.038.64 1.964 1.775 1.964zm8.038.767v-3.488c0-.903-.485-1.196-1.219-1.196-.662 0-1.266.383-1.573.79v3.894h-1.065v-5.452h1.065v.768c.378-.44 1.135-.903 2.023-.903 1.207 0 1.834.61 1.834 1.76v3.827h-1.065z" fill="#000"/><g clip-path="url(#clip0)"><path d="M46.597 23.818L16.875 7.012c-1.27-.71-2.403-.643-3.099.02-.496.469-.744 1.219-.744 2.196v33.538c0 .973.292 1.732.744 2.197.715.687 1.83.74 3.099.024l29.722-16.81c2.14-1.186 2.14-3.14 0-4.36z" fill="#F4481E"/><path d="M46.599 24.04L16.876 7.23C14.736 6.036 13 7.032 13 9.456v-.223c0-1.66.807-2.65 1.999-2.733h.321c.477.029 1.002.194 1.556.508L46.6 23.818c1.114.62 1.649 1.461 1.586 2.303-.05-.75-.56-1.505-1.586-2.08z" fill="#fff"/><path d="M43.656 29.87c.36-1.253.54-2.554.535-3.86 0-5.399-3.084-10.333-7.952-12.723a14.323 14.323 0 00-14.986 1.47 14.141 14.141 0 00-5.31 14.015c1.055 5.297 5.048 9.535 10.29 10.933l17.423-9.835z" fill="#FFD119"/><path d="M38.846 26.01c0 4.895-3.988 8.867-8.91 8.867-4.922 0-8.91-3.967-8.91-8.867 0-4.896 3.988-8.863 8.91-8.863 4.922 0 8.91 3.972 8.91 8.863z" fill="#FF8C00"/><path d="M29.936 12.053c7.84-.005 14.212 6.294 14.26 14.087V26c0-3.764-1.502-7.368-4.178-10.028-5.569-5.54-14.596-5.54-20.165 0A14.147 14.147 0 0015.675 26v.111c.068-7.784 6.43-14.058 14.26-14.058z" fill="#fff"/><path d="M53.69 33.018c0-3.15 2.7-5.718 5.867-5.718a5.534 5.534 0 013.93 1.577l-1.114 1.108a3.978 3.978 0 00-2.816-1.108c-2.335 0-4.227 1.882-4.227 4.204s1.892 4.204 4.227 4.204c1.527 0 2.344-.586 2.932-1.166a3.314 3.314 0 00.88-1.979H59.61v-1.577h5.282c.049.33.068.658.059.987 0 1.166-.355 2.627-1.353 3.677-.997 1.05-2.29 1.635-4.046 1.635-3.225-.039-5.832-2.632-5.861-5.844zm15.55-1.645a3.703 3.703 0 00-3.375 2.308 3.67 3.67 0 00.837 3.99 3.715 3.715 0 004.022.775 3.675 3.675 0 002.271-3.391c0-.987-.394-1.93-1.104-2.622a3.666 3.666 0 00-2.65-1.06zm0 5.95a2.166 2.166 0 01-1.522-.677 2.15 2.15 0 01-.593-1.548 2.1 2.1 0 01.578-1.557c.4-.421.954-.658 1.532-.663a2.166 2.166 0 012.116 2.225c-.058 1.301-.997 2.24-2.11 2.24v-.02zm8.099-5.95a3.703 3.703 0 00-3.376 2.308 3.67 3.67 0 00.837 3.99 3.715 3.715 0 004.022.775 3.683 3.683 0 002.271-3.391c0-.987-.394-1.93-1.104-2.622a3.666 3.666 0 00-2.65-1.06zm0 5.95a2.165 2.165 0 01-2.116-2.225 2.1 2.1 0 01.579-1.557 2.133 2.133 0 011.532-.663 2.237 2.237 0 012.242 2.23 2.237 2.237 0 01-2.242 2.23l.004-.015zm10.034-5.703v.585h-.059a2.61 2.61 0 00-1.936-.832c-1.877 0-3.58 1.635-3.58 3.735-.024 1.993 1.572 3.638 3.58 3.681a2.606 2.606 0 001.936-.817h.059v.527c0 1.403-.764 2.162-1.99 2.162a2.013 2.013 0 01-1.877-1.34l-1.41.58a3.485 3.485 0 003.282 2.163c1.936 0 3.522-1.108 3.522-3.85V31.62h-1.528zm-1.878 5.718c-1.114 0-2.052-.934-2.052-2.225 0-1.292.938-2.279 2.052-2.279s1.99.934 1.99 2.279c-.054 1.286-.876 2.225-1.99 2.225zm4.518-9.641h1.644v10.855h-1.644V27.697zm6.105 9.64a1.92 1.92 0 01-1.82-1.107l4.99-2.041-.174-.407c-.292-.817-1.24-2.331-3.172-2.331-1.926 0-3.52 1.514-3.52 3.671a3.583 3.583 0 001.06 2.622c.7.692 1.653 1.07 2.636 1.05a3.77 3.77 0 003.108-1.635l-1.29-.818a2.167 2.167 0 01-1.819.997zM96 32.845c.569-.01 1.104.28 1.405.76l-3.346 1.402a1.99 1.99 0 01.506-1.495A1.99 1.99 0 0196 32.845zm10.501-5.139h-3.93v10.855h1.644v-4.145h2.286c1.819 0 3.579-1.282 3.579-3.382 0-2.104-1.819-3.328-3.579-3.328zm20.953 3.928v-.02h-1.819l-1.878 4.727h-.058l-1.936-4.726h-1.756l2.933 6.593-1.644 3.677h1.693l4.465-10.25zm-20.953 1.32h-2.345V29.22h2.345c.506-.01.997.184 1.357.532.364.349.574.832.579 1.335a1.929 1.929 0 01-1.936 1.868zm6.104 5.607V27.706h-1.639v10.855h1.639zm7.334 0v-4.145c0-1.926-1.469-3.038-3.346-3.038-1.172 0-2.408.527-2.938 1.693l1.469.585a1.559 1.559 0 011.464-.817c.822 0 1.702.527 1.702 1.403v.116a3.531 3.531 0 00-1.702-.407c-1.585 0-3.166.876-3.166 2.453 0 1.456 1.289 2.394 2.699 2.394 1.114 0 1.703-.469 2.053-1.05h.058v.818l1.707-.005zm-3.521-1.238c-.53 0-1.289-.29-1.289-.934 0-.817.939-1.165 1.702-1.165.511 0 1.012.116 1.464.353a1.866 1.866 0 01-1.877 1.76v-.014z" fill="#757575"/><path d="M29.936 21.36v5.453a2.065 2.065 0 00-3.118 1.77c0 1.142.93 2.06 2.072 2.06a2.146 2.146 0 002.165-2.06v-5.007h2.004v-2.225h-3.123v.01z" fill="#FAFAFA"/></g><path d="M130 27.573h1.289l3.521 6.13h.059l3.521-6.13h1.289v10.038h-1.289v-5.955l.058-1.693h-.058l-3.171 5.486h-.764l-3.166-5.486h-.058l.058 1.693v5.955H130V27.573zm16.196 10.038v-.933h-.058c-.355.643-1.245 1.165-2.174 1.165-1.761 0-2.641-1.166-2.641-2.859V30.78h1.289v3.967c0 1.403.705 1.926 1.702 1.926 1.114 0 1.819-1.05 1.819-2.1V30.78h1.289v6.831h-1.24.014zm2.111-1.756l1.172-.47a1.926 1.926 0 001.878 1.283c.822 0 1.41-.407 1.41-.987 0-.353-.233-.701-.938-.934l-1.411-.348c-.647-.174-1.819-.702-1.819-1.925 0-1.224 1.289-2.042 2.758-2.042 1.172 0 2.237.527 2.641 1.577l-1.114.47a1.62 1.62 0 00-1.586-.934c-.705 0-1.347.353-1.347.875 0 .407.355.702.939.818l1.347.353c1.347.348 1.878 1.166 1.878 1.979 0 1.238-1.114 2.157-2.7 2.157-1.756.112-2.694-.88-3.108-1.872zm6.513-7.469c0-.832 1.011-1.248 1.605-.663.593.59.175 1.597-.662 1.597a1.004 1.004 0 01-.943-.934zm.233 9.225v-6.888h1.289v6.888h-1.289zm2.408-3.444c0-2.1 1.469-3.677 3.521-3.677 1.644 0 2.583.987 3.055 1.979l-1.173.47a1.979 1.979 0 00-1.935-1.283c-1.114 0-2.174.987-2.174 2.453 0 1.465 1.055 2.452 2.174 2.452a2.057 2.057 0 001.989-1.282l1.172.47a3.196 3.196 0 01-3.054 1.978c-2.111.116-3.58-1.456-3.58-3.56h.005z" fill="#FF5722"/><defs><clipPath id="clip0"><path fill="#fff" transform="translate(13 6.5)" d="M0 0h119.6v39H0z"/></clipPath></defs></svg>