<svg width="175" height="52" fill="none" xmlns="http://www.w3.org/2000/svg"><rect width="175" height="52" rx="6" fill="#fff"/><path fill-rule="evenodd" clip-rule="evenodd" d="M97.758 16.9V9.1h1.164l3.75 6.11V9.1h1.035v7.8h-1.035l-4.008-6.37v6.37h-.906zm-7.5-1.69c.518.52 1.293.91 2.07.91.775 0 1.551-.26 2.068-.91.517-.52.905-1.3.905-2.21 0-.91-.258-1.69-.905-2.21-.517-.52-1.293-.91-2.069-.91s-1.551.26-2.069.91c-.517.52-.905 1.3-.905 2.21 0 .91.259 1.69.905 2.21zm4.914.65c-.776.78-1.68 1.17-2.845 1.17-1.163 0-2.069-.39-2.844-1.17-.776-.78-1.164-1.69-1.164-2.86s.388-2.08 1.163-2.86c.776-.78 1.681-1.17 2.845-1.17 1.164 0 2.07.39 2.845 1.17.776.78 1.164 1.69 1.164 2.86s-.388 2.08-1.164 2.86zM82.888 16.9h-1.035v-6.89h-2.198V9.1h5.302v.91h-2.199v6.89h.13zm-5.431 0h1.034V9.1h-1.034v7.8zm-5.949 0h-1.034v-6.89h-2.198V9.1h5.43v.91h-2.198v6.89zm-4.267-6.89H63.75v2.47h3.233v.91H63.75v2.47h3.491v1.04h-4.526V9.1h4.526v.91zm-5.948 3.25c0 1.04-.259 1.95-.905 2.6-.776.78-1.681 1.17-2.845 1.17-1.164 0-2.07-.39-2.845-1.17-.776-.78-1.164-1.69-1.164-2.86s.388-2.08 1.164-2.86c.776-.78 1.681-1.17 2.845-1.17.517 0 1.034.13 1.551.39.518.26.906.52 1.164.91l-.646.65c-.518-.65-1.164-.91-2.07-.91-.775 0-1.55.26-2.068.91-.647.52-.905 1.3-.905 2.21 0 .91.258 1.69.905 2.21.646.52 1.293.91 2.069.91.905 0 1.551-.26 2.198-.91.388-.39.647-.91.647-1.56h-2.845v-1.04h3.75v.52z" fill="#000"/><path d="M97.758 16.9h-.027v.027h.027V16.9zm0-7.8v-.027h-.027V9.1h.027zm1.164 0l.023-.014-.008-.013h-.015V9.1zm3.75 6.11l-.023.014.05.082v-.096h-.027zm0-6.11v-.027h-.027V9.1h.027zm1.035 0h.027v-.027h-.027V9.1zm0 7.8v.027h.027V16.9h-.027zm-1.035 0l-.023.015.008.012h.015V16.9zm-4.008-6.37l.022-.014-.05-.08v.094h.028zm0 6.37v.027h.026V16.9h-.026zm-8.406-1.69l.02-.019-.003-.002-.017.021zm4.138 0l-.019-.019-.002.002.021.017zm0-4.42l-.019.02.002.001.017-.02zm-4.138 0l.02.02.001-.003-.02-.017zm-8.405 6.11h-.027v.027h.027V16.9zm0-6.89h.027v-.027h-.027v.027zm-2.198 0h-.027v.027h.027v-.027zm0-.91v-.027h-.027V9.1h.027zm5.302 0h.027v-.027h-.027V9.1zm0 .91v.027h.027v-.027h-.027zm-2.199 0v-.027h-.027v.027h.027zm0 6.89h-.027v.027h.027V16.9zm-5.301 0h-.027v.027h.027V16.9zm1.034 0v.027h.027V16.9h-.027zm0-7.8h.027v-.027h-.027V9.1zm-1.034 0v-.027h-.027V9.1h.027zm-5.949 7.8v.027h.027V16.9h-.027zm-1.034 0h-.027v.027h.027V16.9zm0-6.89h.027v-.027h-.027v.027zm-2.198 0h-.027v.027h.027v-.027zm0-.91v-.027h-.027V9.1h.027zm5.43 0h.028v-.027h-.027V9.1zm0 .91v.027h.028v-.027h-.027zm-2.198 0v-.027h-.027v.027h.027zm-4.267 0v.027h.027v-.027h-.027zm-3.491 0v-.027h-.027v.027h.027zm0 2.47h-.027v.027h.027v-.027zm3.233 0h.026v-.027h-.026v.027zm0 .91v.027h.026v-.027h-.026zm-3.233 0v-.027h-.027v.027h.027zm0 2.47h-.027v.027h.027v-.027zm3.491 0h.027v-.027h-.027v.027zm0 1.04v.027h.027V16.9h-.027zm-4.526 0h-.027v.027h.027V16.9zm0-7.8v-.027h-.027V9.1h.027zm4.526 0h.027v-.027h-.027V9.1zm-6.983 1.17l.02.02.015-.016-.012-.019-.023.015zm-.646.65l-.021.017.018.024.022-.022-.02-.019zm-4.138 0l.017.022.004-.005-.021-.017zm4.914 2.86h.027v-.027h-.027v.027zm-2.845 0h-.027v.027h.027v-.027zm0-1.04v-.027h-.027v.027h.027zm3.75 0h.027v-.027h-.027v.027zm36.492 4.16V9.1h-.054v7.8h.054zm-.027-7.773h1.164v-.054h-1.164v.054zm1.141-.013l3.75 6.11.046-.028-3.75-6.11-.046.028zm3.8 6.096V9.1h-.054v6.11h.054zm-.027-6.083h1.035v-.054h-1.035v.054zm1.008-.027v7.8h.054V9.1h-.054zm.027 7.773h-1.035v.054h1.035v-.054zm-1.012.013l-4.009-6.37-.045.029 4.008 6.37.046-.03zm-4.058-6.356v6.37h.053v-6.37h-.053zm.026 6.343h-.905v.054h.906v-.054zM90.24 15.23c.521.524 1.304.918 2.088.918v-.054c-.767 0-1.536-.386-2.05-.902l-.038.038zm2.088.918c.782 0 1.567-.262 2.09-.92l-.042-.034c-.51.642-1.278.9-2.048.9v.054zm2.088-.918a3.172 3.172 0 00.912-2.23h-.054c0 .902-.384 1.676-.897 2.191l.038.038zm.912-2.23c0-.915-.26-1.704-.915-2.23l-.034.041c.638.513.895 1.284.895 2.19h.054zm-.913-2.229c-.52-.524-1.303-.918-2.088-.918v.054c.768 0 1.537.386 2.05.902l.038-.038zm-2.088-.918c-.781 0-1.566.262-2.09.92l.042.034c.511-.642 1.278-.9 2.048-.9v-.054zm-2.088.918a3.172 3.172 0 00-.913 2.23h.054c0-.903.385-1.676.898-2.192l-.039-.038zm-.913 2.23c0 .914.26 1.703.915 2.23l.034-.042c-.638-.513-.895-1.284-.895-2.189h-.054zm5.827 2.84c-.77.775-1.67 1.162-2.826 1.162v.054c1.171 0 2.083-.393 2.864-1.178l-.038-.038zm-2.826 1.162c-1.156 0-2.055-.387-2.825-1.162l-.039.038c.781.785 1.693 1.178 2.864 1.178v-.054zm-2.825-1.162c-.771-.775-1.156-1.678-1.156-2.84h-.054c0 1.176.39 2.093 1.171 2.878l.039-.038zm-1.156-2.84c0-1.164.385-2.067 1.156-2.842l-.039-.038c-.78.785-1.171 1.702-1.171 2.88h.054zm1.156-2.842c.77-.775 1.669-1.162 2.825-1.162v-.054c-1.17 0-2.083.393-2.864 1.178l.039.038zm2.825-1.162c1.157 0 2.055.387 2.826 1.162l.038-.038c-.78-.785-1.693-1.178-2.864-1.178v.054zm2.826 1.162c.77.775 1.156 1.678 1.156 2.841h.054c0-1.177-.39-2.094-1.172-2.879l-.038.038zM96.309 13c0 1.163-.385 2.066-1.156 2.841l.038.038c.781-.785 1.172-1.702 1.172-2.879h-.054zm-13.421 3.873h-1.035v.054h1.035v-.054zm-1.008.027v-6.89h-.054v6.89h.054zm-.027-6.917h-2.198v.054h2.198v-.054zm-2.171.027V9.1h-.054v.91h.054zm-.027-.883h5.302v-.054h-5.302v.054zM84.93 9.1v.91h.054V9.1h-.054zm.027.883h-2.199v.054h2.199v-.054zm-2.226.027v6.89h.054v-6.89h-.054zm.027 6.917h.13v-.054h-.13v.054zm-5.301 0h1.034v-.054h-1.034v.054zm1.061-.027V9.1h-.054v7.8h.054zm-.027-7.827h-1.034v.054h1.034v-.054zM77.43 9.1v7.8h.054V9.1h-.054zm-5.922 7.773h-1.034v.054h1.034v-.054zm-1.007.027v-6.89h-.054v6.89h.054zm-.027-6.917h-2.198v.054h2.198v-.054zm-2.171.027V9.1h-.054v.91h.054zm-.027-.883h5.43v-.054h-5.43v.054zM73.68 9.1v.91h.054V9.1h-.054zm.027.883h-2.199v.054h2.199v-.054zm-2.226.027v6.89h.054v-6.89h-.054zm-4.24-.027H63.75v.054h3.491v-.054zm-3.518.027v2.47h.054v-2.47h-.054zm.027 2.497h3.233v-.054H63.75v.054zm3.206-.027v.91h.053v-.91h-.053zm.026.883H63.75v.054h3.233v-.054zm-3.26.027v2.47h.055v-2.47h-.054zm.028 2.497h3.491v-.054H63.75v.054zm3.464-.027v1.04h.054v-1.04h-.054zm.027 1.013h-4.526v.054h4.526v-.054zm-4.499.027V9.1h-.054v7.8h.054zm-.027-7.773h4.526v-.054h-4.526v.054zm4.5-.027v.91h.053V9.1h-.054zm-5.95 4.16c0 1.036-.257 1.938-.897 2.581l.039.038c.653-.657.913-1.575.913-2.619h-.054zm-.897 2.581c-.77.775-1.669 1.162-2.825 1.162v.054c1.17 0 2.083-.393 2.864-1.178l-.038-.038zm-2.825 1.162c-1.157 0-2.055-.387-2.826-1.162l-.038.038c.78.785 1.693 1.178 2.864 1.178v-.054zm-2.826-1.162c-.77-.775-1.156-1.678-1.156-2.84h-.054c0 1.176.39 2.093 1.172 2.878l.038-.038zm-1.156-2.84c0-1.164.385-2.067 1.156-2.842l-.038-.038c-.781.785-1.172 1.702-1.172 2.88h.054zm1.156-2.842c.77-.775 1.67-1.162 2.826-1.162v-.054c-1.171 0-2.083.393-2.864 1.178l.038.038zm2.826-1.162a3.41 3.41 0 011.54.387l.024-.048a3.456 3.456 0 00-1.564-.393v.054zm1.54.387c.516.26.898.517 1.153.901l.045-.03c-.263-.396-.656-.658-1.174-.919l-.025.048zm1.156.867l-.646.65.038.038.647-.65-.039-.038zm-.606.652c-.524-.657-1.179-.92-2.09-.92v.054c.898 0 1.537.258 2.048.9l.042-.034zm-2.09-.92c-.782 0-1.566.262-2.09.92l.042.034c.51-.642 1.278-.9 2.048-.9v-.054zm-2.086.916c-.655.527-.915 1.316-.915 2.231h.054c0-.905.257-1.676.895-2.189l-.034-.042zm-.915 2.231c0 .915.26 1.704.915 2.231l.034-.042c-.638-.513-.895-1.284-.895-2.189h-.054zm.915 2.231c.648.521 1.3.916 2.086.916v-.054c-.766 0-1.407-.385-2.052-.904l-.034.042zm2.086.916c.455 0 .847-.065 1.206-.213.36-.148.686-.378 1.011-.705l-.038-.038c-.321.323-.642.548-.993.693-.352.145-.736.21-1.186.21v.053zm2.217-.918a2.18 2.18 0 00.655-1.579h-.054a2.13 2.13 0 01-.64 1.541l.04.038zm.628-1.606h-2.845v.054h2.845v-.054zm-2.818.027v-1.04h-.054v1.04h.054zm-.027-1.013h3.75v-.054h-3.75v.054zm3.723-.027v.52h.054v-.52h-.054z" fill="#fff"/><mask id="a" style="mask-type:alpha" maskUnits="userSpaceOnUse" x="0" y="0" width="175" height="52"><path fill-rule="evenodd" clip-rule="evenodd" d="M0 52h174.569V0H0v52z" fill="#fff"/></mask><g mask="url(#a)"><path fill-rule="evenodd" clip-rule="evenodd" d="M138.233 39h2.457V22.75h-2.457V39zm21.724-10.4l-2.716 7.02h-.129l-2.845-7.02h-2.586l4.267 9.88-2.457 5.46h2.457l6.595-15.34h-2.586zm-13.578 8.58c-.776 0-1.939-.39-1.939-1.43 0-1.3 1.422-1.69 2.586-1.69 1.034 0 1.552.26 2.198.52-.259 1.56-1.552 2.6-2.845 2.6zm.259-8.97c-1.81 0-3.621.78-4.267 2.47l2.198.91c.517-.91 1.293-1.17 2.198-1.17 1.293 0 2.457.78 2.586 2.08v.13c-.388-.26-1.422-.65-2.457-.65-2.327 0-4.655 1.3-4.655 3.64 0 2.21 1.94 3.64 4.009 3.64 1.681 0 2.457-.78 3.103-1.56h.13V39h2.327v-6.24c-.258-2.86-2.457-4.55-5.172-4.55zm-14.871 2.34h-3.491v-5.59h3.491c1.811 0 2.845 1.56 2.845 2.73-.129 1.43-1.164 2.86-2.845 2.86zm-.129-7.8h-5.819V39h2.457v-6.11h3.362c2.715 0 5.302-1.95 5.302-5.07s-2.587-5.07-5.302-5.07zm-31.552 14.43c-1.68 0-3.103-1.43-3.103-3.38s1.422-3.38 3.103-3.38c1.681 0 2.974 1.43 2.974 3.38s-1.293 3.38-2.974 3.38zm2.845-7.67c-.647-.65-1.681-1.3-2.974-1.3-2.716 0-5.302 2.47-5.302 5.59 0 3.12 2.457 5.46 5.302 5.46 1.293 0 2.327-.65 2.845-1.3h.129v.78c0 2.08-1.164 3.25-2.974 3.25-1.423 0-2.457-1.04-2.716-1.95l-2.069.91c.647 1.43 2.199 3.25 4.914 3.25 2.845 0 5.173-1.69 5.173-5.72V28.6h-2.328v.91zM106.81 39h2.457V22.75h-2.457V39zm6.078-5.33c0-2.08 1.681-3.25 2.845-3.25.905 0 1.81.52 2.069 1.17l-4.914 2.08zm7.5-1.82c-.517-1.3-1.81-3.51-4.655-3.51s-5.173 2.21-5.173 5.59c0 3.12 2.328 5.59 5.431 5.59 2.457 0 4.009-1.56 4.526-2.47l-1.81-1.3c-.647.91-1.423 1.56-2.716 1.56-1.293 0-2.069-.52-2.715-1.69l7.37-3.12-.258-.65zm-58.707-1.82v2.34h5.56c-.129 1.3-.646 2.34-1.293 2.99-.776.78-2.069 1.69-4.267 1.69-3.491 0-6.078-2.73-6.078-6.24 0-3.51 2.716-6.24 6.078-6.24 1.81 0 3.233.78 4.267 1.69l1.681-1.69c-1.422-1.3-3.233-2.34-5.819-2.34-4.655 0-8.663 3.9-8.663 8.58s4.008 8.58 8.663 8.58c2.587 0 4.397-.78 5.948-2.47 1.552-1.56 2.07-3.77 2.07-5.46 0-.52 0-1.04-.13-1.43h-8.017zm14.353 7.15c-1.68 0-3.103-1.43-3.103-3.38s1.422-3.38 3.103-3.38c1.681 0 3.104 1.3 3.104 3.38 0 1.95-1.423 3.38-3.104 3.38zm0-8.84c-3.103 0-5.56 2.34-5.56 5.59 0 3.12 2.457 5.59 5.56 5.59 3.104 0 5.56-2.34 5.56-5.59 0-3.38-2.456-5.59-5.56-5.59zm12.026 8.84c-1.68 0-3.103-1.43-3.103-3.38s1.422-3.38 3.103-3.38c1.681 0 3.104 1.3 3.104 3.38 0 1.95-1.423 3.38-3.104 3.38zm0-8.84c-3.103 0-5.56 2.34-5.56 5.59 0 3.12 2.457 5.59 5.56 5.59 3.104 0 5.56-2.34 5.56-5.59 0-3.38-2.456-5.59-5.56-5.59z" fill="#000"/></g><mask id="b" style="mask-type:alpha" maskUnits="userSpaceOnUse" x="12" y="9" width="18" height="34"><path fill-rule="evenodd" clip-rule="evenodd" d="M12.93 11.57V40.3c0 .78.26 1.43.647 1.82l.13.13L29.74 26.13v-.26L13.448 9.75c-.388.39-.517 1.04-.517 1.82z" fill="#fff"/></mask><g mask="url(#b)"><path fill-rule="evenodd" clip-rule="evenodd" d="M12.93 11.57V40.3c0 .78.26 1.43.647 1.82l.13.13L29.74 26.13v-.26L13.448 9.75c-.388.39-.517 1.04-.517 1.82z" fill="#32BBFF"/></g><mask id="c" style="mask-type:alpha" maskUnits="userSpaceOnUse" x="29" y="20" width="14" height="12"><path fill-rule="evenodd" clip-rule="evenodd" d="M29.612 25.87v.39l5.302 5.33 6.465-3.51c1.81-1.04 1.81-2.73 0-3.77l-6.336-3.64-.129-.13-5.302 5.33z" fill="#fff"/></mask><g mask="url(#c)"><path fill-rule="evenodd" clip-rule="evenodd" d="M29.612 25.87v.39l5.302 5.33 6.465-3.51c1.81-1.04 1.81-2.73 0-3.77l-6.336-3.64-.129-.13-5.302 5.33z" fill="#FFD500"/></g><mask id="d" style="mask-type:alpha" maskUnits="userSpaceOnUse" x="13" y="26" width="23" height="17"><path fill-rule="evenodd" clip-rule="evenodd" d="M13.448 42.25c.647.65 1.552.65 2.716.13l18.88-10.92L29.611 26 13.448 42.25z" fill="#fff"/></mask><g mask="url(#d)"><path fill-rule="evenodd" clip-rule="evenodd" d="M13.448 42.25c.647.65 1.552.65 2.716.13l18.88-10.92L29.611 26 13.448 42.25z" fill="url(#paint0_linear)"/></g><mask id="e" style="mask-type:alpha" maskUnits="userSpaceOnUse" x="13" y="9" width="23" height="17"><path fill-rule="evenodd" clip-rule="evenodd" d="M13.448 9.88L29.612 26l5.431-5.46-18.88-10.79c-.524-.293-.995-.427-1.415-.427-.511 0-.944.2-1.3.557z" fill="#fff"/></mask><g mask="url(#e)"><path fill-rule="evenodd" clip-rule="evenodd" d="M13.448 9.88L29.612 26l5.431-5.46-18.88-10.79c-.524-.293-.995-.427-1.415-.427-.511 0-.944.2-1.3.557z" fill="#29CC5E"/></g><path fill-rule="evenodd" clip-rule="evenodd" d="M34.914 31.33l-18.75 10.66c-1.035.65-1.94.52-2.586 0l-.13.13.13.13c.646.52 1.551.65 2.586 0l18.75-10.92z" fill="#000"/><path fill-rule="evenodd" clip-rule="evenodd" d="M41.379 27.69l-6.466 3.64.13.13 6.336-3.64c.905-.52 1.293-1.17 1.293-1.82 0 .65-.517 1.17-1.293 1.69zm-27.931 14.3c-.388-.39-.517-1.04-.517-1.82v.13c0 .78.258 1.43.646 1.82v-.13h-.13z" fill="#000"/><path fill-rule="evenodd" clip-rule="evenodd" d="M16.163 9.88L41.38 24.31c.776.52 1.293 1.04 1.293 1.69 0-.65-.388-1.3-1.293-1.82L16.163 9.75c-1.81-1.04-3.232-.26-3.232 1.82v.13c0-1.95 1.422-2.86 3.232-1.82z" fill="#fff"/><defs><linearGradient id="paint0_linear" x1="13.023" y1="17.553" x2="-7.784" y2="52.301" gradientUnits="userSpaceOnUse"><stop stop-color="#FF3A44"/><stop offset="1" stop-color="#C31162"/></linearGradient></defs></svg>