<svg width="40" height="47" fill="none" xmlns="http://www.w3.org/2000/svg"><g clip-path="url(#clip0)" fill="#fff"><path d="M19.25 46.548a5.076 5.076 0 01-2.031-.818c-1.592-1.088-2.24-3.093-1.718-4.937.513-1.807 2.14-3.183 3.948-3.326 2.023-.162 3.803.818 4.621 2.59.162.35.333.467.729.467 2.445-.018 4.882 0 7.328-.018 2.059-.01 3.767-1.205 4.424-3.066.018-.045.018-.09.009-.054-.585 0-1.17.044-1.754-.01-2.185-.197-4-2.014-4.064-4.208a109.705 109.705 0 010-6.878c.072-2.275 2.077-4.154 4.361-4.208 1.08-.027 2.158-.018 3.237-.01.908.01 1.565.657 1.565 1.565.009 4.181.054 8.363-.01 12.544-.062 3.992-3.452 7.31-7.444 7.373-2.563.045-5.126.018-7.688.009-.333 0-.522.072-.675.404-.908 1.997-2.904 2.887-4.837 2.581zm17.606-21.4c-.503 0-.953-.01-1.402 0-1.061.018-1.664.611-1.664 1.681a622.88 622.88 0 000 5.8c0 .908.675 1.6 1.529 1.592.854-.01 1.52-.702 1.528-1.61.01-1.547.01-3.084.01-4.63.008-.927 0-1.853 0-2.833zM19.997 40.506c-.872-.01-1.555.638-1.564 1.501a1.539 1.539 0 001.52 1.565 1.542 1.542 0 001.546-1.493c.009-.863-.648-1.555-1.502-1.573zM19.449.6c10.16-.008 18.406 6.897 20.123 16.438.063.332.09.692.018 1.016-.162.71-.81 1.133-1.546 1.097-.738-.036-1.313-.558-1.44-1.313-.404-2.464-1.276-4.739-2.706-6.78-3.075-4.379-7.274-6.878-12.615-7.31-8.488-.692-16.032 4.954-17.84 13.272-.053.251-.08.503-.143.746-.207.854-1.007 1.385-1.826 1.214a1.518 1.518 0 01-1.186-1.826C1.996 9.026 6.798 3.712 14.764 1.302 16.454.79 18.2.61 19.45.601zM0 28.322v-4.54c0-1.088.611-1.709 1.69-1.7 1.26.01 2.527-.063 3.768.099 2.041.279 3.65 2.086 3.713 4.136.072 2.302.072 4.613-.008 6.915-.081 2.284-2.033 4.064-4.433 4.18C2.545 37.54.44 35.84.09 33.664a7.04 7.04 0 01-.081-1.07C0 31.173 0 29.752 0 28.323zm3.066-3.165v2.572c0 1.645-.009 3.29.01 4.936.008.855.665 1.529 1.492 1.547.809.027 1.546-.63 1.555-1.43.018-2.068.018-4.136 0-6.195-.009-.737-.575-1.367-1.303-1.43-.567-.036-1.142 0-1.754 0z"/><path d="M19.943 5.214c2.445.045 4.747.593 6.932 1.672.72.36 1.08.99.962 1.664-.197 1.079-1.258 1.618-2.265 1.123-1.304-.638-2.653-1.096-4.092-1.267-2.346-.28-4.594.054-6.743 1.043-.261.117-.513.26-.783.323-.728.162-1.465-.278-1.708-.98-.252-.737.036-1.51.746-1.87a14.732 14.732 0 014.514-1.448c.8-.134 1.619-.18 2.437-.26z"/></g><defs><clipPath id="clip0"><path fill="#fff" transform="translate(0 .601)" d="M0 0h39.932v46.01H0z"/></clipPath></defs></svg>