<svg width="175" height="52" fill="none" xmlns="http://www.w3.org/2000/svg"><rect width="175" height="52" rx="6" fill="#fff"/><path fill-rule="evenodd" clip-rule="evenodd" d="M44.333 24.814c-.031-3.723 3.031-5.533 3.166-5.616-1.738-2.537-4.428-2.891-5.37-2.922-2.255-.24-4.448 1.362-5.596 1.362-1.169 0-2.948-1.331-4.852-1.3-2.451.042-4.758 1.467-6.01 3.692-2.597 4.524-.662 11.18 1.83 14.841 1.253 1.789 2.7 3.796 4.615 3.723 1.862-.073 2.565-1.196 4.81-1.196 2.235 0 2.886 1.196 4.831 1.155 2.007-.032 3.259-1.8 4.47-3.61 1.437-2.048 2.016-4.076 2.037-4.18-.052-.02-3.89-1.498-3.931-5.949zM40.66 13.873c1.004-1.258 1.687-2.974 1.5-4.721-1.448.062-3.268 1.009-4.313 2.246-.92 1.092-1.748 2.87-1.541 4.545 1.634.125 3.31-.832 4.355-2.07zm26.235 18.055l-1.293-4.004c-.135-.416-.393-1.373-.766-2.891h-.051a133.95 133.95 0 01-.725 2.891l-1.272 4.004h4.107zm4.459 6.406h-2.607l-1.428-4.513h-4.966l-1.355 4.513h-2.534l4.914-15.36h3.041l4.934 15.36zm10.137-5.584c0-1.082-.238-1.966-.724-2.663-.527-.728-1.241-1.092-2.13-1.092-.6 0-1.15.208-1.646.604a2.787 2.787 0 00-.962 1.58 3.385 3.385 0 00-.114.75v1.85c0 .801.249 1.488.735 2.039.486.551 1.127.832 1.914.832.92 0 1.634-.364 2.151-1.071.518-.718.776-1.654.776-2.83zm2.493-.083c0 1.882-.506 3.37-1.53 4.461-.911.978-2.049 1.456-3.394 1.456-1.458 0-2.503-.52-3.145-1.57v5.813h-2.451V30.9c0-1.186-.031-2.392-.093-3.64h2.151l.135 1.757h.041c.817-1.32 2.059-1.986 3.714-1.986 1.303 0 2.38.52 3.248 1.55.89 1.04 1.324 2.391 1.324 4.087zm10.169.083c0-1.082-.238-1.966-.724-2.663-.527-.728-1.241-1.092-2.13-1.092-.6 0-1.149.208-1.646.604a2.844 2.844 0 00-.962 1.58 3.385 3.385 0 00-.114.75v1.85c0 .801.249 1.488.735 2.039.486.551 1.128.832 1.914.832.92 0 1.645-.364 2.151-1.071.528-.718.776-1.654.776-2.83zm2.493-.083c0 1.882-.506 3.37-1.53 4.461-.91.978-2.049 1.456-3.394 1.456-1.458 0-2.503-.52-3.144-1.57v5.813h-2.452V30.9c0-1.186-.031-2.392-.093-3.64h2.151l.135 1.757h.041c.817-1.32 2.059-1.986 3.714-1.986 1.303 0 2.38.52 3.248 1.55.89 1.04 1.325 2.391 1.325 4.087zm14.173 1.362c0 1.31-.455 2.371-1.355 3.193-.993.894-2.379 1.341-4.159 1.341-1.645 0-2.958-.322-3.951-.956l.568-2.05a6.846 6.846 0 003.538.958c.921 0 1.645-.208 2.152-.624.517-.416.776-.978.776-1.675a2.17 2.17 0 00-.631-1.57c-.424-.427-1.128-.822-2.11-1.186-2.7-1.009-4.035-2.475-4.035-4.399 0-1.258.476-2.288 1.417-3.1.942-.8 2.193-1.206 3.756-1.206 1.386 0 2.544.24 3.465.728l-.621 1.997c-.869-.468-1.841-.707-2.938-.707-.858 0-1.541.218-2.027.634-.404.385-.61.843-.61 1.394 0 .603.237 1.113.703 1.498.403.364 1.148.759 2.224 1.185 1.314.53 2.276 1.155 2.897 1.872.631.718.941 1.612.941 2.673zm8.111-4.919h-2.7v5.376c0 1.363.475 2.05 1.427 2.05.435 0 .797-.042 1.086-.115l.073 1.872c-.486.177-1.118.27-1.904.27-.972 0-1.717-.301-2.265-.894-.549-.593-.817-1.591-.817-2.985v-5.585h-1.604v-1.84h1.604V25.23l2.4-.728v2.756h2.7v1.852zm9.61 3.65c0-1.02-.217-1.882-.652-2.61-.517-.884-1.252-1.321-2.203-1.321-.983 0-1.738.437-2.245 1.32-.445.729-.652 1.613-.652 2.663 0 1.02.217 1.893.652 2.61.527.884 1.272 1.321 2.224 1.321.931 0 1.665-.447 2.203-1.341.445-.75.673-1.623.673-2.642zm2.534-.052c0 1.706-.486 3.1-1.448 4.191-1.014 1.123-2.359 1.685-4.034 1.685-1.614 0-2.907-.54-3.869-1.612-.962-1.071-1.438-2.434-1.438-4.077 0-1.716.496-3.12 1.479-4.212.993-1.092 2.328-1.643 4.003-1.643 1.614 0 2.918.54 3.9 1.622.942 1.04 1.407 2.392 1.407 4.046zm7.966-3.286a4.517 4.517 0 00-.776-.063c-.859 0-1.531.323-1.997.978-.403.572-.61 1.31-.61 2.184v5.814h-2.452v-7.592c0-1.28-.02-2.444-.072-3.484h2.131l.093 2.121h.072c.259-.728.662-1.32 1.221-1.757.548-.396 1.138-.593 1.769-.593.228 0 .435.02.61.041l.011 2.35zm8.606 2.215c.021-.728-.144-1.363-.476-1.893-.423-.686-1.075-1.03-1.944-1.03-.797 0-1.448.333-1.945.999-.403.53-.652 1.175-.724 1.913l5.089.01zm2.338.634c0 .437-.031.812-.093 1.113h-7.345c.031 1.092.383 1.934 1.066 2.507.621.51 1.417.77 2.4.77 1.086 0 2.079-.178 2.969-.52l.383 1.705c-1.045.457-2.276.686-3.694.686-1.706 0-3.051-.51-4.024-1.518-.972-1.01-1.458-2.372-1.458-4.067 0-1.664.455-3.057 1.365-4.17.952-1.186 2.235-1.779 3.849-1.779 1.582 0 2.793.593 3.6 1.779.651.957.982 2.111.982 3.494zm-86.472-17.94l-.631-1.976c-.062-.197-.186-.676-.383-1.425h-.02c-.083.323-.187.79-.363 1.425l-.62 1.976h2.017zm2.203 3.152h-1.282l-.704-2.216h-2.441l-.673 2.216h-1.241l2.41-7.55h1.49l2.441 7.55zm6.042-5.45l-2.048 5.45h-1.17l-1.985-5.45h1.293l.92 2.88c.156.479.29.937.394 1.373h.03c.094-.395.228-.853.394-1.373l.91-2.88h1.262zm4.2 2.735c-1.335 0-2.007.322-2.007 1.102 0 .572.341.853.828.853.61 0 1.179-.468 1.179-1.113v-.842zm.165 2.714l-.093-.624H76c-.373.5-.9.749-1.584.749-.972 0-1.655-.686-1.655-1.602 0-1.341 1.159-2.038 3.166-2.038v-.104c0-.718-.383-1.071-1.128-1.071-.538 0-1.003.135-1.417.405l-.248-.79c.496-.312 1.127-.468 1.862-.468 1.417 0 2.13.749 2.13 2.257v2.007c0 .551.022.978.084 1.3l-1.087-.02z" fill="#000"/><mask id="a" style="mask-type:alpha" maskUnits="userSpaceOnUse" x="0" y="0" width="175" height="52"><path fill-rule="evenodd" clip-rule="evenodd" d="M0 52h174.569V0H0v52z" fill="#fff"/></mask><g mask="url(#a)" fill-rule="evenodd" clip-rule="evenodd" fill="#000"><path d="M79.226 17.472h1.2v-5.44h-1.2v5.44zm.58-6.334a.707.707 0 01-.715-.727c0-.417.321-.718.735-.718s.745.301.734.718c0 .436-.31.728-.755.728zm2.761 6.334h1.2V9.537h-1.2v7.935zm6.145-2.704c-1.334 0-2.007.322-2.007 1.102 0 .572.342.853.828.853.61 0 1.18-.468 1.18-1.113v-.842zm.166 2.714l-.093-.624h-.031c-.373.5-.9.75-1.583.75-.973 0-1.655-.687-1.655-1.602 0-1.342 1.158-2.039 3.165-2.039v-.104c0-.717-.383-1.071-1.127-1.071-.538 0-1.004.135-1.418.405l-.248-.8c.497-.312 1.128-.468 1.862-.468 1.417 0 2.131.748 2.131 2.256v2.008c0 .55.02.977.073 1.3h-1.076v-.01zm5.637-4.607c-.693 0-1.324.603-1.324 1.446v.956c0 .75.57 1.363 1.304 1.363.9 0 1.438-.739 1.438-1.914 0-1.102-.56-1.851-1.418-1.851zm.249 4.732c-.766 0-1.335-.322-1.707-.967h-.021l-.072.842h-1.025c.032-.437.042-.925.042-1.466v-6.48h1.21v3.297h.02c.363-.603.932-.904 1.728-.904 1.304 0 2.214 1.123 2.214 2.756 0 1.684-1.014 2.922-2.39 2.922zm4.169-.135h1.2V9.537h-1.2v7.935zm6.652-3.287c0-.842-.425-1.435-1.19-1.435-.693 0-1.231.603-1.314 1.435h2.504zm1.096.864h-3.61c.02 1.03.703 1.611 1.707 1.611.538 0 1.024-.093 1.458-.26l.186.843c-.506.229-1.106.333-1.81.333-1.696 0-2.7-1.072-2.7-2.746 0-1.664 1.024-2.922 2.566-2.922 1.375 0 2.255 1.03 2.255 2.59 0 .218-.011.405-.052.55zm7.345-2.236c-.869 0-1.428.821-1.428 1.955 0 1.123.569 1.934 1.417 1.934.849 0 1.418-.873 1.418-1.965-.011-1.103-.559-1.924-1.407-1.924zm-.052 4.794c-1.583 0-2.607-1.185-2.607-2.797 0-1.685 1.045-2.881 2.7-2.881 1.562 0 2.607 1.133 2.607 2.787 0 1.695-1.076 2.891-2.7 2.891zm9.166-.124h-1.2v-3.13c0-.968-.373-1.447-1.097-1.447-.714 0-1.2.614-1.2 1.332v3.234h-1.2v-3.88c0-.478-.01-.998-.041-1.56h1.055l.052.843h.031c.32-.582.983-.957 1.717-.957 1.138 0 1.883.874 1.883 2.299v3.266zm7.872-4.535h-1.324v2.641c0 .676.238 1.01.704 1.01.206 0 .393-.021.537-.053l.031.916c-.237.093-.548.135-.931.135-.951 0-1.51-.53-1.51-1.904v-2.745h-.786v-.905h.786v-.998l1.179-.364v1.352h1.325v.915m6.362 4.534h-1.2v-3.11c0-.977-.373-1.466-1.097-1.466-.621 0-1.2.427-1.2 1.29v3.276h-1.2V9.537h1.2v3.265h.021c.382-.593.92-.884 1.624-.884 1.148 0 1.852.895 1.852 2.32v3.244zm5.048-3.297c0-.842-.424-1.435-1.19-1.435-.693 0-1.241.603-1.314 1.435h2.504zm1.096.864h-3.61c.021 1.03.703 1.611 1.707 1.611.538 0 1.024-.093 1.458-.26l.187.843c-.507.229-1.107.333-1.811.333-1.696 0-2.7-1.072-2.7-2.746 0-1.664 1.024-2.922 2.566-2.922 1.376 0 2.255 1.03 2.255 2.59 0 .218-.01.405-.052.55z"/></g></svg>