<svg width="43" height="43" fill="none" xmlns="http://www.w3.org/2000/svg"><g clip-path="url(#clip0)" fill="#fff"><path d="M18.077.435c.693.107 1.386.181 2.071.313C27.04 2.041 32.48 7.624 33.61 14.524a16.87 16.87 0 01-.594 8.004c-.24.75-.85 1.21-1.585 1.21-.726 0-1.403-.453-1.56-1.169a2.48 2.48 0 01.066-1.202c.809-2.717.883-5.451-.041-8.136-1.766-5.154-5.365-8.316-10.722-9.304-7.23-1.334-14.336 3.68-15.632 10.902-.751 4.2.322 7.954 2.856 11.297 1.18 1.557 2.525 3.006 3.838 4.463 1.989 2.215 4.044 4.373 6.017 6.613.776.88 1.403 1.893 2.063 2.873.371.544.363 1.145.025 1.713-.33.552-.842.824-1.478.799-.511-.017-.957-.214-1.238-.643-2.302-3.606-5.39-6.538-8.303-9.617-1.717-1.82-3.36-3.697-4.671-5.846C.794 23.433-.18 20.14.034 16.575.39 10.539 3.22 5.919 8.38 2.765 10.566 1.424 12.976.7 15.534.502c.083-.008.157-.041.232-.066h2.31z"/><path d="M42.176 35.184c-2.13 3.055-4.671 5.624-8.278 6.892-2.93 1.03-5.72.51-8.345-1.045-2.327-1.384-4.176-3.294-5.76-5.468-.422-.577-.48-1.235-.058-1.812 1.923-2.66 4.184-4.957 7.255-6.299 3.326-1.457 6.503-.972 9.508.914 2.179 1.367 3.928 3.203 5.447 5.27.091.124.157.255.231.387v1.161zm-3.656-.576c-1.519-1.754-3.104-3.368-5.29-4.192-.743-.28-1.569-.411-2.361-.477-.9-.074-1.767.19-2.592.56-2.047.914-3.59 2.429-5.043 4.117 1.362 1.59 2.815 3.014 4.68 3.944 1.948.972 3.904.996 5.86.033 1.89-.939 3.351-2.371 4.746-3.985zm-21.575-6.901c-5.943-.115-10.64-5.056-10.326-10.96.306-5.838 5.555-10.3 11.357-9.667 4.738.519 8.427 4.035 9.154 8.737a10.106 10.106 0 01-.297 4.356c-.281.938-1.14 1.457-2.03 1.218-.917-.247-1.412-1.128-1.148-2.1.528-1.95.322-3.804-.71-5.55-1.502-2.552-4.515-3.886-7.379-3.293-2.996.626-5.208 2.973-5.596 5.953-.57 4.364 2.98 8.169 7.38 7.897.52-.033 1.03-.156 1.542-.263.9-.19 1.759.296 1.99 1.16.239.873-.223 1.78-1.115 2.002-.924.222-1.881.345-2.822.51z"/><path d="M30.943 37.737a3.145 3.145 0 01-3.129-3.154 3.137 3.137 0 016.273.058c-.008 1.704-1.42 3.096-3.144 3.096z"/></g><defs><clipPath id="clip0"><path fill="#fff" transform="translate(0 .435)" d="M0 0h42.176v42.176H0z"/></clipPath></defs></svg>