<svg width="46" height="47" fill="none" xmlns="http://www.w3.org/2000/svg"><g clip-path="url(#clip0)" fill="#fff"><path d="M45.131 18.191l-2.682-2.23c-1.137-.941-2.3-1.918-3.465-2.877-.195-.16-.257-.293-.257-.533.018-1.732.009-3.5.009-5.205v-.88c0-1.225-.622-1.847-1.839-1.847H35.6c-2.096 0-4.254 0-6.386.009h-.009c-.266 0-.435-.062-.613-.213A392.02 392.02 0 0024.293.693a6.37 6.37 0 00-.595-.444l-.267-.187a.214.214 0 00-.16-.062h-.71a.234.234 0 00-.169.062c-.328.276-.666.55-.994.826L19.026 2.86c-.258.213-.515.435-.755.657-.347.302-.702.613-1.057.898a.947.947 0 01-.497.195c-1.963.009-3.962.009-5.89.009H8.945c-1.199 0-1.838.64-1.838 1.847v1.546c0 1.519 0 3.082-.009 4.627a.615.615 0 01-.178.383C5.045 14.601 3.02 16.29.72 18.2c-.48.4-.719.897-.719 1.51 0 5.551 0 11.192.009 16.645v7.914c0 1.093.657 1.75 1.759 1.75h42.315c1.101 0 1.759-.657 1.759-1.75v-8.233c0-5.436 0-10.881.008-16.317-.008-.63-.24-1.128-.719-1.528zM4.157 19.497l2.922-2.434v4.707l-2.922-2.273zM21.904 4.592l1.012-.88 1.022.88h-2.034zM38.762 21.77v-4.707l2.923 2.434-2.923 2.273zM3.215 41.135V22.819l11.77 9.157-11.77 9.158zm3.447 1.377c3.704-2.878 7.532-5.863 11.298-8.776a.75.75 0 01.435-.142c2.754-.009 5.712-.009 9.06 0 .142 0 .293.035.364.098A4057.89 4057.89 0 0138.7 42.147l.862.675H6.28l.382-.311zM35.298 24.48c-1.128.87-2.274 1.758-3.375 2.62-1.306 1.012-2.656 2.06-3.988 3.091a.902.902 0 01-.515.178c-2.905.017-5.934.017-9.007 0a.91.91 0 01-.48-.16 1112.26 1112.26 0 01-7.425-5.774.642.642 0 01-.196-.364c-.017-4.619-.008-9.318-.008-13.856V7.843h25.225c0 .062.01.124.01.178v3.695c0 4.024 0 8.19.008 12.284-.009.222-.062.337-.249.48zm-4.44 7.496l11.75-9.14v18.29l-11.75-9.15z"/><path d="M24.542 13.963c.213-.56.56-.96 1.181-1.013.835-.08 1.466.507 1.466 1.395 0 2.327-.009 4.645-.018 6.972 0 .4-.07.87.382 1.048.444.17.88-.035 1.217-.355.71-.648.897-1.554 1.066-2.434.506-2.638-.942-5.427-3.544-6.741-2.674-1.35-5.303-1.155-7.674.684-2.354 1.83-3.234 4.325-2.532 7.221.702 2.94 2.674 4.681 5.605 5.356.346.08.702.089 1.057.116.79.062 1.35.648 1.314 1.385-.035.746-.63 1.297-1.43 1.27-4.272-.15-8.074-3.073-9.14-7.372-1.385-5.596 2.265-11.112 7.959-12.053 4.992-.817 9.957 2.513 10.996 7.416.436 2.07.071 4.05-.915 5.89-.826 1.536-2.158 2.362-3.943 2.335-1.04-.017-1.821-.532-2.38-1.243-.72.266-1.386.613-2.088.755-1.36.275-2.54-.204-3.553-1.101-2.354-2.088-2.496-6.316-.267-8.527 1.422-1.404 3.11-1.813 5.01-1.058.08.018.151.027.231.054zm-.018 4.778c-.053-.24-.106-.71-.257-1.154-.24-.729-.693-1.288-1.52-1.368-.816-.08-1.42.328-1.856.977-.781 1.146-.648 3.064.267 4.104.861.985 2.007.906 2.745-.187.444-.64.595-1.368.621-2.372z"/></g><defs><clipPath id="clip0"><path fill="#fff" d="M0 0h45.842v46.01H0z"/></clipPath></defs></svg>