<svg width="208" height="52" fill="none" xmlns="http://www.w3.org/2000/svg"><path d="M198.25.65H9.75a9.1 9.1 0 00-9.1 9.1v32.5a9.1 9.1 0 009.1 9.1h188.5a9.1 9.1 0 009.1-9.1V9.75a9.1 9.1 0 00-9.1-9.1z" fill="#fff" stroke="#000"/><path fill-rule="evenodd" clip-rule="evenodd" d="M43.178 36.885c-.306.776-1.012 1.87-2.012 2.64a6.587 6.587 0 01-2.215 1.15c-1.01.3-2.253.401-3.801.401H20.996c-1.548 0-2.792-.1-3.802-.4a6.588 6.588 0 01-2.214-1.15c-1-.771-1.706-1.865-2.012-2.641-.616-1.565-.622-3.34-.622-4.458V18.272c0-1.118.006-2.893.622-4.458.306-.777 1.011-1.87 2.012-2.64a6.589 6.589 0 012.214-1.151c1.01-.3 2.254-.4 3.802-.4H35.15c1.548 0 2.791.1 3.801.4.948.28 1.637.706 2.215 1.15 1 .771 1.706 1.864 2.012 2.641.616 1.565.622 3.34.622 4.458v14.155c0 1.118-.007 2.893-.622 4.458z" fill="url(#paint0_linear)"/><path d="M30.354 27.701c-.472-.498-1.3-.817-2.28-.817-.978 0-1.807.32-2.28.817-.245.26-.376.527-.417.906-.08.735-.035 1.368.052 2.38a54.9 54.9 0 00.44 3.558c.145.932.263 1.435.37 1.795.173.583.822 1.094 1.835 1.094 1.014 0 1.663-.51 1.836-1.094.107-.36.225-.863.37-1.795.203-1.31.358-2.595.44-3.559.087-1.011.131-1.644.052-2.379a1.446 1.446 0 00-.418-.906zm-4.851-4.434a2.574 2.574 0 105.148 0 2.574 2.574 0 00-5.148 0zm2.542-10.159c-6.02.018-10.954 4.902-11.028 10.922-.06 4.876 3.053 9.048 7.4 10.577a.148.148 0 00.195-.161 63.32 63.32 0 01-.16-1.133.38.38 0 00-.224-.3c-3.435-1.501-5.835-4.947-5.796-8.938.05-5.238 4.328-9.508 9.566-9.55 5.355-.044 9.725 4.3 9.725 9.644 0 3.952-2.389 7.355-5.798 8.844a.38.38 0 00-.223.3c-.05.374-.103.755-.16 1.133-.017.11.09.198.196.161 4.305-1.514 7.4-5.621 7.4-10.438 0-6.11-4.98-11.078-11.093-11.06zm-.2 5.075a6 6 0 016.232 5.99c0 1.72-.73 3.275-1.895 4.369a.459.459 0 00-.144.36c.023.411.014.811-.013 1.263a.146.146 0 00.227.13 7.408 7.408 0 003.24-6.122c0-4.183-3.484-7.568-7.703-7.404-3.92.152-7.066 3.384-7.116 7.307a7.406 7.406 0 003.24 6.219.146.146 0 00.226-.13 10.587 10.587 0 01-.013-1.263.459.459 0 00-.144-.36 5.979 5.979 0 01-1.892-4.53c.082-3.141 2.615-5.707 5.755-5.83z" fill="#fff"/><path d="M55.9 19.364v-7.529h1.183v6.536h3.585v.993H55.9zm6.511-6.366c-.367 0-.686-.282-.686-.644 0-.36.32-.654.686-.654.379 0 .686.293.686.654 0 .362-.307.644-.686.644zm-.52 6.366v-5.452h1.065v5.452H61.89zm2.204-.71l.509-.746c.39.406 1.147.779 1.917.779.804 0 1.23-.316 1.23-.779 0-.542-.65-.722-1.384-.88-.97-.215-2.106-.463-2.106-1.637 0-.87.78-1.614 2.177-1.614.982 0 1.692.338 2.177.779l-.473.71c-.332-.383-.97-.665-1.692-.665s-1.172.27-1.172.71c0 .475.615.633 1.325.791.994.215 2.178.474 2.178 1.727 0 .937-.805 1.67-2.308 1.67-.958 0-1.798-.281-2.378-.846zm7.552.846c-.899 0-1.36-.486-1.36-1.344v-3.352h-.947v-.892h.947v-1.49h1.065v1.49h1.16v.892h-1.16v3.127c0 .383.189.666.556.666.248 0 .473-.102.58-.215l.272.768c-.225.203-.556.35-1.113.35zm1.637-2.867c0-1.58 1.195-2.856 2.863-2.856 1.716 0 2.781 1.275 2.781 2.946v.248h-4.52c.083.926.793 1.693 1.94 1.693.604 0 1.267-.225 1.692-.643l.497.666c-.568.53-1.372.813-2.295.813-1.704 0-2.958-1.152-2.958-2.867zm2.863-2.021c-1.147 0-1.692.88-1.75 1.626h3.49c-.024-.723-.533-1.626-1.74-1.626zm7.92 4.752v-3.488c0-.903-.485-1.196-1.219-1.196-.663 0-1.266.383-1.574.79v3.894H80.21v-5.452h1.065v.768c.379-.44 1.136-.903 2.024-.903 1.206 0 1.834.61 1.834 1.76v3.827h-1.065zm8.23.136c-1.775 0-2.887-1.287-2.887-2.867 0-1.57 1.112-2.856 2.887-2.856 1.787 0 2.887 1.287 2.887 2.856 0 1.58-1.1 2.867-2.887 2.867zm0-.903c1.148 0 1.775-.926 1.775-1.964 0-1.028-.627-1.953-1.775-1.953-1.136 0-1.775.925-1.775 1.953 0 1.038.64 1.964 1.775 1.964zm8.038.767v-3.488c0-.903-.485-1.196-1.219-1.196-.662 0-1.266.383-1.573.79v3.894h-1.065v-5.452h1.065v.768c.378-.44 1.135-.903 2.023-.903 1.207 0 1.834.61 1.834 1.76v3.827h-1.065zM58.53 40.3l1.341-3.96h5.586l1.34 3.96h2.408l-5.292-14.655h-2.457L56.163 40.3h2.367zm6.348-5.79H60.45l2.184-6.428h.06l2.184 6.429zm7.871 9.324v-5.291h.051c.61 1.188 1.828 1.94 3.362 1.94 2.681 0 4.458-2.143 4.458-5.525 0-3.382-1.787-5.515-4.499-5.515-1.544 0-2.773.782-3.402 2.01h-.04v-1.837h-2.124v14.218h2.194zm2.793-5.21c-1.686 0-2.803-1.442-2.803-3.666 0-2.204 1.127-3.667 2.803-3.667 1.737 0 2.824 1.432 2.824 3.667 0 2.244-1.087 3.666-2.824 3.666zm8.958 5.21v-5.291h.05c.61 1.188 1.829 1.94 3.362 1.94 2.682 0 4.46-2.143 4.46-5.525 0-3.382-1.788-5.515-4.5-5.515-1.544 0-2.773.782-3.403 2.01h-.04v-1.837h-2.123v14.218H84.5zm2.793-5.21c-1.686 0-2.803-1.442-2.803-3.666 0-2.204 1.127-3.667 2.803-3.667 1.737 0 2.823 1.432 2.823 3.667 0 2.244-1.086 3.666-2.823 3.666zm9.039 1.676V25.645h-2.194V40.3h2.194zm6.815.203c2.448 0 4.296-1.391 4.601-3.341h-2.082c-.295.934-1.219 1.564-2.468 1.564-1.757 0-2.875-1.23-2.875-3.088v-.132h7.547v-.751c0-3.24-1.849-5.332-4.815-5.332-3.016 0-4.946 2.234-4.946 5.586 0 3.371 1.9 5.494 5.038 5.494zm2.529-6.53h-5.342c.111-1.615 1.188-2.783 2.721-2.783 1.534 0 2.57 1.147 2.621 2.783zM116.32 40.3v-5.007h3.148c2.874 0 4.895-1.97 4.895-4.834 0-2.854-1.98-4.814-4.824-4.814h-5.494V40.3h2.275zm2.61-6.916h-2.61v-5.82h2.62c1.97 0 3.097 1.056 3.097 2.905 0 1.848-1.127 2.915-3.107 2.915zm11.75 7.12c3.057 0 5.068-2.103 5.068-5.546 0-3.433-2.021-5.535-5.068-5.535-3.046 0-5.068 2.102-5.068 5.535 0 3.443 2.011 5.545 5.068 5.545zm0-1.809c-1.716 0-2.833-1.36-2.833-3.737 0-2.367 1.117-3.727 2.833-3.727 1.717 0 2.834 1.36 2.834 3.727 0 2.376-1.107 3.737-2.834 3.737zm10.776 1.788c1.554 0 2.773-.782 3.403-2.001h.04V40.3h2.133V25.645h-2.204v5.748h-.041c-.599-1.178-1.817-1.95-3.351-1.95-2.681 0-4.469 2.143-4.469 5.515s1.788 5.525 4.489 5.525zm.579-1.859c-1.737 0-2.823-1.412-2.823-3.666 0-2.245 1.086-3.667 2.823-3.667 1.686 0 2.813 1.453 2.813 3.667 0 2.234-1.127 3.666-2.813 3.666zm11.812 1.88c2.569 0 4.387-1.545 4.621-3.82h-2.113c-.253 1.24-1.137 1.98-2.488 1.98-1.706 0-2.833-1.36-2.833-3.706 0-2.295 1.117-3.707 2.813-3.707 1.432 0 2.285.904 2.508 2.041h2.093c-.193-2.102-1.869-3.87-4.621-3.87-3.037 0-5.028 2.144-5.028 5.536 0 3.453 1.991 5.545 5.048 5.545zm9.303-.021c1.402 0 2.752-.752 3.372-1.94h.051V40.3h2.102v-7.363c0-2.143-1.655-3.514-4.245-3.514-2.641 0-4.286 1.422-4.408 3.351h2.072c.193-.954.985-1.564 2.254-1.564 1.341 0 2.143.711 2.143 1.9v.822l-2.925.173c-2.539.142-3.971 1.29-3.971 3.158 0 1.92 1.463 3.22 3.555 3.22zm.609-1.737c-1.178 0-1.95-.61-1.95-1.544 0-.914.742-1.493 2.052-1.584l2.63-.163v.843c0 1.392-1.198 2.448-2.732 2.448zm11.05 1.757c2.519 0 4.337-1.34 4.337-3.29 0-1.544-.833-2.397-3.016-2.905l-1.737-.396c-1.158-.264-1.645-.721-1.645-1.392 0-.853.792-1.432 1.98-1.432 1.229 0 1.991.65 2.113 1.686h2.061c-.071-1.97-1.686-3.351-4.174-3.351-2.458 0-4.123 1.31-4.123 3.22 0 1.553 1.005 2.528 3.036 2.995l1.737.407c1.168.264 1.564.67 1.564 1.36 0 .874-.812 1.422-2.133 1.422-1.34 0-2.102-.548-2.305-1.665h-2.174c.204 2.031 1.808 3.341 4.479 3.341zm9.679-.132c.488 0 .975-.04 1.219-.102v-1.736c-.142.03-.498.05-.721.05-.894 0-1.3-.416-1.3-1.34v-5.89h2.031v-1.737h-2.031v-2.53h-2.204v2.53h-1.554v1.736h1.554v6.135c0 2.061.843 2.884 3.006 2.884zm7.039.132c2.518 0 4.336-1.34 4.336-3.29 0-1.544-.833-2.397-3.016-2.905l-1.737-.396c-1.158-.264-1.645-.721-1.645-1.392 0-.853.792-1.432 1.98-1.432 1.229 0 1.991.65 2.113 1.686h2.062c-.072-1.97-1.686-3.351-4.175-3.351-2.458 0-4.123 1.31-4.123 3.22 0 1.553 1.005 2.528 3.037 2.995l1.736.407c1.168.264 1.564.67 1.564 1.36 0 .874-.812 1.422-2.132 1.422-1.341 0-2.103-.548-2.306-1.665h-2.173c.203 2.031 1.807 3.341 4.479 3.341z" fill="#000"/><defs><linearGradient id="paint0_linear" x1="28.073" y1="9.623" x2="28.073" y2="41.076" gradientUnits="userSpaceOnUse"><stop stop-color="#F452FF"/><stop offset="1" stop-color="#832BC1"/></linearGradient></defs></svg>