<svg width="208" height="52" fill="none" xmlns="http://www.w3.org/2000/svg"><path d="M198.25.65H9.75a9.1 9.1 0 00-9.1 9.1v32.5a9.1 9.1 0 009.1 9.1h188.5a9.1 9.1 0 009.1-9.1V9.75a9.1 9.1 0 00-9.1-9.1z" fill="#fff" stroke="#000"/><path d="M55.9 19.364v-7.529h1.183v6.536h3.585v.993H55.9zm6.511-6.366c-.367 0-.686-.282-.686-.644 0-.36.32-.654.686-.654.379 0 .686.293.686.654 0 .362-.307.644-.686.644zm-.52 6.366v-5.452h1.065v5.452H61.89zm2.204-.71l.509-.746c.39.406 1.147.779 1.917.779.804 0 1.23-.316 1.23-.779 0-.542-.65-.722-1.384-.88-.97-.215-2.106-.463-2.106-1.637 0-.87.78-1.614 2.177-1.614.982 0 1.692.338 2.177.779l-.473.71c-.332-.383-.97-.665-1.692-.665s-1.172.27-1.172.71c0 .475.615.633 1.325.791.994.215 2.178.474 2.178 1.727 0 .937-.805 1.67-2.308 1.67-.958 0-1.798-.281-2.378-.846zm7.552.846c-.899 0-1.36-.486-1.36-1.344v-3.352h-.947v-.892h.947v-1.49h1.065v1.49h1.16v.892h-1.16v3.127c0 .383.189.666.556.666.248 0 .473-.102.58-.215l.272.768c-.225.203-.556.35-1.113.35zm1.637-2.867c0-1.58 1.195-2.856 2.863-2.856 1.716 0 2.781 1.275 2.781 2.946v.248h-4.52c.083.926.793 1.693 1.94 1.693.604 0 1.267-.225 1.692-.643l.497.666c-.568.53-1.372.813-2.295.813-1.704 0-2.958-1.152-2.958-2.867zm2.863-2.021c-1.147 0-1.692.88-1.75 1.626h3.49c-.024-.723-.533-1.626-1.74-1.626zm7.92 4.752v-3.488c0-.903-.485-1.196-1.219-1.196-.663 0-1.266.383-1.574.79v3.894H80.21v-5.452h1.065v.768c.379-.44 1.136-.903 2.024-.903 1.206 0 1.834.61 1.834 1.76v3.827h-1.065zm8.23.136c-1.775 0-2.887-1.287-2.887-2.867 0-1.57 1.112-2.856 2.887-2.856 1.787 0 2.887 1.287 2.887 2.856 0 1.58-1.1 2.867-2.887 2.867zm0-.903c1.148 0 1.775-.926 1.775-1.964 0-1.028-.627-1.953-1.775-1.953-1.136 0-1.775.925-1.775 1.953 0 1.038.64 1.964 1.775 1.964zm8.038.767v-3.488c0-.903-.485-1.196-1.219-1.196-.662 0-1.266.383-1.573.79v3.894h-1.065v-5.452h1.065v.768c.378-.44 1.135-.903 2.023-.903 1.207 0 1.834.61 1.834 1.76v3.827h-1.065z" fill="#000"/><path fill-rule="evenodd" clip-rule="evenodd" d="M38.862 23.506c-5.238-3.11-13.878-3.397-18.878-1.88a1.52 1.52 0 11-.883-2.908c5.74-1.742 15.283-1.406 21.313 2.174a1.52 1.52 0 01-1.552 2.614zm-.171 4.607a1.268 1.268 0 01-1.743.418c-4.367-2.684-11.026-3.462-16.192-1.894a1.269 1.269 0 01-1.582-.844 1.269 1.269 0 01.845-1.58c5.902-1.791 13.24-.924 18.255 2.159.596.366.783 1.147.417 1.741zm-1.989 4.425a1.012 1.012 0 01-1.392.337c-3.816-2.332-8.62-2.858-14.276-1.567a1.013 1.013 0 11-.45-1.974c6.19-1.415 11.5-.806 15.782 1.811.478.292.628.916.337 1.393zM29.25 9.1C20.276 9.1 13 16.375 13 25.35S20.276 41.6 29.25 41.6c8.975 0 16.25-7.275 16.25-16.25S38.225 9.1 29.25 9.1z" fill="#1ED760"/><path d="M61.345 40.559c3.625 0 5.935-1.845 5.935-4.78 0-2.267-1.338-3.573-4.597-4.263l-1.705-.356c-2.018-.432-2.817-1.187-2.817-2.32 0-1.425 1.338-2.31 3.162-2.31 1.888 0 3.173.96 3.324 2.526h2.341c-.075-2.72-2.33-4.587-5.633-4.587-3.313 0-5.654 1.835-5.654 4.5 0 2.245 1.413 3.69 4.532 4.349l1.694.356c2.083.453 2.903 1.209 2.903 2.417 0 1.392-1.413 2.407-3.388 2.407-2.072 0-3.54-.928-3.756-2.471h-2.352c.151 2.773 2.493 4.532 6.01 4.532zm10.154 3.496v-5.622h.054c.647 1.263 1.942 2.061 3.572 2.061 2.849 0 4.737-2.277 4.737-5.87 0-3.594-1.9-5.86-4.78-5.86-1.64 0-2.946.831-3.615 2.137h-.044v-1.953h-2.255v15.107h2.33zm2.968-5.536c-1.792 0-2.979-1.532-2.979-3.895 0-2.342 1.198-3.896 2.978-3.896 1.846 0 3 1.522 3 3.896 0 2.384-1.154 3.895-3 3.895zm12.064 1.997c3.248 0 5.384-2.234 5.384-5.892 0-3.648-2.147-5.881-5.384-5.881-3.238 0-5.385 2.233-5.385 5.88 0 3.659 2.137 5.893 5.385 5.893zm0-1.921c-1.824 0-3.01-1.446-3.01-3.971 0-2.515 1.186-3.96 3.01-3.96 1.823 0 3.01 1.445 3.01 3.96 0 2.525-1.176 3.97-3.01 3.97zm11.06 1.78c.519 0 1.037-.043 1.296-.108v-1.845a5.108 5.108 0 01-.767.054c-.95 0-1.38-.442-1.38-1.424v-6.26h2.157v-1.844H96.74V26.26h-2.342v2.687h-1.65v1.845h1.65v6.518c0 2.19.896 3.064 3.195 3.064zm4.457-13.262c.745 0 1.338-.604 1.338-1.338a1.33 1.33 0 00-1.338-1.338 1.34 1.34 0 00-1.349 1.338c0 .734.605 1.338 1.349 1.338zm1.166 13.187V28.948h-2.331V40.3h2.331zm5.406 0v-9.507h2.266v-1.824h-2.298v-1.068c0-1.004.474-1.51 1.489-1.51.313 0 .626.02.852.064v-1.727a8.343 8.343 0 00-1.305-.108c-2.31 0-3.346 1.036-3.346 3.238v1.111h-1.564v1.824h1.564V40.3h2.342zm5.234 4.23c2.352 0 3.474-.885 4.446-3.637l4.251-11.945h-2.46l-2.871 9.237h-.043l-2.87-9.237h-2.525l4.1 11.363c0 .01-.205.68-.205.701-.356 1.165-.938 1.619-2.018 1.619-.194 0-.582 0-.755-.044v1.889c.173.032.755.054.95.054z" fill="#000"/></svg>