<svg width="47" height="34" fill="none" xmlns="http://www.w3.org/2000/svg"><g clip-path="url(#clip0)" fill="#fff"><path d="M46.011 17.34c-.063.116-.135.224-.198.34a1.54 1.54 0 01-1.734.729 1.513 1.513 0 01-1.123-1.456c-.01-1.465 0-2.93 0-4.466H7.998c-.808 0-1.383-.378-1.608-1.043-.333-1.006.386-2.004 1.465-2.013 2.56-.009 5.122 0 7.683 0h27.355c.458-3.055-.881-5.436-3.649-6.048-.377-.08-.773-.09-1.159-.09-10.02-.008-20.04-.008-30.06 0-2.264 0-3.99 1.16-4.637 3.128-.143.45-.233.934-.233 1.41-.027 2.49-.01 4.97-.01 7.46 0 .071.01.143.028.269H37.95c.207 0 .422 0 .62.045.755.189 1.258.925 1.16 1.653-.108.782-.746 1.357-1.537 1.357-3.19.01-6.38 0-9.57 0H3.082v7.425c0 2.875 1.968 4.852 4.853 4.852 7.593.009 15.187 0 22.78 0 .755 0 1.321.35 1.564.98.233.61.08 1.32-.45 1.698-.296.206-.71.377-1.069.377-7.683.018-15.367.027-23.05 0-3.89-.01-7.017-2.751-7.611-6.597-.009-.072-.053-.135-.08-.198V7.113c.027-.125.071-.25.09-.386.26-1.6.934-2.992 2.066-4.151C3.802.876 5.824.193 8.16.202c4.988.027 9.975.01 14.963.01 5.014 0 10.028-.01 15.052.008 3.523.01 6.407 2.058 7.459 5.266.17.521.26 1.07.386 1.609-.009 3.415-.009 6.83-.009 10.244z"/><path d="M46.01 26.865c-.09.377-.162.755-.26 1.123-.468 1.761-1.447 3.172-2.921 4.242-.674.494-1.384.943-2.085 1.401-.503.333-1.07.45-1.573.126-1.267-.809-2.606-1.545-3.603-2.714-1.186-1.384-1.788-2.992-1.851-4.798a81.441 81.441 0 01-.01-2.966c.01-.773.387-1.303 1.124-1.555 1.483-.503 2.965-1.024 4.466-1.482.36-.108.809-.09 1.178.018 1.446.44 2.866.952 4.304 1.41.602.19.97.603 1.231 1.142v4.053zm-6.129 3.675c.414-.278.845-.548 1.25-.854.925-.71 1.536-1.653 1.698-2.803.108-.791.063-1.609.063-2.418 0-.108-.17-.26-.297-.305a74.77 74.77 0 00-2.507-.845.788.788 0 00-.431-.018 92.32 92.32 0 00-2.633.88c-.1.037-.243.171-.243.252 0 1.07-.099 2.148.279 3.2.503 1.392 1.59 2.21 2.821 2.911zM10.02 24.744c.683 0 1.375-.01 2.058 0 .934.009 1.6.638 1.609 1.5.008.89-.656 1.555-1.6 1.564-1.393.01-2.777.01-4.17 0-.943-.009-1.635-.683-1.617-1.554.009-.872.71-1.51 1.653-1.52.692.01 1.375.01 2.067.01z"/></g><defs><clipPath id="clip0"><path fill="#fff" transform="translate(0 .202)" d="M0 0h46.01v33.753H0z"/></clipPath></defs></svg>