<svg width="429" height="66" fill="none" xmlns="http://www.w3.org/2000/svg"><path d="M115.135 39.312v-4.474c0-1.279.478-1.918 1.435-2.078.479 0 .638-.16.957-.16.319 0 .478 0 .478-.32 0-.319-.319-.319-.797-.319-1.276 0-3.189.16-4.465.16-1.116 0-3.508-.16-5.422-.16-.478 0-.797 0-.797.32 0 .16.159.32.638.32.478 0 1.116 0 1.435.16 1.276.319 1.594.798 1.594 2.077v7.99c0 .64-.159 1.119-.637 1.438-.957.48-2.233.48-3.19.48-7.973 0-13.076-6.073-13.076-14.063 0-4.635 1.276-7.511 3.508-9.269 2.552-2.237 5.422-2.397 7.495-2.397 4.306 0 7.176 1.758 8.292 2.876.957 1.12 1.117 2.238 1.276 3.197 0 .32.16.479.319.479.319 0 .479-.16.479-.799 0-4.634.318-5.753.318-6.232 0-.32 0-.48-.478-.48-.797 0-2.232-.32-3.03-.48-.797-.16-3.986-.639-6.697-.639-3.19 0-6.538.32-10.047 2.398-3.349 2.077-6.538 6.232-6.538 12.305 0 10.387 8.133 14.702 17.382 14.702 2.87 0 6.538-.48 9.09-1.758.478-.32.478-.32.478-1.279v-3.995zm17.063-.48c.159 0 .159 0 .319.16l2.232 5.594c.16.32 0 .64-.319.64s-.319.159-.319.319.319.16.798.16h5.581c1.116 0 1.276 0 1.276-.32 0-.16-.16-.32-.319-.32-.319 0-.638 0-1.116-.16-.479-.16-1.276-.479-2.392-3.036-1.754-4.155-6.698-15.66-7.336-17.099-.319-.64-.478-.959-.797-.959-.319 0-.479.32-.797 1.119l-7.495 17.578c-.638 1.439-1.117 2.238-2.392 2.398h-.798c-.159 0-.319.16-.319.32 0 .159.16.319.479.319 1.435 0 3.03-.16 3.349-.16.956 0 2.232.16 3.189.16.319 0 .478 0 .478-.32 0-.16 0-.32-.478-.32h-.479c-.956 0-1.116-.32-1.116-.799 0-.32.16-.958.479-1.757l1.594-3.676c0-.16.16-.16.319-.16h6.379v.32zm-6.219-1.597c-.16 0-.16 0-.16-.16l2.711-7.031c0-.16 0-.32.16-.32 0 0 .159.16.159.32l2.711 7.031c0 .16 0 .16-.159.16h-5.422zm18.817.48c0 2.716 0 4.953-.16 6.072-.159.799-.319 1.278-.797 1.278-.319 0-.638.16-.957.16-.319 0-.478.16-.478.32s.159.32.478.32c1.116 0 3.189-.16 3.827-.16.798 0 2.711.16 4.625.16.319 0 .478-.16.478-.32s-.159-.32-.478-.32c-.479 0-1.116 0-1.435-.16-.798-.16-1.117-.48-1.117-1.278-.159-1.119-.159-3.356-.159-6.073V26.847c0-.958.319-1.438 1.116-1.438.319 0 .479-.16.798-.16.318 0 .478 0 .478-.32 0-.159-.16-.159-.638-.159h-7.495c-.478 0-.638 0-.638.16 0 .32.16.32.479.32.319 0 .797 0 1.116.16.638.159.957.479.957 1.437v10.867zm14.83-7.032c.638.48 3.668 3.835 6.857 6.871 3.03 2.877 6.538 6.393 8.452 7.99.319.32.638.64 1.116.64.16 0 .479-.32.479-.959l.319-17.579c0-1.598.318-2.077 1.116-2.237.319-.16.638-.16.957-.16.319 0 .478-.16.478-.32 0-.159-.319-.319-.638-.319h-6.538c-.478 0-.797 0-.797.32 0 .16.159.32.478.32.319 0 1.116 0 1.435.16.638.319.957.798.957 2.396l.319 12.465h-.159c-.479-.32-4.306-4.315-6.22-6.232l-8.93-8.95c-.478-.479-.957-.958-1.276-.958-.318 0-.478.32-.478.959l-.319 16.46c0 2.397-.159 3.196-.957 3.356-.319.16-.956.16-1.275.16-.319 0-.479.16-.479.319 0 .32.319.32.638.32 1.435 0 2.87-.16 3.189-.16.479 0 1.914.16 3.668.16.319 0 .638 0 .638-.32 0-.16-.159-.32-.478-.32-.479 0-.957 0-1.436-.16-.478-.16-.956-.799-.956-3.036l-.16-11.186zm25.993 7.031c0 2.557 0 4.794-.159 5.913-.16.8-.319 1.279-.798 1.438-.319 0-.637.16-.956.16-.319 0-.479.16-.479.32s.16.32.479.32h7.016c1.435 0 3.189.16 5.263.16 1.116 0 1.275 0 1.594-.8.16-.48.319-2.397.319-3.036 0-.32 0-.64-.319-.64-.159 0-.319.16-.319.48-.159 1.119-.478 1.758-1.275 2.077-.798.32-1.914.32-2.711.32-2.871 0-3.828-.48-3.828-2.397v-6.392c0-.16 0-.32.16-.32.797 0 3.987 0 4.465.16 1.116.16 1.435.48 1.595 1.119 0 .32 0 .799.159.959 0 .16 0 .16.319.16s.319-.32.319-.64c0-.16 0-1.278.159-1.918.16-1.438.16-1.917.16-2.077 0-.16-.16-.32-.16-.32-.159 0-.159.16-.478.32-.319.32-.638.32-1.435.48h-5.103c-.16 0-.16-.16-.16-.32v-6.872c0-.16 0-.32.16-.32.638 0 3.987 0 4.465.16 1.435.16 1.595.48 1.914.96.159.319.159.798.159.958 0 .16 0 .32.159.32.16 0 .319-.32.319-.48 0-.32.16-1.598.16-1.758 0-1.278.159-1.598.159-1.758 0-.16 0-.32-.159-.32-.16 0-.319.16-.479.16-.159 0-.637.16-1.275.16h-11.96c-.479 0-.638 0-.638.32 0 .16.159.32.478.32.479 0 .957 0 1.117.16.956.319 1.116.479 1.275 1.438v11.026h.319zm22.007 8.47c1.594 0 3.508-.16 4.784-1.119 2.073-1.438 2.87-3.196 2.87-5.273 0-2.557-1.116-4.635-4.943-6.712l-1.117-.64c-2.551-1.438-3.03-2.396-3.03-3.675 0-1.918 1.914-3.036 3.987-3.036 1.914 0 2.711.799 3.189 1.278.638.8.798 1.598.798 1.758 0 .32.159.48.319.48.159 0 .319-.32.319-.96 0-2.237.159-3.036.159-3.355 0-.16-.159-.32-.319-.32-.797-.16-2.232-.48-4.146-.48-3.987 0-7.335 2.238-7.335 5.594 0 2.397 1.116 4.315 4.465 6.392l1.594.959c2.552 1.438 2.871 2.717 2.871 3.995 0 1.918-1.436 3.516-3.987 3.516-1.754 0-3.987-.64-4.625-2.717-.159-.48-.318-1.118-.318-1.438 0-.16 0-.48-.319-.48-.16 0-.319.32-.319.8 0 .479-.16 2.237-.16 3.675 0 .64.16.8.479.959 1.435.64 3.189.799 4.784.799zm19.136-1.598c.478 1.278.797 1.598 1.116 1.598.319 0 .638-.48 1.435-2.078.638-1.438 2.073-4.474 3.827-8.47 1.595-3.355 2.392-4.953 3.509-7.51.797-1.758 1.116-2.237 1.435-2.397.478-.32 1.116-.32 1.435-.32.319 0 .478-.16.478-.32s-.159-.319-.638-.319h-5.74c-.479 0-.798 0-.798.32 0 .16.16.32.479.32.319 0 .797 0 1.116.159.319.16.319.16.319.48 0 .16-.16.639-.319.958-.638 1.758-4.465 10.867-5.581 13.744h-.16l-4.784-12.465c-.319-.96-.638-1.758-.638-2.078 0-.32.16-.48.319-.48.16-.159.638-.159 1.117-.159.318 0 .478-.16.478-.32s-.319-.32-.638-.32h-7.814c-.478 0-.797 0-.797.32 0 .16 0 .32.319.32.159 0 .638 0 1.116.16 1.116.32 1.435.48 2.073 2.077l7.336 16.78zm16.265-6.872c0 2.717 0 4.954-.159 6.073-.16.799-.319 1.278-.798 1.278-.319 0-.637.16-.956.16-.319 0-.479.16-.479.32s.16.32.479.32c1.116 0 3.189-.16 3.827-.16.797 0 2.711.16 4.624.16.319 0 .479-.16.479-.32s-.16-.32-.479-.32c-.478 0-1.116 0-1.435-.16-.797-.16-1.116-.48-1.116-1.278-.16-1.119-.16-3.356-.16-6.073V26.847c0-.958.319-1.438 1.117-1.438.319 0 .478-.16.797-.16.319 0 .478 0 .478-.32 0-.159-.159-.159-.637-.159h-7.495c-.479 0-.638 0-.638.16 0 .32.159.32.478.32.319 0 .797 0 1.116.16.638.159.957.479.957 1.437v10.867zm17.223-4.794v-5.913c0-.959.319-1.438 1.116-1.438.319 0 .797-.16 1.116-.16.319 0 .479-.16.479-.32s-.16-.319-.638-.319h-8.133c-.479 0-.638 0-.638.32 0 .16.16.32.478.32.319 0 .798 0 .957.159.957.32 1.116.48 1.276 1.438v10.867c0 2.557 0 4.794-.159 5.913-.16.799-.319 1.278-.798 1.438-.319 0-.638.16-.957.16-.319 0-.478.16-.478.32s.159.32.478.32h7.495c1.435 0 3.19.159 5.103.159 1.435 0 1.595-.16 1.914-.799.159-.8.478-2.877.478-3.196 0-.32 0-.64-.319-.64-.159 0-.319.16-.319.48 0 .48-.319 1.278-.797 1.598-.797.8-1.754.8-3.349.8-2.232 0-3.349-.16-3.827-.64-.638-.48-.638-2.237-.638-5.913V32.92h.16zm18.019 0v-5.913c0-.959.319-1.438 1.117-1.438.319 0 .797-.16 1.116-.16.319 0 .478-.16.478-.32s-.159-.319-.638-.319h-8.132c-.479 0-.638 0-.638.32 0 .16.159.32.478.32.319 0 .798 0 .957.159.957.32 1.116.48 1.276 1.438v10.867c0 2.557 0 4.794-.16 5.913-.159.799-.319 1.278-.797 1.438-.319 0-.638.16-.957.16-.319 0-.478.16-.478.32s.159.32.478.32h7.495c1.435 0 3.189.159 5.103.159 1.435 0 1.595-.16 1.914-.799.159-.8.478-2.877.478-3.196 0-.32 0-.64-.319-.64-.159 0-.319.16-.319.48 0 .48-.319 1.278-.797 1.598-.798.8-1.754.8-3.349.8-2.233 0-3.349-.16-3.827-.64-.638-.48-.638-2.237-.638-5.913V32.92h.159zm14.193 4.794c0 2.557 0 4.794-.16 5.913-.159.8-.318 1.279-.797 1.438-.319 0-.638.16-.957.16-.319 0-.478.16-.478.32s.159.32.478.32h7.017c1.435 0 3.189.16 5.262.16 1.116 0 1.276 0 1.595-.8.159-.48.319-2.397.319-3.036 0-.32 0-.64-.319-.64-.16 0-.319.16-.319.48-.159 1.119-.478 1.758-1.276 2.077-.797.32-1.913.32-2.711.32-2.87 0-3.827-.48-3.827-2.397v-6.392c0-.16 0-.32.16-.32.797 0 3.986 0 4.465.16 1.116.16 1.435.48 1.594 1.119 0 .32 0 .799.16.959 0 .16 0 .16.319.16s.319-.32.319-.64c0-.16 0-1.278.159-1.918.16-1.438.16-1.917.16-2.077 0-.16-.16-.32-.16-.32-.159 0-.159.16-.478.32-.319.32-.638.32-1.435.48h-5.103c-.16 0-.16-.16-.16-.32v-6.872c0-.16 0-.32.16-.32.637 0 3.986 0 4.465.16 1.435.16 1.594.48 1.913.96.16.319.16.798.16.958 0 .16 0 .32.159.32.16 0 .319-.32.319-.48 0-.32.16-1.598.16-1.758 0-1.278.159-1.598.159-1.758 0-.16 0-.32-.159-.32-.16 0-.319.16-.479.16-.159 0-.638.16-1.276.16h-11.96c-.478 0-.637 0-.637.32 0 .16.159.32.478.32.478 0 .957 0 1.116.16.957.319 1.117.479 1.276 1.438v11.026h.319z" fill="#D7B055"/><path d="M335.518 46.344c2.392 0 5.262-.32 6.697-.8.638-.319.798-.478.957-1.118.319-1.278.797-4.474.797-4.954 0-.32 0-.639-.319-.639-.318 0-.318.16-.478.8-.159.638-.638 1.757-1.276 2.556-1.435 1.758-3.508 2.077-6.857 2.077-5.103 0-11.8-4.474-11.8-13.423 0-3.676.638-7.192 3.508-9.748 1.595-1.439 3.827-2.398 7.017-2.398 3.508 0 6.378.96 7.654 2.398a4.962 4.962 0 011.435 3.515c0 .48 0 .8.319.8s.478-.32.478-.8c0-.799.001-2.876.16-3.995 0-1.278.159-1.758.159-2.077 0-.16-.159-.48-.637-.48-1.117-.16-2.392-.48-3.828-.639-1.754-.16-3.189-.32-5.422-.32-5.581 0-9.089 1.439-11.8 3.995-3.668 3.357-4.465 7.671-4.465 10.228 0 3.676.957 7.83 4.624 11.027 3.668 2.876 7.974 3.995 13.077 3.995zm23.76-.16c7.495 0 12.12-4.954 12.12-11.346s-4.465-10.387-11.801-10.387c-8.771 0-12.119 6.232-12.119 10.866 0 4.954 3.508 10.867 11.8 10.867zm1.276-1.438c-5.422 0-8.771-4.475-8.771-10.228 0-6.871 3.827-8.63 7.017-8.63 4.624 0 8.292 3.836 8.292 9.909 0 7.99-4.624 8.949-6.538 8.949zm16.266-7.032c0 2.717 0 4.954-.16 6.073-.159.799-.319 1.279-.797 1.279-.319 0-.638.16-.957.16-.319 0-.478.16-.478.319 0 .16.159.32.478.32 1.116 0 3.189-.16 3.827-.16.798 0 2.711.16 4.625.16.319 0 .478-.16.478-.32s-.159-.32-.478-.32c-.479 0-1.117 0-1.435-.16-.798-.16-1.117-.479-1.117-1.278-.159-1.119-.159-3.356-.159-6.073V26.848c0-.96.319-1.439 1.116-1.439.319 0 .478-.16.797-.16.319 0 .479 0 .479-.32 0-.159-.16-.159-.638-.159h-7.495c-.478 0-.638 0-.638.16 0 .32.16.32.479.32.318 0 .797 0 1.116.16.638.16.957.479.957 1.438v10.866zm14.83-7.031c.638.48 3.668 3.835 6.857 6.872 3.03 2.876 6.538 6.392 8.452 7.99.319.32.638.64 1.116.64.159 0 .478-.32.478-.96l.319-17.578c0-1.598.319-2.078 1.117-2.238.319-.16.638-.16.956-.16.319 0 .479-.16.479-.32 0-.159-.319-.319-.638-.319h-6.538c-.479 0-.797 0-.797.32 0 .16.159.32.478.32.319 0 1.116 0 1.435.16.638.319.957.798.957 2.396l.319 12.465h-.16c-.478-.32-4.305-4.315-6.219-6.232l-8.93-8.95c-.478-.479-.957-.958-1.276-.958-.319 0-.478.32-.478.959l-.319 16.46c0 2.397-.159 3.196-.957 3.356-.319.16-.957.16-1.276.16-.319 0-.478.16-.478.32 0 .319.319.319.638.319 1.435 0 2.87-.16 3.189-.16.479 0 1.914.16 3.668.16.319 0 .638 0 .638-.32 0-.16-.16-.32-.479-.32-.478 0-.956 0-1.435-.16-.478-.16-.957-.798-.957-3.036l-.159-11.186zm29.182 15.501c1.595 0 3.509-.16 4.784-1.118 2.073-1.439 2.871-3.197 2.871-5.274 0-2.557-1.116-4.635-4.944-6.712l-1.116-.64c-2.551-1.437-3.03-2.396-3.03-3.675 0-1.918 1.914-3.036 3.987-3.036 1.913 0 2.711.799 3.189 1.278.638.8.798 1.598.798 1.758 0 .32.159.48.318.48.16 0 .319-.32.319-.96 0-2.236.16-3.035.16-3.355 0-.16-.16-.32-.319-.32-.797-.16-2.233-.48-4.146-.48-3.987 0-7.336 2.238-7.336 5.594 0 2.397 1.117 4.315 4.465 6.392l1.595.96c2.552 1.437 2.87 2.716 2.87 3.994 0 1.918-1.435 3.516-3.986 3.516-1.754 0-3.987-.64-4.625-2.717-.159-.48-.319-1.118-.319-1.438 0-.16 0-.48-.319-.48-.159 0-.319.32-.319.8 0 .48-.159 2.237-.159 3.675 0 .64.159.8.478.96 1.276.638 3.03.798 4.784.798z" fill="#232F3E"/><path fill-rule="evenodd" clip-rule="evenodd" d="M4.465 31.961l21.369-20.934 4.943 4.954L13.236 33.24l17.541 17.259-4.943 4.954L4.465 34.838c-.638-.8-.797-1.918 0-2.877zm39.867 34.04h-9.25c1.436-.32 2.871-1.12 3.987-2.078l.32-.32L65.7 37.874v8.95L47.521 64.721C46.564 65.84 45.926 66 44.331 66zm3.03-64.722l15.787 15.5 2.232 2.238h-9.886L40.505 4.315C38.272 2.078 36.996.799 34.445.16h9.408C44.81 0 45.926 0 47.362 1.279z" fill="#232F3E"/><path fill-rule="evenodd" clip-rule="evenodd" d="M61.714 35.637L32.212 64.722c-1.116 1.118-1.276.958-3.03 1.278H18.817c1.276 0 3.19-.799 4.465-1.918L50.87 36.915H36.199v-6.712H59.8c3.03-.16 4.146 3.516 1.914 5.434zM31.574 1.278l18.02 17.739h-9.887L24.717 4.315C20.731.32 20.571.479 18.18 0h9.887c1.435 0 2.233.16 3.508 1.278zM0 20.935L16.106 5.114c.797-.8 1.435-1.279 2.552-.959.319.16.478.32.637.48l3.509 3.515L0 30.683v-9.748zm18.18 40.91h-1.437L0 44.586v-8.47L22.325 58.01l-3.508 3.515c-.16.16-.478.32-.638.32z" fill="#D7B055"/></svg>