<svg width="24" height="24" fill="none" xmlns="http://www.w3.org/2000/svg"><g clip-path="url(#clip0)"><path d="M20.949 14.052c-.275-3.58-1.942-5.823-3.412-7.802C16.176 4.418 15 2.835 15 .5a.5.5 0 00-.791-.406c-2.208 1.58-4.05 4.243-4.694 6.784-.447 1.769-.506 3.757-.514 5.07-2.04-.435-2.501-3.485-2.506-3.518a.503.503 0 00-.713-.38c-.107.052-2.625 1.332-2.771 6.44C3 14.658 3 14.83 3 15c0 4.962 4.038 9 9 9h.026c4.95-.015 8.974-4.047 8.974-9 0-.25-.051-.948-.051-.948zM12 22.999c-1.654 0-3-1.433-3-3.195 0-.06 0-.12.004-.195.02-.743.161-1.25.316-1.588.29.623.808 1.196 1.65 1.196a.5.5 0 00.5-.5c0-.712.015-1.533.193-2.274.157-.658.534-1.357 1.012-1.917.212.727.626 1.316 1.03 1.89.58.823 1.177 1.673 1.282 3.123.007.085.013.172.013.265 0 1.762-1.346 3.195-3 3.195z" fill="#D7B055"/></g><defs><clipPath id="clip0"><path fill="#fff" d="M0 0h24v24H0z"/></clipPath></defs></svg>