<svg width="14" height="16" fill="none" xmlns="http://www.w3.org/2000/svg"><g clip-path="url(#clip0)" fill="#87C705"><path d="M6.754 16c-.238-.078-.485-.131-.707-.238-.51-.243-.856-.659-1.063-1.196a1.362 1.362 0 01-.034-.104c-.003-.015 0-.03.003-.053h4.14c-.123.235-.213.457-.342.647a2.074 2.074 0 01-1.446.919c-.024.003-.045.016-.07.025h-.48zM14 13H0c.013-.028.017-.053.034-.072 1.007-1.185 1.635-2.482 2.112-3.826.392-1.112.75-2.228 1.146-3.341.199-.553.468-1.09.86-1.588.721-.916 1.83-1.238 3.204-1.163 1.151.063 1.969.491 2.525 1.223.498.656.776 1.369 1.029 2.088.4 1.147.767 2.303 1.193 3.444.409 1.103 1 2.153 1.821 3.126.025.03.046.062.076.109zM5.722 1.306C5.728.572 6.294-.004 7.004 0c.687.003 1.26.61 1.253 1.325-.009.731-.578 1.31-1.286 1.306-.695-.006-1.255-.6-1.25-1.325z"/></g><defs><clipPath id="clip0"><path fill="#fff" d="M0 0h14v16H0z"/></clipPath></defs></svg>