<svg width="164" height="38" fill="none" xmlns="http://www.w3.org/2000/svg"><g clip-path="url(#clip0)" fill="#0B090A"><path d="M18.82.778H1.424C.658.778 0 1.408 0 2.185v2.927c0 .777.658 1.444 1.425 1.444h4.239c.475 0 .877.407.84.888v28.37c0 .816.658 1.445 1.426 1.445h4.275c.804 0 1.425-.666 1.425-1.444V7.407c0-.481.365-.851.84-.888h4.276c.804 0 1.425-.63 1.425-1.445V2.222c.073-.815-.548-1.444-1.352-1.444zm19.842 13.074c-.768-2.37-2.85-3.74-5.262-3.74a6.67 6.67 0 00-4.605 1.851.793.793 0 01-.292.185.398.398 0 01-.037-.296l-.036-9.63c0-.815-.658-1.444-1.425-1.444h-3.618c-.767 0-1.425.666-1.425 1.444v33.556c0 .778.621 1.444 1.425 1.444h3.69c.768 0 1.426-.666 1.426-1.444V18.074c-.037-.333 0-.667.073-1a1.94 1.94 0 011.973-1.555c.731-.037 1.389.333 1.754 1 .183.444.183.814.183 1.926v17.333c0 .815.621 1.444 1.425 1.444h3.69c.805 0 1.426-.63 1.426-1.444V16.556a7.563 7.563 0 00-.365-2.704zm9.573 11.704h7.893c.804 0 1.425-.667 1.425-1.445v-6.296c0-2-.256-2.889-.73-3.852-.805-1.667-3.216-3.852-7.455-3.889-3.07 0-6.505 1.148-7.857 4.334a10.134 10.134 0 00-.658 3.63v11c.037 1.184.183 2.332.439 3.48.694 2.408 2.631 5.186 7.93 5.186h.073c3.435 0 6.87-1.037 7.893-4.889a7.61 7.61 0 00.255-2.407V29.37c-.036-.777-.657-1.37-1.425-1.333h-3.471c-.767 0-1.425.667-1.425 1.445 0 .555-.037 1.148-.183 1.703a1.62 1.62 0 01-1.644 1.223c-.804.074-1.572-.482-1.79-1.26-.147-.407-.147-.703-.147-1.63v-3.11c.037-.482.402-.852.877-.852zm-.877-7.778c0-.482.073-.963.256-1.407.256-.482.658-.89 1.644-.89.914 0 1.28.371 1.498.778.183.408.256.89.256 1.334v2.222a.833.833 0 01-.84.852h-1.937c-.475 0-.84-.37-.877-.852v-2.037zm31.17 2.778a12.96 12.96 0 00-2.996-2.852l-6.322-4.408a5.245 5.245 0 01-1.279-1.11c-.584-.816-.657-2.371-.657-3v-.297c.036-2.889 1.205-3.222 2.63-3.26 2.376.038 2.558 1.297 2.632 2.297v2.518c0 .815.62 1.445 1.425 1.445H78.2c.803 0 1.425-.667 1.425-1.444v-2.37c.073-1.075-.11-2.15-.585-3.112C77.103-.037 71.293 0 70.233 0c-.694 0-6.906-.037-9.026 4.519-.84 1.777-.877 4.037-.877 4.851v.223c0 3.074.512 4.518 1.28 5.851.913 1.519 1.68 2.112 3.069 3.037l6.176 4.223c.548.37 1.023.814 1.425 1.333.584.889.657 2.074.657 2.74v.408c0 2.445-.036 3.963-.84 4.556-.402.37-.95.592-2.083.592a3.271 3.271 0 01-1.864-.481c-.95-.593-1.023-1.667-1.023-2.852v-3.555c0-.815-.62-1.445-1.425-1.445H61.5c-.804 0-1.425.63-1.425 1.445v4.073a8.087 8.087 0 00.73 3.815c.44 1 1.097 1.89 1.937 2.556C64.935 37.629 67.676 38 70.197 38c6.102.037 8.624-2.704 9.464-5.704.366-1.407.366-2.63.366-5.37V25.74c0-1.89-.147-3.408-1.499-5.185zm14.91 12.222c-.073-.26-.33-.445-.585-.482h-.073c-.146 0-.293.037-.475.037-1.06 0-2.01-.185-2.266-1.222-.146-.37-.146-.518-.146-1.333V16.074c0-.481.402-.852.877-.852h1.279c.767 0 1.425-.63 1.425-1.444V12.11c0-.815-.621-1.444-1.425-1.444H90.77c-.475 0-.877-.37-.877-.852v-5.11c0-.815-.621-1.445-1.425-1.445h-3.654c-.804 0-1.425.63-1.425 1.445v5.074a.856.856 0 01-.84.852h-.951c-.804 0-1.425.63-1.425 1.444v1.704c0 .815.621 1.444 1.425 1.444h.987c.475 0 .84.408.84.852v15.667c0 1.037.037 2.148.512 3.11.804 1.816 2.777 2.593 6.212 2.593h.073c.658 0 1.315-.037 1.973-.11a1.698 1.698 0 001.389-1.667V33.63c.036-.26-.037-.556-.147-.852zm14.653-21.222c0-.741-.584-1.334-1.315-1.37h-.146c-1.608.148-3.07 1-4.02 2.333-.146.185-.256.37-.365.555v-1c0-.778-.622-1.407-1.389-1.407h-3.69c-.805 0-1.426.63-1.426 1.444v23.704c0 .815.621 1.444 1.425 1.444h3.655c.803 0 1.425-.666 1.425-1.444V21.296c0-1.666.073-3.407 1.498-4.407.621-.37 1.352-.593 2.083-.555.329 0 .621.037.95.073l.073-.296-.073.296c.073 0 .183.038.256.038.292 0 .548-.111.731-.297a1.31 1.31 0 00.292-.814l.036-3.778zm8.295 14h7.893c.804 0 1.425-.667 1.425-1.445v-6.296c0-2-.255-2.889-.73-3.852-.804-1.667-3.216-3.889-7.492-3.889-3.069 0-6.504 1.148-7.856 4.334a10.153 10.153 0 00-.694 3.63v11a15.9 15.9 0 00.475 3.48c.694 2.408 2.631 5.223 8.002 5.186h.073c3.435 0 6.797-1.074 7.82-4.889.22-.778.293-1.593.256-2.407V29.37c-.036-.777-.658-1.37-1.425-1.333h-3.471c-.768 0-1.426.667-1.426 1.445 0 .555-.036 1.148-.182 1.703a1.621 1.621 0 01-1.645 1.223c-.804.037-1.534-.482-1.79-1.26-.146-.407-.146-.703-.146-1.63v-3.11c.073-.482.438-.852.913-.852zm1.06-10.074c.913 0 1.279.37 1.498.777.183.408.256.89.256 1.334v2.222c0 .481-.402.852-.877.852h-1.973a.833.833 0 01-.841-.852v-2.037c-.036-.482.073-.963.256-1.407.256-.482.694-.89 1.681-.89zm17.357 10.074h7.893c.804 0 1.425-.63 1.425-1.445v-6.296c0-2-.256-2.889-.731-3.852-.804-1.667-3.216-3.852-7.491-3.889-3.069 0-6.504 1.148-7.856 4.334a10.124 10.124 0 00-.658 3.63v11a15.9 15.9 0 00.475 3.48c.694 2.408 2.631 5.223 8.002 5.186h.037c3.435 0 6.797-1.074 7.82-4.889a7.636 7.636 0 00.256-2.407V29.37c-.037-.777-.658-1.37-1.425-1.333h-3.472c-.767 0-1.425.667-1.425 1.445 0 .555-.037 1.148-.183 1.703a1.62 1.62 0 01-1.644 1.223 1.737 1.737 0 01-1.754-1.26c-.146-.407-.146-.703-.146-1.63v-3.11c.036-.482.438-.852.877-.852zm1.096-10.074c.914 0 1.279.37 1.498.777.183.408.293.89.256 1.334v2.222c0 .481-.402.852-.877.852h-1.973c-.475 0-.841-.37-.877-.852v-2.037c0-.482.073-.963.256-1.407.292-.482.694-.89 1.717-.89zm22.071 17.296c-.073-.26-.329-.445-.584-.482h-.073c-.147.037-.329.037-.475.037-1.06 0-2.01-.185-2.266-1.222-.146-.37-.146-.518-.146-1.333V16.074c0-.481.402-.852.877-.852h1.279c.804 0 1.425-.63 1.425-1.444V12.11c0-.815-.658-1.444-1.425-1.444h-1.279c-.475 0-.841-.37-.877-.852v-5.11c0-.815-.621-1.445-1.425-1.445h-3.655c-.803 0-1.425.63-1.425 1.445v5.074a.856.856 0 01-.84.852h-.914c-.804 0-1.425.666-1.425 1.444v1.704c0 .815.658 1.444 1.425 1.444h.987c.475 0 .84.408.84.89v15.666c0 1.037.037 2.148.512 3.11.804 1.816 2.777 2.593 6.212 2.593h.037c.657 0 1.315-.037 1.973-.11.804-.149 1.352-.852 1.389-1.63v-2.037c.036-.334-.037-.63-.147-.926zm4.349 4.703c-.95 0-1.681-.777-1.681-1.703s.767-1.704 1.681-1.704c.913 0 1.681.74 1.681 1.667.036.926-.695 1.74-1.645 1.74 0 .037-.036.037-.036 0zm0-3.222c-.841 0-1.535.667-1.535 1.519 0 .852.658 1.555 1.498 1.555.841 0 1.498-.666 1.535-1.518a1.487 1.487 0 00-1.425-1.556h-.073zm0 .445c.182 0 .365.037.511.11a.723.723 0 01.293.593c0 .26-.147.482-.366.593l.366.889h-.512l-.292-.815h-.293v.815h-.438V34.74h.731v-.037zm-.256.963h.292c.219 0 .329-.075.329-.297 0-.222-.11-.259-.329-.259h-.292v.556z"/></g><defs><clipPath id="clip0"><path fill="#fff" d="M0 0h164v38H0z"/></clipPath></defs></svg>