<svg width="116" height="24" fill="none" xmlns="http://www.w3.org/2000/svg"><g clip-path="url(#clip0)" fill="#F2A503"><path d="M9.234 23.811H7.046l-1.655-2.52h-.018v2.52H3.612v-6.514h2.615c1.335 0 2.349.617 2.349 2.006 0 .891-.516 1.68-1.477 1.851l2.135 2.657zm-3.879-3.6h.16c.57 0 1.228-.102 1.228-.822 0-.703-.64-.806-1.228-.806h-.16v1.628zm10.408 2.469l-.462 1.131h-1.868l2.597-6.514h1.922l2.544 6.514H18.61l-.445-1.131h-2.402zm1.228-3.377l-.747 2.074h1.459l-.712-2.074zm8.611-2.023h2.49c1.887 0 3.435 1.423 3.435 3.257 0 1.835-1.566 3.257-3.434 3.257h-2.49V17.28zm1.761 5.091h.392c1.05 0 1.957-.548 1.957-1.817 0-1.165-.8-1.817-1.94-1.817h-.409v3.635zm11.173-5.091h-1.761v6.514h1.761V17.28zm13.006 3.137c0 2.109-1.566 3.6-3.736 3.6s-3.754-1.474-3.754-3.6c0-1.971 1.797-3.36 3.754-3.36 1.939.017 3.736 1.406 3.736 3.36zm-5.675.017c0 1.132.871 1.955 1.921 1.955s1.904-.823 1.904-1.955c0-.891-.854-1.714-1.904-1.714-1.05-.017-1.921.823-1.921 1.714zM18.663.052H15.23v15.41h3.434V.053zm7.152 3.977c4.181 0 6.192 3.171 6.192 5.88 0 2.708-2.01 5.897-6.192 5.897-4.18 0-6.191-3.172-6.191-5.897 0-2.709 2.01-5.88 6.191-5.88zm0 8.674c1.495 0 2.758-1.183 2.758-2.794 0-1.612-1.263-2.795-2.758-2.795-1.494 0-2.757 1.183-2.757 2.795 0 1.628 1.263 2.794 2.757 2.794zm13.166-8.674c4.18 0 6.191 3.171 6.191 5.88 0 2.708-2.01 5.897-6.191 5.897s-6.191-3.172-6.191-5.897c0-2.709 2.01-5.88 6.191-5.88zm0 8.674c1.494 0 2.758-1.183 2.758-2.794 0-1.612-1.264-2.795-2.758-2.795a2.762 2.762 0 00-2.758 2.795 2.751 2.751 0 002.758 2.794zm7.045-8.315h3.203v1.183h.035c.267-.463 1.014-1.56 3.167-1.56 1.014 0 2.42.343 3.327 1.972.694-1.08 1.886-1.972 3.648-1.972.8 0 2.099.189 3.024 1.115 1.085 1.097 1.245 1.834 1.245 4.302v6.052h-3.433V9.583c0-.892 0-2.452-1.762-2.452-1.903 0-1.903 1.68-1.903 2.297v6.052h-3.434V9.428c0-.6 0-2.314-1.726-2.314-1.94 0-1.94 1.783-1.94 2.452v5.897h-3.433V4.388M64.85.052h3.433v5.21c1.228-1.25 2.865-1.25 3.345-1.25 2.402 0 5.658 1.645 5.658 5.845 0 3.995-2.882 5.983-5.8 5.983-1.62 0-2.847-.754-3.292-1.56h-.053v1.183H64.85V.052zm6.102 12.702c1.761 0 2.882-1.371 2.882-2.845 0-1.423-1.12-2.812-2.829-2.812-1.814 0-2.846 1.406-2.846 2.795 0 1.542 1.067 2.862 2.793 2.862zm18.788-.771c-.552 1.251-1.37 2.194-2.33 2.845-.962.652-2.1.995-3.274.995-3.292 0-6.103-2.572-6.103-5.863 0-3.086 2.527-5.949 6.031-5.949 3.505 0 6.067 2.675 6.067 6.052 0 .445-.035.617-.07.874h-8.612c.214 1.32 1.352 2.091 2.687 2.091 1.05 0 1.619-.463 2.1-1.045h3.504zM86.715 8.69c-.142-.651-.818-1.903-2.615-1.903-1.78 0-2.455 1.235-2.615 1.903h5.23zm4.466-4.302h3.238v1.183h.054c.409-.291 1.76-1.234 3.327-1.045V7.49c-1.584.052-3.167.223-3.167 1.886v6.086H91.18V4.388zm19.161 9.738c0 1.645-.124 3.72-.676 4.662-.889 1.39-2.989 2.64-5.817 2.4-3.986-.342-5.107-2.142-5.285-3.89h3.755c.498 1.096 1.565 1.096 1.779 1.096 1.832 0 2.793-.257 2.793-3.805v-.326h-.036c-.355.634-1.352 1.577-3.149 1.577-3.131 0-5.8-2.28-5.8-5.829 0-3.788 2.829-5.965 5.8-5.965 1.281 0 2.544.445 3.167 1.405h.054V4.406h3.433v9.72h-.018zm-6.244-1.389c1.654 0 2.811-1.166 2.811-2.76 0-1.783-1.263-2.846-2.794-2.846-1.476 0-2.775 1.132-2.775 2.76 0 1.749 1.317 2.846 2.758 2.846zM3.594.052h4.145c2.722 0 3.665.24 4.84 1.49.711.704.96 1.647.96 2.538 0 1.183-.498 2.177-1.797 2.88 2.58.874 2.491 3.154 2.491 3.806 0 1.234-.498 2.588-1.477 3.36-1.476 1.2-2.152 1.337-4.857 1.337H3.594V.052zm3.433 5.845h1.14c.568 0 1.511 0 1.511-1.234 0-1.166-.871-1.166-1.512-1.166H7.027v2.4zm0 6.103h1.62c.515 0 1.814 0 1.814-1.491 0-1.337-1.156-1.337-1.814-1.337h-1.62V12z"/></g><defs><clipPath id="clip0"><path fill="#fff" d="M0 0h116v24H0z"/></clipPath></defs></svg>