<svg width="131" height="33" fill="none" xmlns="http://www.w3.org/2000/svg"><path d="M79.673 9.373c-2.105 0-3.757.454-5.411 1.36 0-4.838 0-9.222.15-10.733l-10.07 1.813v.908l1.052.15c1.351.303 1.804 1.058 2.102 2.873.303 3.629.151 22.981 0 26.157 2.706.605 5.563 1.059 8.42 1.059 7.967 0 12.777-4.99 12.777-12.852 0-6.199-3.908-10.735-9.02-10.735zm-3.458 21.922c-.602 0-1.354 0-1.804-.15-.15-2.116-.3-11.037-.15-18.899.901-.303 1.502-.454 2.254-.454 3.31 0 5.113 3.93 5.113 8.768 0 6.05-2.256 10.736-5.413 10.736zM26.457.605H0v1.36l1.504.15c1.953.303 2.705 1.512 3.005 4.384.452 5.443.301 15.272 0 19.957-.3 2.873-1.051 4.235-3.005 4.384L0 31.144v1.209h16.987v-1.21l-1.804-.303c-1.954-.15-2.706-1.51-3.006-4.384-.151-1.966-.302-5.142-.302-9.072l3.608.151c2.255 0 3.307 1.815 3.758 4.384h1.353V11.188h-1.353c-.452 2.57-1.503 4.384-3.758 4.384l-3.607.152c0-5.141.15-9.979.302-12.851h5.26c4.06 0 6.164 2.57 7.667 7.106l1.503-.454-.15-8.92z" fill="#2C5DA1"/><path d="M35.026 9.07c7.517 0 11.275 5.141 11.275 11.945 0 6.5-4.21 11.945-11.726 11.945-7.516 0-11.274-5.141-11.274-11.945 0-6.502 4.208-11.945 11.725-11.945zm-.451 1.513c-3.308 0-4.21 4.535-4.21 10.432 0 5.745 1.504 10.431 4.51 10.431 3.456 0 4.36-4.535 4.36-10.431 0-5.745-1.502-10.432-4.66-10.432zm56.07 10.583c0-6.199 3.908-12.096 11.575-12.096 6.312 0 9.32 4.688 9.32 10.886H97.56c-.152 5.594 2.554 9.677 7.966 9.677 2.406 0 3.608-.603 5.113-1.662l.599.755c-1.503 2.116-4.81 4.234-9.018 4.234-6.765 0-11.575-4.838-11.575-11.794zm6.914-2.872l7.065-.152c0-3.024-.451-7.56-3.006-7.56-2.554 0-3.91 4.233-4.059 7.712zm31.872-8.013c-1.804-.757-4.209-1.21-6.915-1.21-5.56 0-9.02 3.325-9.02 7.257 0 3.931 2.553 5.594 6.165 6.804 3.757 1.36 4.81 2.418 4.81 4.233 0 1.814-1.353 3.476-3.758 3.476-2.856 0-4.961-1.662-6.614-6.199l-1.053.304.151 6.652c1.804.755 5.11 1.361 7.967 1.361 5.863 0 9.622-3.025 9.622-7.71 0-3.176-1.655-4.99-5.563-6.503-4.21-1.662-5.712-2.72-5.712-4.687 0-1.965 1.355-3.326 3.159-3.326 2.704 0 4.508 1.663 5.863 5.746l1.051-.302-.153-5.896zm-63.589-.605c-2.555-1.511-7.065-.757-9.47 4.687l.15-5.292-10.071 1.966v.907l1.052.15c1.354.153 1.954.908 2.105 2.874.3 3.629.15 9.98 0 13.154-.151 1.813-.75 2.72-2.105 2.872l-1.052.152v1.21h13.98v-1.21l-1.804-.152c-1.503-.152-1.955-1.059-2.106-2.872-.3-2.873-.3-8.618-.149-12.247.751-1.059 4.058-1.965 7.065 0l2.405-6.2z" fill="#2C5DA1"/></svg>