<svg width="192" height="29" fill="none" xmlns="http://www.w3.org/2000/svg"><path d="M10.776 8.73v9.945c1.293-.76 1.94-1.855 2.402-3.285l.338.152c-.308 3.59-2.832 7.087-6.68 7.087C2.955 22.63 0 19.77 0 15.208 0 11.71 2.124 9.58 5.142 7.695c-.4-.122-.77-.152-1.201-.152-1.97 0-3.14 1.338-3.14 2.707H.369c-.03-.182-.03-.395-.03-.578 0-2.524 1.508-5.353 4.649-5.353 2.001 0 3.54 1.825 5.88 1.825 1.17 0 1.848-.426 2.31-1.43h.338c0 1.734-.523 3.437-2.74 4.015zm-5.234-.913c-1.416 1.43-2.771 2.98-2.771 6.052 0 1.673.523 3.377 1.817 4.471l.862-.456V11.01l-.893.457-.277-.426L8.405 8.76c-1.046-.244-1.909-.67-2.863-.943zm4.71 1.003c-.184.03-.4.03-.646.03-.4 0-.739-.03-1.108-.12v8.06l-3.51 1.885c.739.547 1.57.821 2.74.821.924 0 1.786-.213 2.525-.547V8.82zm12.1 2.525v9.338c0 2.615-2.34 4.38-4.956 4.896l-.154-.273c1.293-.64 2.155-1.734 2.155-3.103V12.47l-1.355-1.216-.708.7v7.36l.832.76v.122l-2.217 2.342-2.556-2.312v-.121l.985-1.035V7.056l2.925-3.072.062.03v7.24l2.402-2.494 2.401 2.16.739-.7.37.364-.924.76zm4.588 5.536v1.216l2.494 1.947 1.94-1.977.37.365-3.91 4.136-3.541-2.768-.77.76-.339-.364.862-.882V12.47l5.204-3.74 2.894 4.44-5.204 3.71zm.062-6.144l-.062.03v5.475l2.402-1.734-2.34-3.771zM49.54 22.508l-3.819-3.255-2.924 3.255-3.972-3.377V13.81h-.77c-.677 0-1.016.395-1.14.943h-.276a4.113 4.113 0 01-.123-1.035c0-.7.308-2.555 2.309-2.555V7.026c0-1.612-1.078-1.673-1.078-3.072 0-1.551 1.478-2.98 4.218-3.954l.247.213c-.924.426-1.663.973-1.663 2.16 0 1.794 1.755 1.338 1.755 4.166v1.095l3.233-3.345 3.387 3.284 3.202-3.284 3.079 2.98v10.068l-5.666 5.17zM45.536 8.941l-1.94-1.886-1.262 1.278v9.337l2.34 1.977.862-.942V8.942zm6.22-.365l-1.54-1.52-1.17 1.155v9.429l2.71 2.342.03-.03V8.577h-.03zm12.347 13.931l-2.586-2.342h-.062l-2.278 2.342-2.771-2.433-.647.639-.37-.365.801-.821v-7.148l5.234-3.71 2.864 2.22.77-.76.4.364-.986.913v7.36l1.263 1.156.8-.821.4.395-2.832 3.011zM61.517 12.35l-2.279-1.764-.061.06v7.939l1.693 1.46.647-.639V12.35zm11.176 1.307h2.586v5.81l-4.372 3.041c-.585-.638-1.416-1.125-2.432-1.125-.831 0-1.478.395-2.155 1.095l-.4-.122 3.787-5.383h-2.34v-5.05l4.587-3.193c.554.426.985.7 1.694.7.554 0 1.354-.122 1.97-.609l.277.183-3.202 4.653zm-.4 2.373H71l-3.049 4.319.031.06c.647-.395 1.17-.668 2.094-.668.831 0 1.693.395 2.217 1.034l.03-.03V16.03h-.03zm1.785-5.323c-.585.396-.923.639-1.908.639-.555 0-1.201-.243-1.725-.79l-.061.03v3.984h1.047l2.648-3.863zm11.023.639v9.338c0 2.615-2.34 4.38-4.957 4.896l-.154-.273c1.293-.64 2.155-1.734 2.155-3.103V12.47l-1.355-1.216-.708.7v7.36l.832.76v.122l-2.217 2.342-2.556-2.312v-.121l.986-1.035V7.056l2.925-3.072.061.03v7.24l2.402-2.494 2.401 2.16.74-.7.369.364-.924.76zm5.388 11.162l-2.278-2.068-.77.76-.37-.364.924-.913v-7.756l-.985-.912-.74.7-.368-.366 2.77-2.92 2.094 1.886.74-.76.4.395-.924.913v7.816l1.17 1.065.83-.852.37.396-2.863 2.98zm-.8-14.021L87.44 6.448l2.063-2.19 2.247 2.038-2.063 2.19zm12.685 14.02l-2.402-2.16V12.41l-1.293-1.186-.924.943v7.117l.862.791v.122l-2.247 2.342-2.556-2.312v-.091L94.8 19.1v-6.874l-1.14-1.004-.831.821-.4-.365L95.23 8.7l2.493 2.19v.547L100.34 8.7l2.402 2.129.801-.791.369.395-.954.943v7.634l1.077 1.004.924-.912.338.365-2.924 3.041zm11.853-11.162v9.216c0 1.43.801 1.368.801 2.433 0 1.216-1.786 2.372-4.557 4.41-.924-.973-1.539-1.399-2.402-1.399-.923 0-2.032.365-2.955.973l-.277-.213 3.787-4.38-2.494-1.946-.801.79-.369-.364.923-.943v-7.574l5.235-3.71 2.801 2.19.832-.791.369.365-.893.943zm-2.124 11.375c-.678-.426-.862-.912-.862-2.068v-.396l-4.403 5.05.031.03c.893-.517 1.539-.852 2.832-.852 1.109 0 1.909.456 2.617 1.095.524-.426.924-.882.924-1.551-.031-.517-.431-.882-1.139-1.308zm-.831-10.372l-2.279-1.764-.061.061v8.364l1.631 1.247.709-.82v-7.088zm8.651 10.16l-2.432-1.886-.739.73-.37-.366.863-.882v-9.428h-1.601l-.062-.061.954-1.43h.678V7.36l2.925-3.072.061.061v4.836h2.217l.062.061-.955 1.43h-1.293v8.242l1.324 1.004.924-.913.369.396-2.925 3.102zm12.039-10.92v7.543l-4.649 3.407-3.387-2.525-.77.76-.369-.364.892-.913v-7.36l4.865-3.468 3.141 2.433.8-.79.37.395-.893.882zm-2.956.821l-2.309-1.794-.031.03v8.121l2.34 1.734v-8.09zm13.886 10.068l-2.402-2.16V12.38l-1.293-1.186-.924.943v7.117l.863.79v.122l-2.248 2.342-2.556-2.311v-.092l.986-1.034v-6.843l-1.14-1.004-.831.821-.4-.365 2.802-2.98 2.494 2.19v.547L140.86 8.7l2.401 2.129.801-.791.369.395-.954.943v7.634l1.077 1.004.924-.912.339.365-2.925 3.01zm16.903.031c-.462-.578-1.047-1.065-1.725-1.247v5.657l-.061.03-1.509-1.399-3.202 2.92-.061-.03v-7.33c-.955.213-2.002.821-2.802 1.794l-.216-.121c.185-2.1 1.232-3.65 3.018-4.259v-5.292h-.585c-.801 0-1.355.548-1.448 1.156h-.338c-.093-.213-.185-.578-.185-1.247 0-1.338.924-2.342 2.402-2.342h.154v-2.95l-.986-.882-.769.76-.401-.365 3.048-3.102 2.587 2.342v2.676l.8-.852V5.293h.524v2.585l3.448-3.62 3.11 2.799v11.862l-4.803 3.589zm-2.248-13.535l-.801.821v15.33l.801.73V8.973zm3.602-.639l-1.632-1.46-1.447 1.521v9.885c1.294.152 2.248.608 3.049 1.43l.03-.03V8.333zm13.424 3.255v7.543l-4.649 3.406-3.387-2.524-.769.76-.37-.365.893-.912v-7.36l4.865-3.468 3.14 2.433.801-.79.369.395-.893.882zm-2.986.82l-2.309-1.794-.031.03v8.122l2.34 1.733v-8.09zm9.821 1.248h2.587v5.81l-4.372 3.04c-.585-.638-1.417-1.125-2.433-1.125-.831 0-1.478.396-2.155 1.095l-.4-.121 3.787-5.384h-2.34v-5.049l4.587-3.193c.555.425.986.7 1.694.7.554 0 1.355-.122 1.97-.61l.277.183-3.202 4.654zm-.4 2.372h-1.293l-3.048 4.32.031.06c.646-.395 1.17-.669 2.093-.669.832 0 1.694.395 2.217 1.034l.031-.03v-4.715h-.031zm1.755-5.322c-.585.395-.924.638-1.909.638-.554 0-1.201-.243-1.724-.79l-.062.03v3.984h1.047l2.648-3.862zm6.312 11.8l-2.432-1.885-.739.73-.37-.365.862-.882v-9.429h-1.601l-.061-.06.954-1.43h.677V7.36l2.925-3.072.062.06v4.837h2.217l.061.06-.954 1.43h-1.293v8.243l1.324 1.003.923-.912.37.395-2.925 3.103z" fill="#000"/></svg>