<svg width="41" height="19" fill="none" xmlns="http://www.w3.org/2000/svg"><path d="M12.075 15.724a.395.395 0 00.393-.39l.001-11.306C12.47 1.802 14.285 0 16.526 0c1.42 0 2.67.725 3.394 1.822l5.348 8.33.01-6.124C25.277 1.803 27.092 0 29.333 0c1.42 0 2.67.725 3.394 1.822l5.348 8.33V.002h2.78l-.005 17.97a.484.484 0 01-.335.461.493.493 0 01-.546-.169L30.406 3.309a1.295 1.295 0 00-1.072-.566 1.29 1.29 0 00-1.294 1.285l.003 13.944a.484.484 0 01-.335.461.492.492 0 01-.546-.169L17.598 3.309a1.295 1.295 0 00-1.072-.566 1.29 1.29 0 00-1.294 1.285l.006 14.055a.39.39 0 01-.394.39H7.501C3.358 18.472 0 15.112 0 11c0-4.113 3.358-7.472 7.5-7.472 0 0 4.13-.016 4.13 0v2.77L7.5 6.296c-2.616 0-4.738 2.107-4.738 4.705a4.742 4.742 0 004.739 4.73l4.574-.006z" fill="#CE242B"/></svg>