<svg width="151" height="32" fill="none" xmlns="http://www.w3.org/2000/svg"><g clip-path="url(#clip0)" fill="#F2A503"><path d="M11.999 31.748H9.155l-2.15-3.36h-.023v3.36H4.693v-8.685h3.399c1.734 0 3.052.823 3.052 2.674 0 1.189-.67 2.24-1.92 2.469L12 31.749zm-5.04-4.8h.208c.74 0 1.595-.137 1.595-1.097 0-.937-.832-1.074-1.595-1.074H6.96v2.171zm13.525 3.292l-.601 1.509h-2.428l3.376-8.686h2.496l3.306 8.686h-2.45l-.578-1.51h-3.121zm1.595-4.503l-.971 2.766h1.896l-.925-2.766zm11.19-2.697h3.236c2.45 0 4.462 1.897 4.462 4.343 0 2.446-2.034 4.343-4.462 4.343H33.27V23.04zm2.288 6.789h.509c1.364 0 2.543-.732 2.543-2.423 0-1.554-1.04-2.423-2.52-2.423h-.532v4.846zm14.519-6.789h-2.289v8.686h2.289V23.04zm16.9 4.183c0 2.811-2.034 4.8-4.855 4.8-2.82 0-4.878-1.966-4.878-4.8 0-2.629 2.335-4.48 4.878-4.48 2.52.023 4.855 1.874 4.855 4.48zm-7.375.023c0 1.508 1.133 2.606 2.497 2.606 1.364 0 2.474-1.098 2.474-2.606 0-1.189-1.11-2.286-2.474-2.286-1.364-.023-2.497 1.097-2.497 2.286zM24.252.069H19.79v20.548h4.462V.07zm9.294 5.302c5.433 0 8.046 4.229 8.046 7.84 0 3.612-2.613 7.863-8.046 7.863s-8.045-4.228-8.045-7.863c0-3.611 2.612-7.84 8.045-7.84zm0 11.566c1.942 0 3.584-1.577 3.584-3.726 0-2.148-1.642-3.725-3.584-3.725-1.942 0-3.583 1.577-3.583 3.725 0 2.172 1.641 3.726 3.583 3.726zM50.654 5.371c5.433 0 8.045 4.229 8.045 7.84 0 3.612-2.612 7.863-8.045 7.863s-8.046-4.228-8.046-7.863c0-3.611 2.613-7.84 8.046-7.84zm0 11.566c1.942 0 3.583-1.577 3.583-3.726 0-2.148-1.641-3.725-3.583-3.725-1.919 0-3.584 1.577-3.584 3.725 0 2.172 1.665 3.726 3.584 3.726zM59.81 5.851h4.161V7.43h.046c.347-.618 1.318-2.08 4.115-2.08 1.318 0 3.145.457 4.324 2.628.901-1.44 2.45-2.628 4.74-2.628 1.04 0 2.727.251 3.93 1.485 1.41 1.463 1.618 2.446 1.618 5.738v8.068h-4.462v-7.863c0-1.188 0-3.268-2.289-3.268-2.474 0-2.474 2.24-2.474 3.063v8.068h-4.462v-8.069c0-.8 0-3.085-2.242-3.085-2.52 0-2.52 2.377-2.52 3.268v7.863h-4.462V5.851M84.27.069h4.462v6.948c1.595-1.668 3.722-1.668 4.346-1.668 3.121 0 7.352 2.194 7.352 7.794 0 5.326-3.746 7.977-7.537 7.977-2.104 0-3.7-1.006-4.277-2.08h-.07v1.577H84.27V.07zm7.93 16.937c2.288 0 3.745-1.829 3.745-3.795 0-1.897-1.457-3.748-3.676-3.748-2.358 0-3.7 1.874-3.7 3.726 0 2.057 1.388 3.817 3.63 3.817zm24.413-1.029c-.717 1.669-1.78 2.926-3.029 3.794a7.428 7.428 0 01-4.254 1.326c-4.277 0-7.93-3.428-7.93-7.817 0-4.114 3.283-7.931 7.838-7.931 4.554 0 7.883 3.565 7.883 8.068 0 .595-.046.823-.092 1.166h-11.19c.278 1.76 1.757 2.789 3.491 2.789 1.364 0 2.104-.618 2.728-1.395h4.555zm-3.93-4.388c-.185-.869-1.064-2.538-3.399-2.538-2.312 0-3.19 1.646-3.398 2.538h6.797zm5.802-5.737h4.208v1.577h.069c.532-.389 2.289-1.646 4.324-1.395V9.99c-2.058.068-4.116.297-4.116 2.514v8.114h-4.485V5.852zm24.9 12.982c0 2.195-.162 4.96-.879 6.217-1.156 1.852-3.884 3.52-7.56 3.2-5.178-.457-6.635-2.857-6.866-5.188h4.878c.647 1.463 2.035 1.463 2.312 1.463 2.381 0 3.63-.343 3.63-5.075v-.434h-.046c-.463.846-1.757 2.103-4.093 2.103-4.069 0-7.536-3.04-7.536-7.771 0-5.052 3.676-7.955 7.536-7.955 1.665 0 3.307.595 4.116 1.875h.069V5.874h4.462v12.96h-.023zm-8.115-1.851c2.15 0 3.653-1.554 3.653-3.68 0-2.377-1.642-3.794-3.63-3.794-1.919 0-3.606 1.508-3.606 3.68 0 2.331 1.71 3.794 3.583 3.794zM4.67.069h5.387c3.537 0 4.762.32 6.288 1.988.925.937 1.248 2.194 1.248 3.383 0 1.577-.647 2.903-2.335 3.84 3.353 1.166 3.237 4.206 3.237 5.074 0 1.646-.647 3.452-1.919 4.48-1.919 1.6-2.797 1.783-6.311 1.783H4.67V.07zm4.462 7.794h1.48c.74 0 1.965 0 1.965-1.646 0-1.554-1.133-1.554-1.966-1.554h-1.48v3.2zm0 8.137h2.104c.67 0 2.358 0 2.358-1.989 0-1.782-1.503-1.782-2.358-1.782H9.132V16z"/></g><defs><clipPath id="clip0"><path fill="#fff" d="M0 0h150.737v32H0z"/></clipPath></defs></svg>