<svg width="153" height="22" fill="none" xmlns="http://www.w3.org/2000/svg"><path fill-rule="evenodd" clip-rule="evenodd" d="M142.981 16.026v.922h1.18v4.494h-7.567v-4.467h.999V4.188h-.938V.028h6.326v12.535l3.149-2.261h-1.423v-4.44h8.263v4.44h-1.726l-1.755 1.396 2.27 5.277H153v4.467h-8.324v-4.494h1.302l-.938-2.346-2.059 1.424zm-11.454-.726h4.964c-1.272 4.41-2.906 6.7-8.263 6.7-2.511 0-4.51-.838-6.023-2.233-1.422-1.313-2.27-3.602-2.27-6.114 0-2.513 1.091-4.664 2.27-5.864 1.302-1.34 3.512-2.205 6.023-2.205 2.785 0 5.236.698 6.326 1.926 1.119 1.312 1.997 3.63 1.997 6.143v.837h-10.079c0 1.116.455 2.233.515 2.484.152.643 1.241 1.117 2.27 1.117.484 0 1.059-.224 1.514-.558.302-.223 1.149-1.312.756-2.233zm-4.934-3.323h3.784v-.279a3.11 3.11 0 00-.514-1.675c-.121-.223-.758-.558-1.272-.558-.727 0-1.272.25-1.483.558 0 .028-.515.837-.515 1.675v.279zm-7.037 3.323c-1.332 4.41-2.966 6.7-8.355 6.7-2.511 0-4.539-.838-6.052-2.233-1.422-1.313-2.27-3.602-2.27-6.114 0-2.513 1.059-4.607 2.27-5.864 1.361-1.368 3.541-2.205 6.052-2.205 2.785 0 5.146.641 6.296 1.926 1.21 1.34 2.028 3.63 2.028 6.143v.837h-10.079c0 1.116.424 2.177.514 2.484.213.67 1.241 1.117 2.24 1.117.515 0 1.15-.307 1.514-.558.242-.168 1.149-1.424.817-2.262l5.025.029zm-9.989-3.323h3.753v-.279c0-.838-.333-1.48-.484-1.675-.212-.25-.756-.558-1.272-.558-.756 0-1.241.195-1.513.558-.031.056-.484.837-.484 1.675v.279zm-27.24 9.465l-4.54-11.14h-1.03v-4.44h9.05v4.44h-.97l1.242 4.746 1.575-4.746h-1.18v-4.44h9.958v4.44l-1-.028 1.483 4.774 1.514-4.746h-1.331v-4.44h6.386v4.44h-1.272l-4.267 11.14H92.89l-2.754-7.79-2.785 7.79h-5.024zm-20.279-11.14h-.696l-4.298 11.14h-5.025l-2.784-7.79-2.755 7.79h-5.054l-4.54-11.14h-1v-4.44h9.081v4.44H43.95l1.271 4.746 1.574-4.746h-1.21v-4.44h10.2v4.44h-1.18l1.452 4.746 1.513-4.746h-1.18v-4.44h6.205v2.43c.273-.53.606-1.005.938-1.34.939-.894 2.27-1.368 3.784-1.368.998 0 1.876.11 2.512.279.605.167 1.513.53 2.027 1.088V5.863h4.268v4.997h-4.268c-.272-.558-.877-1.228-1.271-1.395-.364-.168-.999-.558-1.755-.558-.515 0-.908.112-1.03.278-.12.14-.483.56-.483.838 0 .279.363.419.484.559.12.167.877.223 1.786.558l2.27.837c1.362.503 2.876.95 3.51 1.675.606.726 1.273 1.954 1.273 3.043 0 1.675-.515 3.071-1.514 3.909-1 .838-1.998 1.173-3.754 1.173-.756 0-1.815-.027-2.542-.335-.544-.223-1.513-.558-2.27-1.116v1.116h-4.541v-5.025h4.54c.242.558.575 1.283 1.241 1.675.363.195 1.029.558 1.786.558.484 0 .878-.224.999-.28.242-.11.514-.558.514-.836 0-.559-.908-.866-2.027-1.117-.152-.028-.454-.252-.515-.252l-2.512-.558c-1.029-.223-2.391-1.229-3.027-1.954-.605-.726-.998-1.675-.998-3.07-.001-.17-.001-.114.03-.281zm-25.637 4.97C35.049 19.682 33.233 22 27.906 22c-2.512 0-4.6-.866-6.053-2.233-1.453-1.34-2.24-3.602-2.24-6.114 0-2.513.847-4.469 2.24-5.864 1.513-1.564 3.541-2.205 6.053-2.205 2.785 0 4.964.474 6.295 1.926 1.393 1.509 2.028 3.63 2.028 6.143v.837H26.151c0 1.116.272 1.982.514 2.484.424.81 1.242 1.117 2.27 1.117.485 0 1.12-.307 1.483-.558.242-.168 1-1.62.757-2.262h5.236zm-10.14-3.295h3.784v-.279c0-.838-.181-1.284-.514-1.675-.364-.42-.757-.558-1.272-.558-.756 0-1.06.028-1.513.558-.212.223-.484.837-.484 1.675v.279zM5.298 8.069v8.906h1.755v4.467H0v-4.467h1.27V4.188H0V0h8.324l6.537 12.535V4.188h-1.756V0h7.053v4.188h-1.27v17.254h-6.781L5.297 8.069z" fill="#CC2229"/></svg>