<svg width="48" height="22" fill="none" xmlns="http://www.w3.org/2000/svg"><path d="M15.197.01c0-.01-4.13 0-4.13 0C4.955.01 0 4.93 0 10.999c0 6.069 4.955 10.989 11.067 10.989l7.764-.007c1.95 0 3.532-1.558 3.532-3.494l.004-6.703 5.366 8.405a4.06 4.06 0 003.387 1.81c2.24 0 4.056-1.803 4.056-4.028l-.001-6.187 5.366 8.405a4.06 4.06 0 003.387 1.81c2.24 0 4.056-1.804 4.056-4.028L47.983 0h-2.761v17.971c0 .71-.58 1.285-1.294 1.285-.447 0-.84-.225-1.073-.567L33.304 3.751a.49.49 0 00-.893.275l.003 13.945a1.297 1.297 0 01-2.367.719L20.496 3.75a.489.489 0 00-.549-.189.49.49 0 00-.344.464l-.003 14.46a.766.766 0 01-.769.765l-7.764-.006c-4.586 0-8.305-3.692-8.305-8.246s3.719-8.246 8.305-8.246l4.13-.003V.01z" fill="#CE242B"/></svg>