<svg width="71" height="33" fill="none" xmlns="http://www.w3.org/2000/svg"><g clip-path="url(#clip0)" fill="#CE242B"><path d="M22.49.017c0-.015-6.108 0-6.108 0C7.342.017.012 7.397.012 16.5c0 9.103 7.33 16.483 16.37 16.483l11.484-.01a5.226 5.226 0 005.224-5.241l.006-10.054 7.938 12.607A5.984 5.984 0 0046.044 33c3.313 0 6-2.705 6-6.042l-.003-9.28 7.938 12.606A5.984 5.984 0 0064.99 33c3.313 0 6-2.705 6-6.042L70.986.002h-4.085v26.957a1.92 1.92 0 01-1.913 1.927 1.906 1.906 0 01-1.587-.85L49.273 5.628a.725.725 0 00-.811-.283.724.724 0 00-.51.696l.005 20.918a1.92 1.92 0 01-1.914 1.927c-.66 0-1.243-.337-1.587-.85L30.328 5.628a.725.725 0 00-.811-.283.724.724 0 00-.51.696l-.003 21.691c0 .633-.51 1.146-1.138 1.146l-11.484-.009c-6.784 0-12.284-5.538-12.284-12.369 0-6.831 5.5-12.37 12.284-12.37l6.108-.004V.016z"/><path d="M23.148 23.586A.58.58 0 0023.73 23V6.04c0-3.336 2.686-6.041 6-6.041 2.1 0 3.95 1.087 5.021 2.733l7.91 12.494.014-9.186c0-3.336 2.687-6.041 6-6.041 2.1 0 3.95 1.087 5.021 2.733l7.91 12.494V.002h4.113l-.008 26.957a.733.733 0 01-.495.691.72.72 0 01-.808-.254L50.263 4.964a1.908 1.908 0 00-1.587-.85 1.92 1.92 0 00-1.913 1.927l.004 20.918a.733.733 0 01-.495.691.72.72 0 01-.808-.254L31.318 4.964a1.909 1.909 0 00-1.587-.85 1.92 1.92 0 00-1.914 1.927l.009 21.083a.588.588 0 01-.582.586l-10.862-.002c-6.128 0-11.095-5.038-11.095-11.208S10.254 5.292 16.382 5.292c0 0 6.107-.024 6.107 0v4.156l-6.107-.005c-3.87 0-7.009 3.16-7.009 7.057 0 3.897 3.138 7.094 7.009 7.094l6.766-.008z"/></g><defs><clipPath id="clip0"><path fill="#fff" d="M0 0h71v33H0z"/></clipPath></defs></svg>