<svg width="216" height="32" fill="none" xmlns="http://www.w3.org/2000/svg"><path d="M12.113 9.812v11.18c1.453-.855 2.18-2.086 2.7-3.693l.38.171c-.346 4.034-3.184 7.966-7.51 7.966-4.36 0-7.683-3.214-7.683-8.342 0-3.932 2.388-6.325 5.78-8.444-.45-.137-.866-.171-1.35-.171C2.215 8.479.9 9.983.9 11.522H.415c-.034-.206-.034-.445-.034-.65 0-2.838 1.695-6.017 5.225-6.017 2.25 0 3.98 2.051 6.61 2.051 1.316 0 2.077-.479 2.596-1.607h.38c0 1.949-.588 3.863-3.08 4.513zM6.229 8.786c-1.592 1.607-3.114 3.35-3.114 6.804 0 1.88.588 3.795 2.042 5.026l.969-.513v-7.727l-1.004.513-.312-.479 4.638-2.564c-1.177-.273-2.146-.752-3.219-1.06zm5.295 1.129c-.207.034-.45.034-.726.034a4.95 4.95 0 01-1.246-.137v9.06l-3.946 2.12c.831.615 1.765.923 3.08.923a6.9 6.9 0 002.838-.616V9.915zm13.601 2.837v10.496c0 2.94-2.63 4.923-5.572 5.504l-.173-.307c1.454-.718 2.423-1.95 2.423-3.488v-10.94L20.28 12.65l-.796.786v8.273l.934.855v.137l-2.491 2.632-2.873-2.598v-.137l1.108-1.162V7.932l3.288-3.453.069.034v8.137l2.7-2.804 2.698 2.428.831-.787.415.41-1.038.855zm5.157 6.222v1.368l2.803 2.188 2.18-2.222.416.41-4.396 4.65-3.98-3.111-.865.854-.38-.41.969-.992v-7.692l5.848-4.205 3.253 4.992-5.848 4.17zm.069-6.905l-.07.034v6.153l2.7-1.948-2.63-4.24zm25.333 13.23l-4.291-3.658-3.288 3.658-4.464-3.795v-5.983h-.866c-.761 0-1.142.445-1.28 1.06h-.312a4.62 4.62 0 01-.138-1.162c0-.787.346-2.872 2.596-2.872v-4.65c0-1.812-1.212-1.88-1.212-3.453 0-1.743 1.661-3.35 4.741-4.444l.277.24c-1.038.478-1.869 1.093-1.869 2.427 0 2.017 1.973 1.504 1.973 4.683v1.231l3.634-3.76 3.807 3.692L58.59 4.82l3.46 3.35v11.316L55.685 25.3zm-4.499-15.248l-2.18-2.12-1.42 1.436v10.496l2.63 2.222.97-1.06V10.052zm6.99-.41l-1.73-1.71-1.315 1.3v10.598l3.046 2.633.034-.035V9.641h-.034zM72.054 25.3l-2.907-2.633h-.07l-2.56 2.632-3.115-2.735-.727.718-.415-.41.9-.923v-8.034l5.883-4.171 3.218 2.495.866-.854.45.41-1.108 1.026v8.273l1.419 1.3.9-.924.45.445-3.184 3.384zm-2.907-11.42l-2.561-1.982-.07.068v8.923l1.904 1.641.727-.718V13.88zm12.562 1.47h2.907v6.53l-4.914 3.42c-.657-.719-1.592-1.266-2.734-1.266-.934 0-1.661.445-2.422 1.231l-.45-.137 4.256-6.051h-2.63v-5.675l5.157-3.59c.623.479 1.107.786 1.903.786.623 0 1.523-.136 2.215-.683l.311.205-3.599 5.23zm-.45 2.667h-1.453l-3.426 4.855.034.068c.727-.444 1.315-.752 2.354-.752.934 0 1.903.445 2.491 1.163l.035-.035v-5.299h-.035zm2.008-5.983c-.658.445-1.039.718-2.146.718-.623 0-1.35-.273-1.938-.889l-.07.035v4.478h1.177l2.977-4.342zm12.39.718v10.496c0 2.94-2.631 4.923-5.573 5.504l-.173-.307c1.454-.718 2.423-1.95 2.423-3.488v-10.94L90.81 12.65l-.796.786v8.273l.934.855v.137l-2.491 2.632-2.873-2.598v-.137l1.108-1.162V7.932l3.288-3.453.069.034v8.137l2.7-2.804 2.698 2.428.831-.787.415.41-1.038.855zm6.055 12.547l-2.56-2.325-.866.855-.415-.41 1.038-1.026v-8.718l-1.107-1.025-.83.786-.416-.41 3.115-3.282 2.353 2.12.831-.855.449.444-1.038 1.026v8.786l1.315 1.197.935-.958.415.445-3.219 3.35zm-.899-15.76l-2.527-2.291 2.319-2.462 2.526 2.291-2.318 2.462zM115.071 25.3l-2.7-2.428v-8.923l-1.453-1.334-1.038 1.06v8l.969.89v.136l-2.527 2.632-2.872-2.598v-.102l1.107-1.163v-7.726l-1.28-1.129-.935.924-.449-.41 3.149-3.351 2.803 2.461v.616l2.942-3.077 2.699 2.393.9-.889.415.444-1.073 1.06v8.582l1.212 1.128 1.038-1.026.381.41-3.288 3.42zm13.324-12.548v10.36c0 1.606.9 1.538.9 2.734 0 1.368-2.008 2.667-5.122 4.957-1.039-1.094-1.731-1.572-2.7-1.572-1.038 0-2.284.41-3.322 1.094l-.312-.24 4.257-4.923-2.803-2.188-.9.89-.415-.411 1.038-1.06V13.88l5.883-4.17 3.15 2.461.934-.889.415.41-1.003 1.06zm-2.388 12.786c-.762-.478-.969-1.025-.969-2.324v-.445l-4.949 5.675.035.035c1.003-.582 1.73-.958 3.183-.958 1.246 0 2.146.513 2.942 1.231.588-.479 1.038-.991 1.038-1.743-.034-.582-.484-.992-1.28-1.47zm-.935-11.658l-2.561-1.982-.069.068v9.402l1.834 1.401.796-.923V13.88zm9.725 11.42l-2.734-2.12-.83.82-.416-.41.969-.992V12h-1.799l-.069-.068 1.072-1.607h.762V8.274l3.287-3.453.07.068v5.436h2.491l.07.068L136.597 12h-1.454v9.265l1.488 1.128 1.039-1.026.415.445-3.288 3.487zm13.532-12.274v8.478l-5.226 3.83-3.807-2.838-.865.854-.415-.41 1.003-1.026v-8.273l5.468-3.897 3.53 2.735.9-.89.415.445-1.003.992zm-3.323.923l-2.595-2.017-.035.034v9.128l2.63 1.949v-9.094zm15.608 11.316l-2.699-2.427v-8.924l-1.453-1.333-1.039 1.06v8l.969.889v.137l-2.526 2.632-2.872-2.598v-.103l1.107-1.162v-7.692l-1.28-1.129-.935.924-.45-.41 3.15-3.351 2.803 2.461v.616l2.941-3.077 2.7 2.393.9-.889.415.444-1.073 1.06v8.582l1.211 1.128 1.039-1.026.38.41-3.288 3.385zm19.001.035c-.52-.65-1.177-1.197-1.938-1.402v6.359l-.07.034-1.695-1.573-3.6 3.282-.069-.034v-8.24c-1.073.24-2.249.924-3.149 2.018l-.242-.137c.207-2.359 1.384-4.102 3.391-4.786v-5.949h-.657c-.9 0-1.523.615-1.627 1.3h-.381c-.104-.24-.207-.65-.207-1.402 0-1.505 1.038-2.633 2.699-2.633h.173V8.821l-1.107-.992-.866.855-.449-.41 3.426-3.487 2.907 2.632v3.009l.9-.958V5.95h.588v2.906l3.876-4.068 3.495 3.145v13.333l-5.398 4.034zm-2.527-15.214l-.9.923v17.23l.9.821V10.086zm4.049-.718l-1.834-1.641-1.626 1.71v11.11c1.453.171 2.526.684 3.426 1.607l.034-.034V9.368zm15.089 3.658v8.479L191 25.334l-3.806-2.838-.866.855-.415-.41 1.004-1.026V13.64l5.468-3.897 3.53 2.735.9-.889.415.444-1.004.992zm-3.357.923l-2.595-2.017-.035.034v9.128l2.63 1.949v-9.094zm11.04 1.402h2.907v6.53l-4.914 3.418c-.658-.718-1.592-1.265-2.734-1.265-.935 0-1.661.445-2.423 1.231l-.45-.137 4.257-6.05h-2.63v-5.676l5.156-3.59c.623.479 1.108.787 1.904.787.623 0 1.523-.137 2.215-.684l.311.205-3.599 5.23zm-.45 2.666h-1.453l-3.426 4.855.034.068c.727-.444 1.315-.752 2.353-.752.935 0 1.904.445 2.492 1.163l.035-.034v-5.3h-.035zm1.973-5.982c-.658.444-1.038.717-2.146.717-.623 0-1.35-.273-1.938-.889l-.069.035v4.478h1.177l2.976-4.342zm7.094 13.264l-2.734-2.12-.83.821-.415-.41.969-.991V12h-1.8l-.069-.068 1.073-1.607h.761V8.274l3.288-3.453.069.068v5.436h2.492l.069.068L214.326 12h-1.454v9.265l1.489 1.128 1.038-1.025.415.444-3.288 3.487z" fill="#000"/></svg>