<svg width="98" height="24" fill="none" xmlns="http://www.w3.org/2000/svg"><g clip-path="url(#clip0)" fill="#0B090A"><path d="M11.245.491H.852C.393.491 0 .89 0 1.38v1.848c0 .491.393.912.852.912h2.533a.52.52 0 01.502.562V22.62c0 .514.393.912.851.912h2.555c.48 0 .852-.421.852-.912V4.678c0-.304.218-.538.502-.561h2.555c.48 0 .851-.398.851-.912V1.403c.044-.514-.327-.912-.808-.912zm11.858 8.257c-.459-1.497-1.704-2.362-3.145-2.362a3.874 3.874 0 00-2.751 1.17.472.472 0 01-.175.116c-.022-.046-.044-.117-.022-.187l-.022-6.082c0-.514-.392-.912-.851-.912h-2.162c-.458 0-.851.421-.851.912v21.193c0 .492.37.913.851.913h2.206c.458 0 .851-.421.851-.913v-11.18c-.022-.212 0-.422.044-.633.109-.584.611-1.005 1.179-.982.437-.023.83.21 1.048.632.11.28.11.514.11 1.216v10.947c0 .515.37.913.85.913h2.206c.48 0 .852-.398.852-.913v-12.14a5.027 5.027 0 00-.218-1.708zm5.72 7.392h4.717c.48 0 .852-.42.852-.912v-3.977c0-1.263-.153-1.824-.437-2.432-.48-1.053-1.922-2.433-4.455-2.456-1.834 0-3.886.725-4.694 2.736a6.727 6.727 0 00-.393 2.293v6.947c.021.749.109 1.474.262 2.199.415 1.52 1.572 3.275 4.738 3.275h.044c2.052 0 4.105-.655 4.716-3.088a5.067 5.067 0 00.153-1.52v-.655c-.022-.492-.393-.866-.852-.842H31.4c-.458 0-.851.42-.851.912a4.5 4.5 0 01-.11 1.076c-.109.468-.524.795-.982.772-.48.047-.94-.304-1.07-.796-.088-.257-.088-.444-.088-1.029v-1.965c.022-.304.24-.538.524-.538zm-.524-4.912c0-.304.044-.608.153-.889.153-.304.393-.561.983-.561.546 0 .764.234.895.491.11.257.153.561.153.842v1.404c0 .304-.218.538-.502.538h-1.158c-.283 0-.502-.234-.524-.538v-1.287zm18.627 1.754a7.944 7.944 0 00-1.79-1.8l-3.779-2.784a3.19 3.19 0 01-.764-.702c-.35-.515-.393-1.497-.393-1.895v-.187c.022-1.825.72-2.035 1.572-2.058 1.42.023 1.529.818 1.572 1.45v1.59c0 .515.372.913.852.913h2.533c.48 0 .852-.421.852-.913V5.1a4.028 4.028 0 00-.35-1.964C46.074-.023 42.602 0 41.97 0c-.415 0-4.127-.023-5.394 2.854-.502 1.123-.524 2.55-.524 3.064v.14c0 1.942.306 2.854.764 3.696.546.96 1.005 1.334 1.835 1.918l3.69 2.667c.328.234.611.515.852.842.349.562.393 1.31.393 1.731v.258c0 1.543-.022 2.502-.502 2.877-.24.234-.568.374-1.245.374a1.874 1.874 0 01-1.114-.304c-.568-.374-.611-1.053-.611-1.801V16.07c0-.514-.371-.912-.852-.912H36.75c-.48 0-.852.398-.852.912v2.573c-.043.819.11 1.661.437 2.41a4.196 4.196 0 001.157 1.614c1.31 1.1 2.948 1.333 4.455 1.333 3.647.023 5.153-1.708 5.655-3.602.219-.89.219-1.661.219-3.392v-.749c0-1.193-.087-2.152-.895-3.275zm8.909 7.72a.436.436 0 00-.35-.304h-.043c-.088 0-.175.023-.284.023-.633 0-1.201-.117-1.354-.772-.087-.234-.087-.327-.087-.842v-8.655a.53.53 0 01.524-.538h.764c.458 0 .851-.398.851-.912V7.649c0-.514-.37-.912-.851-.912h-.764a.53.53 0 01-.524-.538V2.97c0-.515-.372-.913-.852-.913h-2.184c-.48 0-.851.398-.851.913v3.204c0 .305-.24.538-.502.538h-.568c-.48 0-.852.398-.852.913v1.076c0 .514.371.912.852.912h.59c.283 0 .502.257.502.538v9.895c0 .655.021 1.357.305 1.965.48 1.146 1.66 1.637 3.712 1.637h.044c.393 0 .786-.023 1.18-.07.48-.094.829-.538.829-1.053V21.24c.022-.164-.022-.351-.087-.538zm8.756-13.404c0-.468-.35-.842-.786-.865h-.087c-.961.093-1.835.631-2.402 1.473-.088.117-.153.234-.219.351v-.631c0-.492-.371-.89-.83-.89h-2.205c-.48 0-.852.398-.852.913v14.97c0 .515.372.913.852.913h2.184c.48 0 .851-.42.851-.912v-9.17c0-1.052.044-2.152.895-2.783.372-.234.809-.375 1.245-.351.197 0 .371.023.568.047l.044-.188-.044.188c.044 0 .11.023.153.023a.59.59 0 00.436-.187.853.853 0 00.175-.515l.022-2.386zm4.957 8.842h4.716c.48 0 .852-.42.852-.912v-3.977c0-1.263-.153-1.824-.437-2.432-.48-1.053-1.921-2.456-4.476-2.456-1.834 0-3.887.725-4.695 2.736a6.743 6.743 0 00-.415 2.293v6.947c.022.749.11 1.474.284 2.199.415 1.52 1.572 3.298 4.782 3.275h.044c2.052 0 4.061-.678 4.673-3.088a5.067 5.067 0 00.153-1.52v-.655c-.022-.492-.393-.866-.852-.842h-2.074c-.459 0-.852.42-.852.912a4.5 4.5 0 01-.11 1.076c-.108.468-.523.795-.982.772-.48.023-.917-.304-1.07-.796-.087-.257-.087-.444-.087-1.029v-1.965c.044-.304.262-.538.546-.538zm.633-6.362c.546 0 .764.234.895.491.11.257.153.561.153.842v1.404a.53.53 0 01-.524.538h-1.179c-.284 0-.502-.234-.502-.538v-1.287a2.063 2.063 0 01.153-.889c.152-.304.414-.561 1.004-.561zm10.372 6.362h4.716c.48 0 .852-.397.852-.912v-3.977c0-1.263-.153-1.824-.437-2.432-.48-1.053-1.921-2.433-4.476-2.456-1.834 0-3.887.725-4.695 2.736a6.724 6.724 0 00-.393 2.293v6.947c.022.749.11 1.474.284 2.199.415 1.52 1.572 3.298 4.782 3.275h.022c2.052 0 4.061-.678 4.673-3.088a5.07 5.07 0 00.153-1.52v-.655c-.022-.492-.393-.866-.852-.842h-2.074c-.459 0-.852.42-.852.912 0 .35-.022.725-.11 1.076-.108.468-.523.795-.982.772-.48.023-.917-.304-1.048-.796-.087-.257-.087-.444-.087-1.029v-1.965c.022-.304.262-.538.524-.538zm.655-6.362c.546 0 .764.234.895.491.11.257.175.561.153.842v1.404a.53.53 0 01-.524.538h-1.18c-.283 0-.501-.234-.523-.538v-1.287c0-.304.043-.608.153-.889.174-.304.415-.561 1.026-.561zm13.189 10.924a.436.436 0 00-.35-.304h-.043c-.088.023-.197.023-.284.023-.633 0-1.201-.117-1.354-.772-.087-.234-.087-.327-.087-.842v-8.655a.53.53 0 01.524-.538h.764c.48 0 .852-.398.852-.912V7.649c0-.514-.393-.912-.852-.912h-.764c-.284 0-.502-.234-.524-.538V2.97c0-.515-.371-.913-.852-.913h-2.184c-.48 0-.851.398-.851.913v3.204c0 .305-.24.538-.502.538h-.546c-.48 0-.852.421-.852.913v1.076c0 .514.393.912.852.912h.59c.283 0 .502.257.502.561v9.895c0 .655.021 1.357.305 1.965.48 1.146 1.66 1.637 3.712 1.637h.022c.393 0 .786-.023 1.18-.07.48-.093.807-.538.83-1.029v-1.287a1.315 1.315 0 00-.088-.584zm2.599 2.971c-.568 0-1.005-.492-1.005-1.076 0-.585.459-1.077 1.005-1.077.546 0 1.004.468 1.004 1.053.022.585-.415 1.1-.983 1.1 0 .023-.021.023-.021 0zm0-2.035c-.503 0-.917.42-.917.958s.393.983.895.983.895-.421.917-.96c.022-.537-.371-.958-.852-.982h-.043zm0 .28a.66.66 0 01.305.07c.11.094.175.21.175.375a.42.42 0 01-.218.374l.218.561h-.306l-.174-.514h-.175v.514h-.262v-1.356h.437v-.024zm-.153.608h.174c.132 0 .197-.046.197-.187 0-.14-.066-.163-.197-.163h-.174v.35z"/></g><defs><clipPath id="clip0"><path fill="#fff" d="M0 0h98v24H0z"/></clipPath></defs></svg>