<svg width="138" height="20" fill="none" xmlns="http://www.w3.org/2000/svg"><path fill-rule="evenodd" clip-rule="evenodd" d="M128.59 14.57v.837h1.061v4.086h-6.806v-4.06h.899V3.806h-.843V.025h5.689v11.396l2.831-2.056h-1.28V5.33h7.432v4.035h-1.552l-1.578 1.27 2.041 4.797h1.116v4.061h-7.486v-4.086h1.171l-.843-2.132-1.852 1.294zm-10.302-.661h4.465c-1.144 4.01-2.614 6.091-7.432 6.091-2.258 0-4.056-.762-5.416-2.03-1.279-1.194-2.041-3.274-2.041-5.559 0-2.284.98-4.24 2.041-5.33 1.17-1.219 3.158-2.005 5.416-2.005 2.505 0 4.71.635 5.689 1.752 1.007 1.192 1.796 3.3 1.796 5.583v.761h-9.064c0 1.015.409 2.03.464 2.26.136.583 1.115 1.014 2.041 1.014.435 0 .952-.203 1.361-.507.272-.203 1.034-1.193.68-2.03zm-4.437-3.021h3.403v-.253c0-.762-.353-1.371-.462-1.523-.109-.203-.681-.508-1.144-.508-.654 0-1.144.229-1.334.508 0 .025-.463.76-.463 1.523v.253zm-6.329 3.02c-1.198 4.01-2.667 6.092-7.513 6.092-2.26 0-4.083-.762-5.444-2.03-1.279-1.194-2.041-3.274-2.041-5.559 0-2.284.953-4.188 2.041-5.33 1.225-1.244 3.185-2.005 5.444-2.005 2.504 0 4.627.584 5.661 1.752 1.089 1.218 1.824 3.3 1.824 5.583v.761H98.43c0 1.015.381 1.98.462 2.26.191.609 1.117 1.014 2.015 1.014.463 0 1.034-.279 1.361-.507.218-.152 1.034-1.295.735-2.056l4.519.026zm-8.983-3.02h3.375v-.253c0-.762-.299-1.345-.435-1.523-.191-.228-.681-.508-1.144-.508-.68 0-1.116.178-1.361.508-.028.05-.436.76-.436 1.523v.253h.001zm-24.498 8.604L69.957 9.365h-.926V5.33h8.14v4.035h-.872l1.116 4.315 1.416-4.315H77.77V5.33h8.956v4.035l-.9-.025 1.334 4.34 1.362-4.315h-1.198V5.33h5.744v4.035h-1.144l-3.838 10.127H83.54l-2.477-7.08-2.504 7.08H74.04zM55.803 9.365h-.626l-3.866 10.127h-4.519l-2.504-7.08-2.477 7.08h-4.545L33.182 9.365h-.899V5.33h8.167v4.035h-.925l1.144 4.315 1.415-4.315h-1.089V5.33h9.174v4.035h-1.061l1.306 4.315 1.36-4.315h-1.06V5.33h5.58v2.208c.245-.482.544-.913.844-1.219.843-.812 2.041-1.243 3.402-1.243.898 0 1.688.101 2.26.254.544.152 1.36.482 1.823.99v-.99h3.838v4.543h-3.838c-.245-.508-.79-1.116-1.144-1.269-.326-.152-.898-.507-1.578-.507-.463 0-.817.102-.926.253-.108.127-.435.509-.435.762s.327.38.435.508c.11.152.79.203 1.607.507l2.042.761c1.224.458 2.586.864 3.157 1.523.544.66 1.144 1.776 1.144 2.766 0 1.523-.463 2.792-1.362 3.554-.898.761-1.797 1.066-3.376 1.066-.68 0-1.632-.024-2.285-.304-.49-.203-1.362-.507-2.042-1.015v1.015h-4.084v-4.568h4.082c.219.507.518 1.166 1.117 1.522.326.178.925.508 1.606.508.435 0 .79-.204.898-.254.218-.101.463-.508.463-.761 0-.508-.817-.787-1.824-1.015-.136-.026-.408-.23-.462-.23l-2.26-.507c-.925-.203-2.15-1.117-2.722-1.776-.544-.66-.898-1.523-.898-2.792 0-.153 0-.102.027-.255zm-23.057 4.518C31.521 17.893 29.888 20 25.097 20c-2.26 0-4.137-.787-5.444-2.03-1.306-1.219-2.015-3.274-2.015-5.559 0-2.284.762-4.061 2.015-5.33 1.361-1.421 3.185-2.005 5.444-2.005 2.504 0 4.464.431 5.662 1.752 1.252 1.37 1.824 3.3 1.824 5.583v.761h-9.064c0 1.015.245 1.802.462 2.26.381.735 1.117 1.014 2.042 1.014.435 0 1.008-.279 1.333-.507.218-.152.9-1.472.68-2.056h4.71zm-9.119-2.995h3.403v-.253c0-.762-.163-1.168-.463-1.523-.326-.381-.68-.508-1.143-.508-.68 0-.953.026-1.361.508-.19.203-.435.76-.435 1.523v.253zM4.765 7.335v8.097h1.578v4.061H0v-4.06h1.143V3.806H0V0h7.486l5.88 11.396v-7.59h-1.58V0h6.343v3.807h-1.143v15.685h-6.098L4.764 7.335z" fill="#CC2229"/></svg>