<svg width="63" height="65" fill="none" xmlns="http://www.w3.org/2000/svg"><circle cx="31.22" cy="31.22" r="31.22" fill="#F2F4F8"/><mask id="a" style="mask-type:alpha" maskUnits="userSpaceOnUse" x="0" y="0" width="63" height="63"><circle cx="31.22" cy="31.22" r="31.22" fill="#BBC5D8"/></mask><g mask="url(#a)" fill="#fff"><path fill-rule="evenodd" clip-rule="evenodd" d="M36.543 16.295a7.985 7.985 0 00-2.662-.94c-.642-.105-1.388-.105-2.881-.105-1.493 0-2.24 0-2.88.105a8 8 0 00-6.414 5.74c-.175.626-.257 1.368-.422 2.852l-.441 3.965c-.15 1.347-.224 2.02-.409 2.666-.07.243-.15.483-.242.718-.245.626-.593 1.206-1.29 2.368l-1.835 3.057c-.805 1.343-1.208 2.014-.921 2.522.287.507 1.07.507 2.636.507h24.436c1.566 0 2.349 0 2.636-.507.287-.508-.116-1.18-.921-2.522l-1.835-3.057c-.697-1.162-1.045-1.742-1.29-2.368a8.008 8.008 0 01-.242-.718c-.185-.646-.26-1.32-.41-2.666l-.102-.927a6.5 6.5 0 01-4.51-10.69zm2.284 1.945a7.992 7.992 0 011.467 2.855c.174.62.256 1.356.418 2.816a3.501 3.501 0 01-1.885-5.67z"/><path d="M25.75 39.75a5.251 5.251 0 0010.5 0h-10.5z"/><path d="M41.5 24.5a4 4 0 100-8 4 4 0 000 8z" stroke="#fff"/></g><circle cx="50.731" cy="50.732" r="9.707" fill="#D7B055" stroke="#fff" stroke-width="4"/><path d="M50.582 55.11c-.563 0-1.063-.097-1.5-.29a2.507 2.507 0 01-1.031-.804 2.086 2.086 0 01-.403-1.192h1.47a.972.972 0 00.214.567c.13.159.303.282.52.37a1.9 1.9 0 00.726.133c.287 0 .54-.049.762-.148.221-.102.394-.242.52-.422a1.04 1.04 0 00.183-.62 1.079 1.079 0 00-.188-.642 1.255 1.255 0 00-.554-.433 2.168 2.168 0 00-.867-.156h-.707v-1.117h.707c.278 0 .522-.049.73-.145a1.18 1.18 0 00.496-.406c.12-.177.179-.382.176-.614a1.065 1.065 0 00-.152-.59 1.03 1.03 0 00-.434-.394 1.426 1.426 0 00-.652-.14 1.72 1.72 0 00-.68.132 1.237 1.237 0 00-.504.38.961.961 0 00-.203.577h-1.395c.01-.448.14-.84.387-1.18a2.5 2.5 0 011-.796c.417-.193.884-.29 1.402-.29.534 0 .998.1 1.391.301.396.198.702.465.918.801.216.336.324.707.324 1.114.003.45-.13.828-.398 1.132a1.87 1.87 0 01-1.047.598v.062c.563.079.993.287 1.293.625.302.336.452.754.45 1.254a2 2 0 01-.384 1.203 2.537 2.537 0 01-1.047.829c-.442.2-.95.3-1.523.3z" fill="#fff"/></svg>