<svg width="63" height="65" fill="none" xmlns="http://www.w3.org/2000/svg"><circle cx="31.22" cy="31.22" r="31.22" fill="#F2F4F8"/><mask id="a" style="mask-type:alpha" maskUnits="userSpaceOnUse" x="0" y="0" width="63" height="63"><circle cx="31.22" cy="31.22" r="31.22" fill="#BBC5D8"/></mask><g mask="url(#a)"><path fill-rule="evenodd" clip-rule="evenodd" d="M14.086 19.336c-.586.586-.586 1.528-.586 3.414v16.5c0 1.886 0 2.828.586 3.414.586.586 1.528.586 3.414.586h27c1.886 0 2.828 0 3.414-.586.586-.586.586-1.528.586-3.414v-16.5c0-1.886 0-2.828-.586-3.414-.586-.586-1.528-.586-3.414-.586h-27c-1.886 0-2.828 0-3.414.586zM18.75 23a1 1 0 100 2h3.5a1 1 0 100-2h-3.5zm20 15a1 1 0 011-1h3.5a1 1 0 110 2h-3.5a1 1 0 01-1-1zm-4.5-7a3.25 3.25 0 11-6.5 0 3.25 3.25 0 016.5 0zm2 0a5.25 5.25 0 11-10.5 0 5.25 5.25 0 0110.5 0z" fill="#fff"/></g><circle cx="50.731" cy="50.732" r="9.707" fill="#D7B055" stroke="#fff" stroke-width="4"/><path d="M51.965 47v8h-1.45v-6.59h-.046l-1.871 1.196v-1.329L50.586 47h1.379z" fill="#fff"/></svg>