<svg width="63" height="65" fill="none" xmlns="http://www.w3.org/2000/svg"><circle cx="31.22" cy="31.22" r="31.22" fill="#F2F4F8"/><mask id="a" style="mask-type:alpha" maskUnits="userSpaceOnUse" x="0" y="0" width="63" height="63"><circle cx="31.22" cy="31.22" r="31.22" fill="#BBC5D8"/></mask><g mask="url(#a)"><path fill-rule="evenodd" clip-rule="evenodd" d="M31.75 13.5v10.304c0 .425 0 .837.046 1.177.051.383.177.82.54 1.183.363.363.8.489 1.184.54.34.046.752.046 1.176.046H45V38c0 4.95 0 7.425-1.538 8.962C41.925 48.5 39.45 48.5 34.5 48.5h-7c-4.95 0-7.425 0-8.962-1.538C17 45.425 17 42.95 17 38V24c0-4.95 0-7.425 1.538-8.962C20.075 13.5 22.55 13.5 27.5 13.5h4.25zm2 0v10.25c0 .5.002.774.028.964v.007l.008.001c.19.026.464.028.964.028H45c-.002-1.17-.026-1.81-.266-2.39-.267-.643-.773-1.149-1.784-2.16l-4.65-4.65c-1.011-1.011-1.517-1.517-2.16-1.784-.58-.24-1.22-.264-2.39-.266zm-9 19.25a1 1 0 011-1h10.5a1 1 0 110 2h-10.5a1 1 0 01-1-1zm1 6a1 1 0 100 2h7a1 1 0 100-2h-7z" fill="#fff"/></g><circle cx="50.731" cy="50.732" r="9.707" fill="#D7B055" stroke="#fff" stroke-width="4"/><path d="M47.71 55v-1.047l2.778-2.723c.266-.268.487-.506.664-.714.177-.209.31-.41.399-.606.088-.195.133-.403.133-.625a1.18 1.18 0 00-.172-.648 1.143 1.143 0 00-.473-.422 1.526 1.526 0 00-.684-.149c-.263 0-.493.055-.69.164-.199.107-.352.26-.462.458a1.47 1.47 0 00-.16.706h-1.379c0-.507.116-.949.348-1.324a2.33 2.33 0 01.957-.87c.409-.207.877-.31 1.406-.31.536 0 1.008.1 1.414.301.406.2.721.476.945.825.227.349.34.747.34 1.195 0 .3-.057.594-.172.883-.114.289-.316.61-.605.96a15.3 15.3 0 01-1.207 1.278l-1.38 1.402v.055h3.485V55h-5.484z" fill="#fff"/></svg>