<svg width="116" height="24" fill="none" xmlns="http://www.w3.org/2000/svg"><g clip-path="url(#clip0)" fill="#9AA5B6"><path d="M9.234 23.811H7.045l-1.654-2.52h-.018v2.52H3.612v-6.514h2.615c1.334 0 2.348.617 2.348 2.006 0 .891-.516 1.68-1.476 1.851l2.135 2.657zm-3.879-3.6h.16c.57 0 1.228-.103 1.228-.823 0-.703-.64-.805-1.228-.805h-.16v1.628zm10.408 2.469l-.462 1.131h-1.868l2.597-6.514h1.922l2.544 6.514H18.61l-.445-1.131h-2.402zm1.228-3.377l-.747 2.074h1.459l-.712-2.074zm8.611-2.023h2.49c1.887 0 3.434 1.423 3.434 3.257 0 1.835-1.565 3.258-3.433 3.258h-2.491V17.28zm1.761 5.092h.392c1.05 0 1.957-.549 1.957-1.817 0-1.166-.801-1.818-1.94-1.818h-.409v3.635zm11.173-5.092h-1.761v6.515h1.761V17.28zm13.006 3.137c0 2.108-1.566 3.6-3.736 3.6-2.171 0-3.755-1.475-3.755-3.6 0-1.972 1.797-3.36 3.755-3.36 1.939.017 3.736 1.405 3.736 3.36zm-5.676.017c0 1.131.872 1.954 1.922 1.954 1.05 0 1.903-.823 1.903-1.954 0-.892-.854-1.715-1.903-1.715-1.05-.017-1.922.823-1.922 1.715zM18.663.052H15.23v15.411h3.434V.052zm7.152 3.976c4.181 0 6.192 3.172 6.192 5.88 0 2.709-2.01 5.898-6.192 5.898-4.18 0-6.191-3.172-6.191-5.898 0-2.708 2.01-5.88 6.191-5.88zm0 8.675c1.495 0 2.758-1.183 2.758-2.795 0-1.611-1.263-2.794-2.758-2.794-1.494 0-2.757 1.183-2.757 2.794 0 1.629 1.263 2.795 2.757 2.795zm13.166-8.675c4.18 0 6.191 3.172 6.191 5.88 0 2.709-2.01 5.898-6.191 5.898s-6.191-3.172-6.191-5.898c0-2.708 2.01-5.88 6.191-5.88zm0 8.675c1.494 0 2.758-1.183 2.758-2.795 0-1.611-1.264-2.794-2.758-2.794a2.762 2.762 0 00-2.758 2.794 2.751 2.751 0 002.758 2.795zm7.045-8.314h3.203v1.183h.035c.267-.463 1.014-1.56 3.167-1.56 1.014 0 2.42.343 3.327 1.971.694-1.08 1.886-1.971 3.648-1.971.8 0 2.099.188 3.024 1.114 1.085 1.097 1.245 1.834 1.245 4.303v6.051h-3.433V9.583c0-.891 0-2.451-1.762-2.451-1.903 0-1.903 1.68-1.903 2.297v6.051h-3.434V9.43c0-.6 0-2.314-1.726-2.314-1.94 0-1.94 1.782-1.94 2.451v5.897h-3.433V4.39M64.85.052h3.433v5.211c1.228-1.251 2.865-1.251 3.345-1.251 2.402 0 5.658 1.645 5.658 5.845 0 3.995-2.882 5.983-5.8 5.983-1.62 0-2.847-.754-3.292-1.56h-.053v1.183H64.85V.052zm6.102 12.703c1.761 0 2.882-1.372 2.882-2.846 0-1.423-1.12-2.812-2.829-2.812-1.814 0-2.846 1.406-2.846 2.795 0 1.543 1.067 2.863 2.793 2.863zm18.788-.772c-.552 1.252-1.37 2.194-2.33 2.846a5.83 5.83 0 01-3.274.994c-3.292 0-6.103-2.571-6.103-5.863 0-3.085 2.527-5.948 6.031-5.948 3.505 0 6.067 2.674 6.067 6.051 0 .446-.035.617-.07.874h-8.612c.214 1.32 1.352 2.092 2.687 2.092 1.05 0 1.619-.463 2.1-1.046h3.504zm-3.025-3.291c-.142-.652-.818-1.903-2.615-1.903-1.78 0-2.455 1.234-2.615 1.903h5.23zm4.465-4.303h3.239v1.183h.053c.41-.292 1.762-1.235 3.327-1.046v2.966c-1.583.051-3.167.222-3.167 1.885v6.086h-3.451V4.389zm19.162 9.737c0 1.646-.124 3.72-.676 4.663-.889 1.388-2.989 2.64-5.818 2.4-3.985-.343-5.106-2.143-5.284-3.892h3.754c.498 1.098 1.566 1.098 1.779 1.098 1.833 0 2.794-.258 2.794-3.806v-.326h-.036c-.356.634-1.352 1.577-3.149 1.577-3.131 0-5.8-2.28-5.8-5.828 0-3.789 2.829-5.966 5.8-5.966 1.281 0 2.544.446 3.167 1.406h.053V4.406h3.434v9.72h-.018zm-6.245-1.389c1.655 0 2.811-1.165 2.811-2.76 0-1.783-1.263-2.845-2.793-2.845-1.476 0-2.775 1.131-2.775 2.76 0 1.748 1.316 2.845 2.757 2.845zM3.594.052h4.145c2.722 0 3.665.24 4.84 1.491.711.703.96 1.646.96 2.537 0 1.183-.498 2.177-1.796 2.88 2.58.875 2.49 3.155 2.49 3.806 0 1.234-.498 2.589-1.476 3.36-1.477 1.2-2.153 1.337-4.857 1.337H3.594V.052zm3.434 5.845h1.138c.57 0 1.513 0 1.513-1.234 0-1.166-.872-1.166-1.513-1.166H7.028v2.4zm0 6.103h1.619c.516 0 1.814 0 1.814-1.491 0-1.337-1.156-1.337-1.814-1.337h-1.62V12z"/></g><defs><clipPath id="clip0"><path fill="#fff" d="M0 0h116v24H0z"/></clipPath></defs></svg>