<svg width="120" height="29" fill="none" xmlns="http://www.w3.org/2000/svg"><g clip-path="url(#clip0)" fill="#9AA5B6"><path d="M13.77 1.326H1.043C.48 1.326 0 1.79 0 2.363v2.156c0 .573.481 1.064 1.043 1.064h3.101c.348 0 .642.3.615.655v20.904c0 .6.482 1.065 1.043 1.065H8.93c.589 0 1.043-.492 1.043-1.065V6.211c0-.355.268-.628.615-.655h3.129c.588 0 1.042-.464 1.042-1.065V2.39c.054-.6-.4-1.064-.989-1.064zm14.519 9.634c-.562-1.747-2.086-2.757-3.85-2.757-1.257 0-2.46.491-3.37 1.364a.58.58 0 01-.214.137c-.026-.055-.053-.137-.026-.218l-.027-7.096c0-.6-.481-1.064-1.043-1.064h-2.647c-.561 0-1.043.49-1.043 1.064v24.725c0 .573.455 1.065 1.043 1.065h2.7c.562 0 1.043-.492 1.043-1.065V14.07a2.29 2.29 0 01.054-.736 1.422 1.422 0 011.444-1.147c.534-.027 1.016.246 1.283.737.134.328.134.6.134 1.42v12.771c0 .6.454 1.065 1.043 1.065h2.7c.588 0 1.043-.465 1.043-1.065V12.951a5.609 5.609 0 00-.267-1.992zm7.006 8.623h5.775c.588 0 1.043-.491 1.043-1.064v-4.64c0-1.473-.187-2.128-.535-2.838-.588-1.228-2.353-2.838-5.455-2.865-2.245 0-4.759.846-5.748 3.193a7.515 7.515 0 00-.481 2.674v8.105c.026.874.133 1.72.32 2.566.508 1.774 1.925 3.82 5.803 3.82h.053c2.513 0 5.027-.764 5.775-3.602a5.68 5.68 0 00.188-1.774v-.764c-.027-.573-.482-1.01-1.043-.982h-2.54c-.562 0-1.043.49-1.043 1.064 0 .41-.027.846-.134 1.255a1.187 1.187 0 01-1.203.9c-.588.055-1.15-.354-1.31-.927-.107-.3-.107-.519-.107-1.2V20.21c.027-.355.294-.628.642-.628zm-.642-5.73c0-.356.053-.71.187-1.038.187-.355.481-.655 1.203-.655.669 0 .936.273 1.096.573.134.3.188.655.188.983v1.637a.611.611 0 01-.615.628h-1.417c-.348 0-.615-.273-.642-.628v-1.5zm22.807 2.046a9.513 9.513 0 00-2.193-2.101l-4.625-3.248a3.844 3.844 0 01-.936-.819c-.428-.6-.481-1.746-.481-2.21v-.219c.026-2.128.882-2.374 1.925-2.401 1.738.027 1.871.955 1.925 1.692v1.856c0 .6.454 1.064 1.043 1.064h3.101c.588 0 1.043-.491 1.043-1.064V6.702a4.505 4.505 0 00-.428-2.292C56.417.725 52.166.753 51.39.753c-.508 0-5.053-.028-6.604 3.33-.615 1.31-.642 2.974-.642 3.574v.164c0 2.265.375 3.33.936 4.312.669 1.119 1.23 1.555 2.246 2.238l4.519 3.11c.401.274.749.601 1.043.983.428.655.481 1.529.481 2.02v.3c0 1.801-.027 2.92-.615 3.357-.294.273-.695.436-1.524.436a2.382 2.382 0 01-1.364-.355c-.695-.436-.748-1.228-.748-2.1v-2.62c0-.601-.455-1.065-1.043-1.065H45c-.588 0-1.043.464-1.043 1.064v3.002a5.995 5.995 0 00.535 2.811c.32.737.802 1.392 1.417 1.883 1.604 1.283 3.61 1.556 5.455 1.556 4.465.027 6.31-1.992 6.925-4.203.267-1.037.267-1.938.267-3.957v-.873c0-1.392-.107-2.511-1.096-3.821zm10.909 9.006a.527.527 0 00-.428-.355h-.053c-.107 0-.214.027-.348.027-.775 0-1.47-.136-1.658-.9-.107-.273-.107-.383-.107-.983V12.597c0-.355.294-.628.642-.628h.936c.561 0 1.043-.464 1.043-1.064V9.677c0-.6-.455-1.065-1.043-1.065h-.936a.634.634 0 01-.642-.627V4.218c0-.6-.454-1.064-1.042-1.064h-2.674c-.588 0-1.043.464-1.043 1.064v3.74a.628.628 0 01-.615.627h-.695c-.588 0-1.043.464-1.043 1.064v1.256c0 .6.455 1.064 1.043 1.064h.722c.347 0 .615.3.615.628V24.14c0 .765.026 1.583.374 2.293.588 1.337 2.032 1.91 4.546 1.91h.053a12.8 12.8 0 001.444-.082 1.249 1.249 0 001.016-1.228v-1.5c.027-.192-.027-.41-.107-.628zM79.091 9.267a1.01 1.01 0 00-.962-1.01h-.107a4.068 4.068 0 00-2.942 1.72 3.576 3.576 0 00-.267.41v-.738c0-.573-.454-1.037-1.016-1.037h-2.7c-.589 0-1.043.464-1.043 1.065v17.466c0 .6.454 1.064 1.043 1.064h2.673c.589 0 1.043-.491 1.043-1.064V16.445c0-1.228.053-2.511 1.096-3.248.455-.273.99-.436 1.524-.41.241 0 .455.028.696.055l.053-.218-.053.218c.053 0 .133.028.187.028a.739.739 0 00.534-.219.965.965 0 00.214-.6l.027-2.784zm6.069 10.316h5.776c.588 0 1.043-.491 1.043-1.064v-4.64c0-1.473-.187-2.128-.535-2.838-.588-1.228-2.353-2.865-5.481-2.865-2.246 0-4.76.846-5.749 3.193a7.535 7.535 0 00-.508 2.674v8.105c.027.874.134 1.72.348 2.566.508 1.774 1.925 3.848 5.855 3.82h.054c2.513 0 4.973-.791 5.722-3.602a5.65 5.65 0 00.187-1.774v-.764c-.027-.573-.481-1.01-1.043-.982h-2.54c-.562 0-1.043.49-1.043 1.064 0 .41-.027.846-.133 1.255a1.187 1.187 0 01-1.204.9 1.326 1.326 0 01-1.31-.927c-.107-.3-.107-.519-.107-1.2V20.21c.054-.355.321-.628.669-.628zm.776-7.423c.668 0 .936.273 1.096.573.134.3.187.655.187.983v1.637a.634.634 0 01-.641.628h-1.444a.611.611 0 01-.615-.628v-1.5a2.3 2.3 0 01.187-1.038c.187-.355.508-.655 1.23-.655zm12.701 7.423h5.775c.588 0 1.043-.464 1.043-1.064v-4.64c0-1.473-.187-2.128-.535-2.838-.588-1.228-2.353-2.838-5.481-2.865-2.246 0-4.76.846-5.749 3.193a7.513 7.513 0 00-.481 2.674v8.105c.027.874.134 1.72.348 2.566.508 1.774 1.925 3.848 5.855 3.82h.027c2.513 0 4.973-.791 5.722-3.602a5.65 5.65 0 00.187-1.774v-.764c-.027-.573-.481-1.01-1.043-.982h-2.54c-.561 0-1.043.49-1.043 1.064 0 .41-.026.846-.133 1.255a1.187 1.187 0 01-1.204.9 1.272 1.272 0 01-1.283-.927c-.107-.3-.107-.519-.107-1.2V20.21c.027-.355.32-.628.642-.628zm.802-7.423c.668 0 .936.273 1.096.573.134.3.214.655.187.983v1.637a.634.634 0 01-.641.628h-1.444c-.348 0-.615-.273-.642-.628v-1.5c0-.356.054-.71.187-1.038.214-.355.508-.655 1.257-.655zm16.149 12.745a.525.525 0 00-.427-.355h-.054c-.107.027-.241.027-.348.027-.775 0-1.47-.136-1.657-.9-.107-.273-.107-.383-.107-.983V12.597c0-.355.294-.628.641-.628h.936c.589 0 1.043-.464 1.043-1.064V9.677c0-.6-.481-1.065-1.043-1.065h-.936c-.347 0-.615-.273-.641-.627V4.218c0-.6-.455-1.064-1.043-1.064h-2.674c-.588 0-1.043.464-1.043 1.064v3.74a.628.628 0 01-.615.627h-.668c-.588 0-1.043.491-1.043 1.064v1.256c0 .6.481 1.064 1.043 1.064h.722c.347 0 .615.3.615.655v11.544c0 .764.027 1.583.374 2.292.588 1.337 2.032 1.91 4.546 1.91h.026c.482 0 .963-.027 1.444-.081.588-.11.99-.628 1.016-1.201v-1.501a1.454 1.454 0 00-.107-.682zm3.182 3.465c-.695 0-1.23-.573-1.23-1.255 0-.682.562-1.255 1.23-1.255.668 0 1.23.546 1.23 1.228.027.682-.508 1.283-1.203 1.283 0 .027-.027.027-.027 0zm0-2.374c-.615 0-1.123.492-1.123 1.12 0 .627.481 1.145 1.096 1.145.615 0 1.097-.49 1.123-1.119a1.092 1.092 0 00-1.043-1.146h-.053zm0 .328c.134 0 .267.027.374.082a.532.532 0 01.214.436.488.488 0 01-.267.437l.267.655h-.374l-.214-.6h-.214v.6h-.321V26.35h.535v-.027zm-.187.71h.214c.16 0 .24-.055.24-.219s-.08-.191-.24-.191h-.214v.41z"/></g><defs><clipPath id="clip0"><path fill="#fff" transform="translate(0 .753)" d="M0 0h120v28H0z"/></clipPath></defs></svg>