<svg width="48" height="22" fill="none" xmlns="http://www.w3.org/2000/svg"><g clip-path="url(#clip0)" fill="#9AA5B6"><path d="M15.206.01c0-.009-4.13 0-4.13 0C4.964.01.01 4.93.01 11c0 6.069 4.955 10.989 11.067 10.989l7.764-.007c1.95 0 3.532-1.558 3.532-3.494l.004-6.703 5.367 8.404A4.06 4.06 0 0031.129 22c2.24 0 4.056-1.803 4.056-4.027v-6.187l5.366 8.404A4.06 4.06 0 0043.937 22c2.24 0 4.056-1.803 4.056-4.027V.001H45.23v17.971a1.297 1.297 0 01-2.367.718l-9.55-14.938a.489.489 0 00-.549-.189.49.49 0 00-.344.464l.003 13.945c0 .71-.58 1.285-1.294 1.285-.446 0-.84-.225-1.073-.566L20.505 3.75a.49.49 0 00-.893.276l-.002 14.46a.767.767 0 01-.77.765l-7.763-.006c-4.587 0-8.305-3.692-8.305-8.246s3.718-8.246 8.304-8.246l4.13-.003V.01z"/><path d="M15.65 15.724a.395.395 0 00.393-.39l.001-11.306C16.044 1.802 17.86 0 20.1 0c1.42 0 2.67.725 3.395 1.822l5.347 8.33.01-6.124C28.852 1.803 30.668 0 32.908 0c1.42 0 2.67.725 3.395 1.822l5.347 8.33V.002h2.78l-.005 17.97a.484.484 0 01-.334.461.493.493 0 01-.547-.169L33.981 3.309a1.295 1.295 0 00-1.073-.566 1.29 1.29 0 00-1.294 1.285l.003 13.944a.484.484 0 01-.334.461.492.492 0 01-.547-.169L21.173 3.309a1.295 1.295 0 00-1.073-.566 1.29 1.29 0 00-1.294 1.285l.006 14.055a.39.39 0 01-.393.39h-7.344c-4.142 0-7.5-3.36-7.5-7.473 0-4.113 3.358-7.472 7.5-7.472 0 0 4.13-.016 4.13 0v2.77l-4.13-.003C8.46 6.295 6.337 8.402 6.337 11a4.742 4.742 0 004.738 4.73l4.575-.006z"/></g><defs><clipPath id="clip0"><path fill="#fff" d="M0 0h48v22H0z"/></clipPath></defs></svg>