<svg width="137" height="31" fill="none" xmlns="http://www.w3.org/2000/svg"><g clip-path="url(#clip0)" fill="#9AA5B6"><path d="M10.905 30.517H8.322l-1.954-3.15h-.021v3.15h-2.08v-8.143h3.088c1.576 0 2.774.771 2.774 2.507 0 1.114-.61 2.1-1.744 2.314l2.521 3.322zm-4.58-4.5h.189c.672 0 1.45-.129 1.45-1.029 0-.878-.757-1.007-1.45-1.007h-.19v2.036zm12.292 3.086l-.547 1.414h-2.206l3.068-8.143h2.27l3.004 8.143H21.98l-.526-1.414h-2.836zm1.45-4.222l-.883 2.593h1.723l-.84-2.593zm10.169-2.528h2.942a4.043 4.043 0 014.055 4.071 4.056 4.056 0 01-4.055 4.072h-2.942v-8.143zm2.08 6.364h.463c1.24 0 2.311-.686 2.311-2.271 0-1.458-.945-2.272-2.29-2.272h-.483v4.543zm13.197-6.364h-2.08v8.142h2.08v-8.142zm15.36 3.921c0 2.636-1.85 4.5-4.413 4.5s-4.434-1.843-4.434-4.5c0-2.464 2.123-4.2 4.434-4.2 2.29.021 4.413 1.757 4.413 4.2zm-6.703.021c0 1.415 1.03 2.443 2.269 2.443 1.24 0 2.248-1.028 2.248-2.442 0-1.115-1.008-2.143-2.248-2.143-1.24-.022-2.27 1.028-2.27 2.143zM22.042.817h-4.056v19.264h4.056V.817zm8.447 4.971c4.938 0 7.312 3.965 7.312 7.35 0 3.386-2.374 7.372-7.312 7.372-4.938 0-7.312-3.965-7.312-7.372 0-3.385 2.374-7.35 7.312-7.35zm0 10.843c1.765 0 3.257-1.478 3.257-3.493 0-2.014-1.492-3.493-3.257-3.493-1.765 0-3.257 1.479-3.257 3.493 0 2.036 1.492 3.493 3.257 3.493zM46.038 5.788c4.938 0 7.312 3.965 7.312 7.35 0 3.386-2.374 7.372-7.312 7.372-4.938 0-7.312-3.965-7.312-7.372 0-3.385 2.374-7.35 7.312-7.35zm0 10.843c1.765 0 3.257-1.478 3.257-3.493 0-2.014-1.492-3.493-3.257-3.493-1.744 0-3.257 1.479-3.257 3.493 0 2.036 1.513 3.493 3.257 3.493zm8.32-10.393h3.783v1.479h.042c.315-.579 1.197-1.95 3.74-1.95 1.197 0 2.858.429 3.93 2.464.819-1.35 2.226-2.464 4.307-2.464.945 0 2.48.236 3.572 1.393 1.281 1.371 1.47 2.293 1.47 5.378v7.565h-4.055V12.73c0-1.114 0-3.064-2.08-3.064-2.248 0-2.248 2.1-2.248 2.871v7.565h-4.056v-7.565c0-.75 0-2.892-2.038-2.892-2.29 0-2.29 2.228-2.29 3.064v7.371h-4.056V6.238M76.59.817h4.055v6.514c1.45-1.564 3.383-1.564 3.95-1.564 2.837 0 6.682 2.057 6.682 7.307 0 4.993-3.404 7.479-6.85 7.479-1.912 0-3.362-.943-3.887-1.95h-.063v1.478H76.59V.817zm7.207 15.879c2.08 0 3.404-1.715 3.404-3.558 0-1.778-1.324-3.514-3.34-3.514-2.144 0-3.363 1.757-3.363 3.493 0 1.929 1.26 3.579 3.299 3.579zm22.189-.965c-.651 1.565-1.618 2.743-2.752 3.557a6.612 6.612 0 01-3.867 1.243c-3.887 0-7.207-3.214-7.207-7.328 0-3.857 2.984-7.436 7.123-7.436 4.14 0 7.166 3.343 7.166 7.564 0 .557-.043.772-.085 1.093h-10.17c.253 1.65 1.597 2.614 3.173 2.614 1.24 0 1.912-.578 2.48-1.307h4.139zm-3.572-4.114c-.168-.814-.966-2.379-3.089-2.379-2.1 0-2.9 1.543-3.088 2.379h6.177zm5.274-5.379h3.824v1.479h.063c.483-.364 2.08-1.543 3.929-1.307v3.707c-1.87.064-3.74.278-3.74 2.357v7.607h-4.076V6.238zm22.63 12.172c0 2.057-.147 4.65-.798 5.828-1.051 1.736-3.53 3.3-6.871 3-4.707-.428-6.031-2.678-6.241-4.864h4.434c.588 1.372 1.849 1.372 2.101 1.372 2.164 0 3.299-.322 3.299-4.758v-.407h-.042c-.42.793-1.597 1.972-3.719 1.972-3.698 0-6.85-2.85-6.85-7.286 0-4.736 3.341-7.457 6.85-7.457 1.513 0 3.005.557 3.74 1.757h.063V6.26h4.055v12.15h-.021zm-7.375-1.736c1.954 0 3.32-1.457 3.32-3.45 0-2.229-1.492-3.557-3.299-3.557-1.744 0-3.278 1.414-3.278 3.45 0 2.186 1.555 3.557 3.257 3.557zM4.244.817H9.14c3.215 0 4.329.3 5.715 1.864.84.879 1.135 2.057 1.135 3.172 0 1.478-.588 2.721-2.122 3.6 3.046 1.093 2.941 3.943 2.941 4.757 0 1.543-.588 3.236-1.744 4.2-1.744 1.5-2.542 1.671-5.736 1.671H4.244V.817zM8.3 8.124h1.344c.673 0 1.786 0 1.786-1.543 0-1.457-1.03-1.457-1.786-1.457H8.3v3zm0 7.629h1.912c.609 0 2.143 0 2.143-1.865 0-1.671-1.366-1.671-2.143-1.671H8.3v3.536z"/></g><defs><clipPath id="clip0"><path fill="#fff" transform="translate(0 .753)" d="M0 0h137v30H0z"/></clipPath></defs></svg>