<svg width="222" height="34" fill="none" xmlns="http://www.w3.org/2000/svg"><path d="M12.424 10.554v11.588c1.49-.886 2.236-2.162 2.769-3.828l.39.177c-.355 4.182-3.265 8.257-7.703 8.257-4.472 0-7.88-3.33-7.88-8.646 0-4.075 2.45-6.556 5.928-8.753-.461-.142-.887-.177-1.384-.177-2.272 0-3.621 1.559-3.621 3.153H.426c-.036-.212-.036-.46-.036-.673 0-2.941 1.74-6.237 5.36-6.237 2.308 0 4.083 2.127 6.78 2.127 1.35 0 2.13-.497 2.663-1.666h.39c0 2.02-.603 4.004-3.159 4.678zM6.389 9.49c-1.632 1.665-3.194 3.472-3.194 7.052 0 1.948.603 3.933 2.094 5.209l.994-.532V13.21l-1.03.532-.319-.496 4.757-2.658c-1.207-.283-2.201-.78-3.302-1.098zm5.431 1.169c-.213.035-.461.035-.745.035-.461 0-.852-.035-1.278-.141v9.39l-4.046 2.198c.851.637 1.81.956 3.159.956a7.015 7.015 0 002.91-.637v-11.8zM25.77 13.6v10.88c0 3.047-2.697 5.102-5.714 5.705l-.178-.32c1.491-.743 2.485-2.02 2.485-3.614v-11.34l-1.562-1.417-.816.815v8.576l.958.886v.141l-2.556 2.729-2.946-2.693v-.142l1.136-1.205V8.605l3.372-3.58.071.036v8.434l2.77-2.906 2.768 2.516.852-.815.426.425-1.065.886zm5.29 6.45v1.417l2.875 2.268 2.236-2.303.426.425-4.508 4.82-4.082-3.225-.887.886-.39-.426.993-1.027v-7.974l6-4.358 3.336 5.173-6 4.324zm.07-7.158l-.07.035v6.379l2.769-2.02-2.698-4.394zm25.984 13.714l-4.402-3.791-3.372 3.791-4.58-3.933V16.47h-.886c-.782 0-1.172.461-1.314 1.099h-.32a4.842 4.842 0 01-.141-1.205c0-.815.355-2.977 2.662-2.977V8.57c0-1.878-1.242-1.95-1.242-3.58 0-1.806 1.703-3.472 4.863-4.606l.284.248c-1.065.496-1.917 1.134-1.917 2.516 0 2.09 2.023 1.56 2.023 4.855v1.276L52.5 5.38l3.905 3.827 3.692-3.827 3.55 3.472v11.73l-6.532 6.024zm-4.615-15.805l-2.236-2.197-1.455 1.489v10.879l2.697 2.303.994-1.098V10.802zm7.17-.425l-1.774-1.772-1.35 1.347v10.985l3.125 2.73.035-.036V10.376h-.035zm14.235 16.231l-2.982-2.729h-.07l-2.627 2.729-3.195-2.835-.746.744-.426-.425.923-.957v-8.328l6.035-4.323 3.301 2.587.887-.886.462.425-1.136 1.063v8.576l1.455 1.346.923-.956.462.46-3.266 3.509zM70.922 14.77l-2.626-2.056-.072.071v9.25l1.953 1.7.745-.744V14.77zm12.886 1.523h2.981v6.769l-5.04 3.544c-.674-.745-1.633-1.312-2.804-1.312-.959 0-1.704.461-2.485 1.276l-.462-.142 4.367-6.272h-2.698v-5.883l5.289-3.72c.639.496 1.136.815 1.952.815.64 0 1.562-.142 2.272-.709l.32.213-3.692 5.421zm-.462 2.764h-1.49l-3.515 5.033.036.07c.745-.46 1.349-.78 2.413-.78.959 0 1.953.462 2.556 1.206l.036-.036v-5.49h-.036zm2.06-6.2c-.675.46-1.066.743-2.202.743-.639 0-1.384-.283-1.988-.921l-.07.035v4.643h1.206l3.053-4.5zm12.707.743v10.88c0 3.047-2.698 5.102-5.715 5.705l-.177-.32c1.49-.743 2.484-2.02 2.484-3.614v-11.34l-1.562-1.417-.816.815v8.576l.958.886v.141l-2.555 2.729-2.947-2.693v-.142l1.136-1.205V8.605l3.373-3.58.07.036v8.434l2.77-2.906 2.768 2.516.852-.815.426.425-1.065.886zm6.212 13.006l-2.627-2.41-.887.886-.426-.425 1.065-1.064v-9.036l-1.136-1.063-.852.815-.426-.425 3.195-3.402 2.413 2.197.852-.886.462.46-1.065 1.064v9.107l1.349 1.24.958-.992.426.46-3.301 3.474zm-.923-16.337l-2.591-2.374 2.378-2.552 2.591 2.375-2.378 2.551zm14.627 16.337l-2.769-2.516v-9.249l-1.491-1.382-1.065 1.099v8.292l.994.921v.142l-2.591 2.729-2.946-2.694v-.106l1.136-1.205V14.63l-1.314-1.17-.958.957-.462-.425 3.231-3.473 2.875 2.551v.638l3.017-3.19L118.455 13l.923-.922.426.46-1.101 1.1v8.894l1.243 1.17 1.065-1.064.39.425-3.372 3.544zm13.666-13.005v10.737c0 1.666.923 1.595.923 2.835 0 1.418-2.059 2.764-5.253 5.139-1.065-1.134-1.775-1.63-2.769-1.63-1.065 0-2.343.425-3.408 1.133l-.319-.248 4.366-5.102-2.875-2.268-.923.92-.426-.424 1.065-1.099V14.77l6.034-4.323 3.23 2.552.959-.922.426.425-1.03 1.099zm-2.449 13.253c-.781-.496-.994-1.063-.994-2.41v-.46l-5.076 5.882.036.036c1.029-.603 1.774-.992 3.265-.992 1.278 0 2.201.531 3.018 1.275.603-.496 1.064-1.027 1.064-1.807-.035-.602-.497-1.028-1.313-1.524zm-.958-12.084l-2.627-2.055-.071.07v9.746l1.881 1.453.817-.957V14.77zm9.974 11.836l-2.804-2.197-.852.85-.426-.425.994-1.027V12.82h-1.846l-.071-.07 1.101-1.666h.781V8.959l3.372-3.58.071.071v5.635h2.556l.071.07-1.101 1.666h-1.491v9.604l1.527 1.17 1.065-1.064.426.46-3.373 3.615zm13.88-12.722v8.789l-5.36 3.969-3.905-2.942-.888.886-.425-.425 1.029-1.063v-8.576l5.608-4.04 3.621 2.835.923-.921.426.46-1.029 1.028zm-3.408.957l-2.662-2.09-.036.035v9.461l2.698 2.02v-9.426zm16.009 11.73l-2.769-2.516v-9.25l-1.491-1.381-1.064 1.098v8.292l.993.922v.142l-2.591 2.728-2.946-2.693v-.106l1.136-1.205v-7.973l-1.314-1.17-.958.957-.461-.425 3.23-3.473 2.875 2.551v.638l3.017-3.19L165.169 13l.923-.922.426.46-1.1 1.1v8.894l1.242 1.17 1.065-1.064.39.425-3.372 3.509zm19.487.036c-.532-.674-1.207-1.24-1.988-1.453v6.59l-.071.036-1.739-1.63-3.692 3.402-.071-.035v-8.54c-1.1.247-2.307.956-3.23 2.09l-.249-.142c.213-2.445 1.42-4.252 3.479-4.96v-6.167h-.674c-.923 0-1.562.638-1.669 1.347h-.39c-.107-.248-.213-.673-.213-1.453 0-1.56 1.065-2.729 2.769-2.729h.177V9.526l-1.136-1.028-.887.886-.462-.425 3.515-3.615 2.981 2.729v3.118l.923-.992V6.55h.604v3.012l3.975-4.217 3.586 3.26v13.821l-5.538 4.181zm-2.591-15.77l-.923.957v17.86l.923.85V10.838zm4.153-.744l-1.881-1.701-1.669 1.772V21.68c1.491.177 2.591.709 3.514 1.665l.036-.035V10.093zm15.477 3.792v8.788l-5.36 3.969-3.905-2.941-.888.886-.426-.426 1.03-1.063v-8.575l5.608-4.04 3.621 2.835.923-.922.426.461-1.029 1.028zm-3.444.957l-2.662-2.091-.035.035v9.462l2.697 2.02V14.84zm11.324 1.452h2.982v6.769l-5.041 3.544c-.674-.745-1.633-1.312-2.804-1.312-.959 0-1.704.461-2.485 1.276l-.461-.142 4.366-6.272h-2.698v-5.883l5.289-3.72c.639.496 1.136.815 1.952.815.639 0 1.562-.142 2.272-.71l.32.213-3.692 5.422zm-.462 2.764h-1.49l-3.515 5.032.036.071c.745-.46 1.349-.78 2.414-.78.958 0 1.952.461 2.555 1.206l.036-.036v-5.493h-.036zm2.024-6.201c-.675.46-1.065.744-2.201.744-.639 0-1.384-.283-1.988-.921l-.071.035v4.643h1.207l3.053-4.501zm7.277 13.75l-2.805-2.198-.852.85-.425-.424.993-1.028V12.822h-1.845l-.071-.071 1.1-1.666h.781V8.96l3.372-3.58.071.072v5.634h2.556l.071.071-1.101 1.665h-1.49v9.604l1.526 1.17 1.065-1.064.426.46-3.372 3.616z" fill="#9AA5B6"/></svg>