<svg width="97" height="25" fill="none" xmlns="http://www.w3.org/2000/svg"><path d="M58.63 7.632c-1.542 0-2.753.332-3.965.995 0-3.54 0-6.747.11-7.853L47.394 2.1v.663l.77.111c.992.221 1.324.774 1.542 2.102.222 2.655.11 16.816 0 19.14 1.983.442 4.077.774 6.171.774 5.84 0 9.366-3.65 9.366-9.404 0-4.535-2.865-7.855-6.611-7.855zm-2.534 16.042c-.44 0-.992 0-1.322-.11-.11-1.549-.22-8.077-.11-13.83.66-.221 1.1-.332 1.652-.332 2.426 0 3.748 2.877 3.748 6.416 0 4.427-1.653 7.856-3.968 7.856zM19.626 1.216H.231v.995l1.102.11c1.432.222 1.984 1.107 2.203 3.209.332 3.982.221 11.174 0 14.602-.22 2.103-.77 3.099-2.203 3.208l-1.102.223v.885h12.451v-.885l-1.322-.223c-1.432-.11-1.983-1.105-2.203-3.207-.111-1.44-.221-3.763-.221-6.638l2.644.11c1.653 0 2.424 1.328 2.755 3.208h.992V8.96h-.992c-.332 1.881-1.102 3.208-2.755 3.208l-2.644.111c0-3.761.11-7.301.221-9.403h3.856c2.976 0 4.518 1.88 5.62 5.2l1.102-.333-.11-6.527z" fill="#9AA5B6"/><path d="M25.905 7.41c5.51 0 8.264 3.763 8.264 8.74 0 4.758-3.085 8.742-8.595 8.742-5.509 0-8.264-3.762-8.264-8.741 0-4.757 3.085-8.74 8.595-8.74zm-.331 1.107c-2.424 0-3.085 3.32-3.085 7.634 0 4.204 1.102 7.633 3.306 7.633 2.532 0 3.195-3.319 3.195-7.633 0-4.204-1.101-7.634-3.416-7.634zm41.098 7.745c0-4.536 2.865-8.851 8.484-8.851 4.627 0 6.832 3.43 6.832 7.965H71.74c-.11 4.094 1.873 7.081 5.84 7.081 1.763 0 2.645-.441 3.747-1.216l.44.552c-1.102 1.549-3.526 3.099-6.61 3.099-4.96 0-8.485-3.54-8.485-8.63zm5.068-2.102l5.179-.111c0-2.213-.33-5.532-2.203-5.532-1.873 0-2.866 3.098-2.976 5.643zm23.362-5.864c-1.323-.554-3.085-.885-5.069-.885-4.076 0-6.611 2.433-6.611 5.31s1.871 4.094 4.519 4.98c2.754.994 3.525 1.769 3.525 3.096 0 1.328-.992 2.544-2.755 2.544-2.092 0-3.636-1.216-4.848-4.536l-.771.223.11 4.867c1.323.553 3.746.996 5.84.996 4.298 0 7.053-2.213 7.053-5.642 0-2.324-1.213-3.65-4.078-4.758-3.085-1.216-4.186-1.99-4.186-3.43 0-1.438.993-2.434 2.315-2.434 1.982 0 3.304 1.217 4.298 4.205l.77-.221-.112-4.315zm-46.61-.442c-1.872-1.106-5.178-.554-6.94 3.43l.108-3.873-7.38 1.439v.663l.771.11c.993.112 1.433.665 1.543 2.104.22 2.655.11 7.302 0 9.625-.11 1.326-.55 1.99-1.543 2.101l-.771.111v.885h10.247v-.885l-1.323-.11c-1.1-.112-1.432-.776-1.543-2.102-.22-2.103-.22-6.306-.109-8.962.55-.775 2.975-1.438 5.178 0l1.763-4.536z" fill="#9AA5B6"/></svg>