<svg width="52" height="25" fill="none" xmlns="http://www.w3.org/2000/svg"><g clip-path="url(#clip0)" fill="#9AA5B6"><path d="M16.472.765c0-.011-4.474 0-4.474 0C5.377.765.008 6.132.008 12.753c0 6.62 5.369 11.988 11.99 11.988l8.411-.007c2.113 0 3.826-1.7 3.826-3.813l.005-7.311 5.813 9.168a4.394 4.394 0 008.063-2.419l-.001-6.75 5.813 9.169a4.394 4.394 0 008.063-2.419V.754h-2.992v19.605a1.402 1.402 0 01-2.564.784L36.088 4.846a.53.53 0 00-.968.3l.004 15.213a1.401 1.401 0 01-2.564.784L22.212 4.846a.53.53 0 00-.967.3l-.002 15.776c0 .46-.373.833-.834.833L12 21.749a8.997 8.997 0 110-17.992l4.473-.003V.764z"/><path d="M16.953 17.906a.427.427 0 00.426-.426l.002-12.334a4.394 4.394 0 018.071-2.406l5.793 9.087.01-6.68a4.394 4.394 0 018.072-2.407l5.794 9.087V.754h3.011l-.005 19.605a.53.53 0 01-.955.318L36.813 4.363a1.4 1.4 0 00-2.564.783l.004 15.213a.53.53 0 01-.955.318L22.937 4.363a1.4 1.4 0 00-2.564.783l.006 15.334a.426.426 0 01-.426.426l-7.955-.002c-4.488 0-8.126-3.664-8.126-8.151S7.51 4.6 11.998 4.6c0 0 4.473-.017 4.473 0v3.023l-4.473-.004a5.133 5.133 0 00-5.133 5.133c0 2.834 2.298 5.159 5.133 5.159l4.955-.006z"/></g><defs><clipPath id="clip0"><path fill="#fff" transform="translate(0 .753)" d="M0 0h52v24H0z"/></clipPath></defs></svg>