<svg width="177" height="26" fill="none" xmlns="http://www.w3.org/2000/svg"><path fill-rule="evenodd" clip-rule="evenodd" d="M165.41 18.908v1.045h1.365v5.1h-8.754v-5.068h1.156V5.478h-1.085V.758h7.318V14.98l3.642-2.565h-1.646V7.378h9.559v5.036h-1.996l-2.031 1.584 2.627 5.987H177v5.068h-9.629v-5.1h1.506l-1.085-2.66-2.382 1.615zm-13.251-.824h5.742c-1.471 5.004-3.362 7.601-9.559 7.601-2.905 0-5.217-.95-6.968-2.533-1.645-1.49-2.625-4.086-2.625-6.937 0-2.85 1.261-5.29 2.625-6.651 1.506-1.521 4.063-2.502 6.968-2.502 3.222 0 6.058.792 7.318 2.185 1.295 1.489 2.31 4.118 2.31 6.968v.95h-11.659c0 1.267.526 2.533.596 2.819.175.729 1.435 1.266 2.625 1.266.56 0 1.226-.254 1.752-.633.35-.253 1.33-1.488.875-2.533zm-5.708-3.77h4.377v-.316c0-.95-.454-1.71-.595-1.9-.14-.253-.876-.633-1.471-.633-.841 0-1.471.284-1.715.633 0 .031-.596.95-.596 1.9v.316zm-8.141 3.77c-1.541 5.004-3.432 7.601-9.665 7.601-2.906 0-5.252-.95-7.002-2.533-1.645-1.49-2.627-4.086-2.627-6.937 0-2.85 1.227-5.226 2.627-6.651 1.575-1.553 4.096-2.502 7.002-2.502 3.221 0 5.952.728 7.283 2.185 1.4 1.52 2.346 4.118 2.346 6.968v.95h-11.661c0 1.267.491 2.47.596 2.819.246.76 1.436 1.266 2.591 1.266.596 0 1.33-.348 1.751-.633.28-.19 1.33-1.615.945-2.566l5.814.033zm-11.556-3.77h4.342v-.316c0-.95-.385-1.678-.56-1.9-.245-.285-.875-.633-1.471-.633-.875 0-1.436.221-1.751.633-.035.063-.561.95-.561 1.9v.316h.001zM95.241 25.052L89.99 12.414h-1.191V7.378h10.469v5.036h-1.121l1.436 5.384 1.821-5.384h-1.365V7.378h11.52v5.036l-1.156-.031 1.716 5.415 1.751-5.384h-1.54V7.378h7.388v5.036h-1.472l-4.936 12.638h-5.848l-3.186-8.837-3.222 8.837h-5.812zm-23.46-12.638h-.805l-4.972 12.638H60.19l-3.222-8.837-3.186 8.837h-5.847l-5.252-12.638h-1.157V7.378h10.506v5.036h-1.19l1.47 5.384 1.821-5.384h-1.4V7.378h11.8v5.036H63.17l1.68 5.384 1.75-5.384h-1.365V7.378h7.18v2.756c.314-.602.7-1.14 1.084-1.52 1.086-1.014 2.627-1.552 4.377-1.552 1.155 0 2.171.126 2.906.316.7.19 1.75.602 2.346 1.235V7.378h4.936v5.67h-4.936c-.315-.634-1.015-1.393-1.471-1.583-.42-.19-1.156-.634-2.03-.634-.596 0-1.05.127-1.19.317-.14.158-.561.634-.561.95 0 .316.42.475.56.633.14.19 1.015.255 2.066.634l2.627.95c1.575.57 3.326 1.077 4.061 1.9.7.823 1.471 2.216 1.471 3.452 0 1.9-.595 3.484-1.75 4.434-1.157.95-2.312 1.33-4.343 1.33-.875 0-2.1-.03-2.94-.378-.63-.255-1.752-.634-2.627-1.267v1.267h-5.254V19.35h5.252c.281.634.666 1.456 1.436 1.9.42.222 1.19.634 2.066.634.56 0 1.016-.254 1.156-.317.28-.126.595-.634.595-.95 0-.633-1.05-.982-2.346-1.267-.175-.031-.525-.285-.595-.285l-2.906-.633c-1.19-.254-2.766-1.394-3.502-2.217-.7-.823-1.155-1.9-1.155-3.484 0-.19 0-.128.034-.318zm-29.659 5.638c-1.575 5.004-3.676 7.633-9.839 7.633-2.906 0-5.322-.982-7.003-2.533-1.68-1.521-2.591-4.086-2.591-6.937 0-2.85.98-5.069 2.591-6.651 1.752-1.774 4.098-2.502 7.003-2.502 3.222 0 5.743.538 7.283 2.185 1.611 1.711 2.346 4.118 2.346 6.968v.95h-11.66c0 1.267.316 2.248.596 2.819.49.918 1.436 1.266 2.626 1.266.56 0 1.297-.348 1.716-.633.28-.19 1.156-1.837.875-2.566h6.058v.001zm-11.73-3.738h4.378v-.316c0-.95-.21-1.457-.596-1.9-.42-.476-.875-.633-1.47-.633-.876 0-1.226.031-1.751.633-.245.253-.56.95-.56 1.9v.316zM6.129 9.881v10.104h2.03v5.068H0v-5.068h1.47V5.478H0V.728h9.63l7.562 14.22v-9.47h-2.031V.728h8.159v4.75h-1.47v19.574h-7.844L6.128 9.88z" fill="#9AA5B6"/></svg>