<svg width="192" height="30" fill="none" xmlns="http://www.w3.org/2000/svg"><path d="M10.776 9.495v9.946c1.293-.76 1.94-1.856 2.402-3.285l.338.152c-.308 3.589-2.832 7.087-6.68 7.087-3.88 0-6.836-2.86-6.836-7.422 0-3.498 2.124-5.627 5.142-7.512-.4-.122-.77-.152-1.201-.152-1.97 0-3.14 1.338-3.14 2.707H.369c-.03-.183-.03-.396-.03-.578 0-2.525 1.508-5.353 4.649-5.353 2.001 0 3.54 1.825 5.88 1.825 1.17 0 1.848-.426 2.31-1.43h.338c0 1.734-.523 3.437-2.74 4.015zm-5.234-.913c-1.416 1.43-2.771 2.981-2.771 6.053 0 1.673.523 3.376 1.817 4.471l.862-.456v-6.874l-.893.456-.277-.426 4.125-2.28c-1.046-.244-1.909-.67-2.863-.944zm4.71 1.004c-.184.03-.4.03-.646.03-.4 0-.739-.03-1.108-.121v8.06l-3.51 1.886c.739.547 1.57.82 2.74.82.924 0 1.786-.212 2.525-.547V9.586zm12.1 2.525v9.337c0 2.616-2.34 4.38-4.956 4.897l-.154-.274c1.293-.639 2.155-1.733 2.155-3.102v-9.733l-1.355-1.217-.708.7v7.36l.832.76v.123l-2.217 2.341-2.556-2.311v-.122l.985-1.034V7.822l2.925-3.072.062.03v7.24l2.402-2.495 2.401 2.16.739-.7.37.365-.924.76zm4.588 5.535v1.217l2.494 1.946 1.94-1.977.37.365-3.91 4.137-3.541-2.768-.77.76-.339-.364.862-.883v-6.843l5.204-3.741 2.894 4.44-5.204 3.711zm.062-6.144l-.062.03v5.476l2.402-1.734-2.34-3.772zM49.54 23.273l-3.82-3.253-2.924 3.254-3.972-3.376v-5.323h-.77c-.677 0-1.016.396-1.14.943h-.276a4.113 4.113 0 01-.123-1.034c0-.7.308-2.555 2.309-2.555V7.792c0-1.612-1.078-1.673-1.078-3.072 0-1.552 1.478-2.981 4.218-3.954l.247.213c-.924.425-1.663.973-1.663 2.159 0 1.795 1.755 1.338 1.755 4.167V8.4l3.233-3.346 3.387 3.285 3.202-3.285 3.079 2.98v10.068l-5.666 5.171zM45.536 9.708l-1.94-1.886-1.262 1.277v9.338l2.34 1.977.862-.943V9.708zm6.22-.365l-1.54-1.521-1.17 1.156v9.429l2.71 2.342.03-.03V9.342h-.03zm12.347 13.93l-2.586-2.342h-.062l-2.278 2.342-2.771-2.433-.647.639-.37-.366.801-.82v-7.148l5.234-3.711 2.864 2.22.77-.76.4.365-.986.912v7.36l1.263 1.157.8-.822.4.396-2.832 3.011zm-2.586-10.159l-2.279-1.764-.061.061v7.938l1.693 1.46.647-.638v-7.057zm11.176 1.308h2.586v5.81l-4.372 3.041c-.585-.639-1.416-1.125-2.432-1.125-.831 0-1.478.395-2.155 1.095l-.4-.122 3.787-5.384h-2.34v-5.049l4.587-3.193c.554.426.985.7 1.694.7.554 0 1.354-.122 1.97-.609l.277.183-3.202 4.653zm-.4 2.372H71l-3.049 4.32.031.06c.647-.395 1.17-.669 2.094-.669.831 0 1.693.396 2.217 1.034l.03-.03v-4.715h-.03zm1.785-5.322c-.585.395-.923.639-1.908.639-.555 0-1.201-.244-1.725-.791l-.061.03v3.985h1.047l2.648-3.863zm11.023.639v9.337c0 2.616-2.34 4.38-4.957 4.897l-.154-.274c1.293-.639 2.155-1.733 2.155-3.102v-9.733l-1.355-1.217-.708.7v7.36l.832.76v.123l-2.217 2.341-2.556-2.311v-.122l.986-1.034V7.822l2.925-3.072.061.03v7.24l2.402-2.495 2.401 2.16.74-.7.369.365-.924.76zm5.388 11.162l-2.278-2.068-.77.76-.37-.365.924-.912v-7.756l-.985-.913-.74.7-.368-.365 2.77-2.92 2.094 1.886.74-.76.4.395-.924.912v7.817l1.17 1.065.83-.852.37.395-2.863 2.981zm-.8-14.021L87.44 7.213l2.063-2.19 2.247 2.038-2.063 2.19zm12.685 14.021l-2.402-2.16v-7.938l-1.293-1.187-.924.943v7.118l.862.79v.122l-2.247 2.342-2.556-2.312v-.09l.986-1.035v-6.874l-1.14-1.004-.831.822-.4-.365 2.802-2.981 2.493 2.19v.547l2.617-2.737 2.402 2.129.801-.79.369.395-.954.942v7.635l1.077 1.004.924-.913.338.365-2.924 3.042zm11.853-11.163v9.216c0 1.43.801 1.369.801 2.433 0 1.217-1.786 2.373-4.557 4.41-.924-.973-1.539-1.399-2.402-1.399-.923 0-2.032.365-2.955.974l-.277-.213 3.787-4.38-2.494-1.947-.801.791-.369-.365.923-.943v-7.573l5.235-3.71 2.801 2.189.832-.79.369.364-.893.943zm-2.124 11.375c-.678-.425-.862-.912-.862-2.068v-.395l-4.403 5.049.031.03c.893-.517 1.539-.851 2.832-.851 1.109 0 1.909.456 2.617 1.095.524-.426.924-.883.924-1.552-.031-.517-.431-.882-1.139-1.308zm-.831-10.371l-2.279-1.764-.061.06v8.365l1.631 1.247.709-.821v-7.087zm8.651 10.159l-2.432-1.886-.739.73-.37-.365.863-.882v-9.43h-1.601l-.062-.06.954-1.43h.678V8.126l2.925-3.072.061.06v4.837h2.217l.062.06-.955 1.43h-1.293v8.243l1.324 1.003.924-.912.369.395-2.925 3.103zm12.039-10.92v7.543l-4.649 3.407-3.387-2.524-.77.76-.369-.365.892-.912V12.9l4.865-3.467 3.141 2.433.8-.791.37.395-.893.882zm-2.956.822l-2.309-1.795-.031.03v8.122l2.34 1.733v-8.09zm13.886 10.067l-2.402-2.16v-7.938l-1.293-1.186-.924.943v7.117l.863.79v.123l-2.248 2.342-2.556-2.312v-.091l.986-1.034v-6.844l-1.14-1.004-.831.822-.4-.365 2.802-2.981 2.494 2.19v.547l2.617-2.737 2.401 2.129.801-.79.369.395-.954.942v7.635l1.077 1.004.924-.913.339.365-2.925 3.011zm16.903.032c-.462-.578-1.047-1.065-1.725-1.247v5.657l-.061.03-1.509-1.399-3.202 2.92-.061-.03v-7.33c-.955.212-2.002.82-2.802 1.794l-.216-.122c.185-2.098 1.232-3.65 3.018-4.258v-5.292h-.585c-.801 0-1.355.547-1.448 1.156h-.338c-.093-.213-.185-.578-.185-1.247 0-1.338.924-2.342 2.402-2.342h.154v-2.95l-.986-.883-.769.76-.401-.364 3.048-3.103 2.587 2.342v2.677l.8-.852V6.06h.524v2.585l3.448-3.62 3.11 2.799v11.862l-4.803 3.589zm-2.248-13.535l-.801.821v15.33l.801.73V9.738zm3.602-.639l-1.632-1.46-1.447 1.52v9.886c1.294.152 2.248.608 3.049 1.43l.03-.03V9.1zm13.424 3.255v7.543l-4.649 3.406-3.387-2.524-.769.76-.37-.365.893-.912v-7.361l4.865-3.467 3.14 2.433.801-.79.369.395-.893.882zm-2.986.82l-2.309-1.794-.031.03v8.122l2.34 1.733v-8.09zm9.821 1.248h2.587v5.81l-4.372 3.04c-.585-.638-1.417-1.125-2.433-1.125-.831 0-1.478.396-2.155 1.095l-.4-.121 3.787-5.384h-2.34V12.69l4.587-3.194c.555.426.986.7 1.694.7.554 0 1.355-.122 1.97-.608l.277.182-3.202 4.654zm-.4 2.372h-1.293l-3.048 4.32.031.06c.646-.395 1.17-.67 2.093-.67.832 0 1.694.396 2.217 1.035l.031-.03v-4.715h-.031zm1.755-5.323c-.585.396-.924.64-1.909.64-.554 0-1.201-.244-1.724-.792l-.062.03v3.985h1.047l2.648-3.863zm6.312 11.802l-2.432-1.886-.739.73-.37-.365.862-.882v-9.429h-1.601l-.061-.06.954-1.43h.677V8.127l2.925-3.072.062.06v4.837h2.217l.061.06-.954 1.43h-1.293v8.243l1.324 1.003.923-.912.37.395-2.925 3.103z" fill="#9AA5B6"/></svg>