<svg width="88" height="24" fill="none" xmlns="http://www.w3.org/2000/svg"><path d="M53.608 7.218c-1.416 0-2.528.305-3.64.915 0-3.255 0-6.205.101-7.222l-6.777 1.22v.61l.708.102c.91.204 1.214.712 1.414 1.933.204 2.442.102 15.463 0 17.6 1.821.407 3.743.712 5.666.712 5.36 0 8.597-3.357 8.597-8.647 0-4.17-2.63-7.223-6.069-7.223zm-2.326 14.75c-.405 0-.911 0-1.214-.1-.102-1.425-.202-7.427-.102-12.717.607-.204 1.011-.305 1.518-.305 2.226 0 3.44 2.644 3.44 5.899 0 4.07-1.518 7.223-3.642 7.223zm-33.48-20.65H0v.915l1.012.102c1.314.203 1.82 1.016 2.022 2.95.304 3.662.202 10.275 0 13.427-.202 1.933-.708 2.85-2.022 2.95L0 21.866v.814h11.43v-.814l-1.214-.204c-1.315-.101-1.82-1.017-2.023-2.95-.102-1.323-.203-3.46-.203-6.104l2.428.102c1.517 0 2.225 1.22 2.528 2.95h.911V8.439h-.91c-.305 1.73-1.012 2.95-2.53 2.95l-2.426.102c0-3.46.101-6.714.203-8.647h3.54c2.731 0 4.147 1.729 5.158 4.781l1.012-.305-.102-6.002z" fill="#9AA5B6"/><path d="M23.568 7.014c5.057 0 7.586 3.459 7.586 8.036 0 4.375-2.832 8.038-7.89 8.038-5.057 0-7.586-3.46-7.586-8.038 0-4.374 2.832-8.036 7.89-8.036zm-.304 1.017c-2.226 0-2.832 3.052-2.832 7.02 0 3.865 1.011 7.019 3.035 7.019 2.324 0 2.932-3.052 2.932-7.02 0-3.865-1.01-7.019-3.135-7.019zm37.727 7.122c0-4.171 2.63-8.14 7.788-8.14 4.247 0 6.271 3.155 6.271 7.325h-9.407c-.101 3.764 1.72 6.511 5.361 6.511 1.619 0 2.428-.406 3.44-1.118l.403.508c-1.011 1.424-3.236 2.85-6.068 2.85-4.552-.001-7.788-3.257-7.788-7.936zm4.652-1.933l4.754-.102c0-2.035-.303-5.087-2.023-5.087-1.718 0-2.63 2.848-2.73 5.189zm21.445-5.392c-1.213-.51-2.831-.814-4.652-.814-3.742 0-6.07 2.237-6.07 4.883 0 2.645 1.719 3.764 4.149 4.578 2.528.915 3.236 1.627 3.236 2.848 0 1.22-.91 2.34-2.529 2.34-1.92 0-3.338-1.12-4.45-4.172l-.709.205.102 4.476c1.214.508 3.439.916 5.36.916 3.946 0 6.475-2.036 6.475-5.189 0-2.137-1.113-3.357-3.743-4.375-2.833-1.118-3.843-1.83-3.843-3.153s.912-2.239 2.125-2.239c1.82 0 3.034 1.12 3.945 3.867l.708-.204-.104-3.967zm-42.786-.407c-1.719-1.016-4.754-.509-6.372 3.154l.1-3.56-6.775 1.322v.61l.708.102c.91.102 1.315.61 1.416 1.933.202 2.442.101 6.715 0 8.851-.101 1.22-.505 1.83-1.416 1.932l-.708.102v.814h9.406v-.814l-1.214-.102c-1.01-.102-1.315-.712-1.416-1.932-.202-1.933-.202-5.799-.1-8.24.505-.713 2.73-1.323 4.753 0l1.618-4.172z" fill="#9AA5B6"/></svg>