<svg width="98" height="24" fill="none" xmlns="http://www.w3.org/2000/svg"><g clip-path="url(#clip0)" fill="#9AA5B6"><path d="M11.245.491H.852C.393.491 0 .89 0 1.381v1.847c0 .491.393.912.852.912h2.533a.52.52 0 01.502.562V22.62c0 .514.393.912.851.912h2.555c.48 0 .852-.42.852-.912V4.678c0-.304.218-.538.502-.561h2.555c.48 0 .851-.398.851-.912V1.403c.044-.514-.327-.912-.808-.912zm11.858 8.258c-.459-1.498-1.704-2.363-3.145-2.363a3.874 3.874 0 00-2.751 1.17.473.473 0 01-.175.117.264.264 0 01-.022-.188l-.022-6.082c0-.514-.392-.912-.851-.912h-2.162c-.458 0-.851.421-.851.912v21.193c0 .492.37.913.851.913h2.206c.458 0 .851-.421.851-.913v-11.18c-.022-.211 0-.422.044-.632.109-.585.611-1.006 1.179-.983.437-.023.83.21 1.048.632.11.28.11.514.11 1.216v10.947c0 .515.37.913.85.913h2.206c.48 0 .852-.398.852-.913v-12.14a5.027 5.027 0 00-.218-1.707zm5.72 7.391h4.717c.48 0 .852-.421.852-.912V11.25c0-1.263-.153-1.824-.437-2.433-.48-1.052-1.922-2.432-4.455-2.456-1.834 0-3.886.725-4.694 2.737a6.726 6.726 0 00-.393 2.293v6.947c.021.748.109 1.474.262 2.199.415 1.52 1.572 3.275 4.738 3.275h.044c2.052 0 4.105-.655 4.716-3.088a5.068 5.068 0 00.153-1.52v-.656c-.022-.49-.393-.865-.852-.842H31.4c-.458 0-.851.421-.851.913a4.5 4.5 0 01-.11 1.076c-.109.467-.524.795-.982.772-.48.046-.94-.305-1.07-.796-.088-.257-.088-.444-.088-1.029v-1.965c.022-.304.24-.538.524-.538zm-.524-4.912c0-.304.044-.608.153-.89.153-.303.393-.56.983-.56.546 0 .764.233.895.49a2.2 2.2 0 01.153.843v1.403c0 .304-.218.538-.502.538h-1.158c-.283 0-.502-.234-.524-.538v-1.286zm18.627 1.754a7.944 7.944 0 00-1.79-1.8l-3.779-2.784a3.19 3.19 0 01-.764-.702c-.35-.515-.393-1.497-.393-1.895v-.187c.022-1.825.72-2.035 1.572-2.058 1.42.023 1.529.818 1.572 1.45v1.59c0 .515.372.913.852.913h2.533c.48 0 .852-.421.852-.913V5.1a4.028 4.028 0 00-.35-1.964C46.074-.023 42.602 0 41.97 0c-.415 0-4.127-.023-5.394 2.854-.502 1.123-.524 2.55-.524 3.064v.14c0 1.942.306 2.854.764 3.696.546.96 1.005 1.334 1.835 1.918l3.69 2.667c.328.234.611.515.852.842.349.562.393 1.31.393 1.731v.258c0 1.543-.022 2.502-.502 2.877-.24.234-.568.374-1.245.374a1.874 1.874 0 01-1.114-.304c-.568-.374-.611-1.053-.611-1.801V16.07c0-.514-.371-.912-.852-.912H36.75c-.48 0-.852.398-.852.912v2.573c-.043.819.11 1.661.437 2.41a4.196 4.196 0 001.157 1.614c1.31 1.1 2.948 1.333 4.455 1.333 3.647.023 5.153-1.708 5.655-3.602.219-.89.219-1.661.219-3.392v-.749c0-1.193-.087-2.152-.895-3.275zm8.909 7.72a.436.436 0 00-.35-.304h-.043c-.088 0-.175.023-.284.023-.633 0-1.201-.117-1.354-.772-.087-.234-.087-.327-.087-.842v-8.655a.53.53 0 01.524-.538h.764c.458 0 .851-.398.851-.912V7.649c0-.514-.37-.912-.851-.912h-.764a.53.53 0 01-.524-.538V2.97c0-.515-.372-.912-.852-.912h-2.184c-.48 0-.851.397-.851.912v3.205c0 .304-.24.538-.502.538h-.568c-.48 0-.852.397-.852.912v1.076c0 .514.371.912.852.912h.59c.283 0 .502.257.502.538v9.895c0 .655.021 1.357.305 1.965.48 1.146 1.66 1.637 3.712 1.637h.044c.393 0 .786-.023 1.18-.07.48-.094.829-.538.829-1.053V21.24c.022-.164-.022-.351-.087-.538zM64.59 7.298c0-.468-.349-.842-.785-.865h-.088c-.96.093-1.834.631-2.402 1.473a3.065 3.065 0 00-.218.351v-.631c0-.492-.371-.89-.83-.89h-2.205c-.48 0-.852.398-.852.913v14.97c0 .515.371.913.852.913h2.183c.48 0 .852-.421.852-.912v-9.17c0-1.052.044-2.152.895-2.784.372-.233.808-.374 1.245-.35.197 0 .371.023.568.046l.043-.187-.043.187c.043 0 .109.024.153.024a.59.59 0 00.436-.187.854.854 0 00.175-.515l.022-2.386zm4.958 8.842h4.716c.48 0 .852-.421.852-.912V11.25c0-1.263-.153-1.824-.437-2.433-.48-1.052-1.921-2.456-4.476-2.456-1.834 0-3.887.725-4.695 2.737a6.743 6.743 0 00-.415 2.293v6.947c.022.748.11 1.474.284 2.199.415 1.52 1.572 3.298 4.782 3.275h.044c2.052 0 4.061-.679 4.673-3.088a5.068 5.068 0 00.153-1.52v-.656c-.022-.49-.393-.865-.852-.842h-2.074c-.459 0-.852.421-.852.913a4.5 4.5 0 01-.11 1.076c-.108.467-.523.795-.982.772-.48.023-.917-.305-1.07-.796-.087-.257-.087-.444-.087-1.029v-1.965c.044-.304.262-.538.546-.538zm.633-6.362c.546 0 .764.233.895.49a2.2 2.2 0 01.153.843v1.403a.53.53 0 01-.524.538h-1.179c-.284 0-.502-.234-.502-.538v-1.286a2.063 2.063 0 01.153-.89c.152-.303.414-.56 1.004-.56zm10.372 6.362h4.717c.48 0 .851-.398.851-.912V11.25c0-1.263-.153-1.824-.436-2.433-.48-1.052-1.922-2.432-4.477-2.456-1.834 0-3.887.725-4.695 2.737a6.726 6.726 0 00-.393 2.293v6.947c.022.748.11 1.474.284 2.199.415 1.52 1.572 3.298 4.782 3.275h.022c2.053 0 4.062-.679 4.673-3.088a5.071 5.071 0 00.153-1.52v-.656c-.022-.49-.393-.865-.852-.842h-2.074c-.459 0-.852.421-.852.913 0 .35-.022.725-.109 1.076-.11.467-.524.795-.983.772-.48.023-.917-.305-1.048-.796-.087-.257-.087-.444-.087-1.029v-1.965c.022-.304.262-.538.524-.538zm.655-6.362c.546 0 .764.233.895.49.11.258.175.562.153.843v1.403a.53.53 0 01-.524.538h-1.179c-.284 0-.502-.234-.524-.538v-1.286c0-.304.044-.608.153-.89.174-.303.415-.56 1.026-.56zm13.189 10.924a.436.436 0 00-.35-.304h-.043c-.087.023-.197.023-.284.023-.633 0-1.2-.117-1.354-.772-.087-.234-.087-.327-.087-.842v-8.655a.53.53 0 01.524-.538h.764c.48 0 .852-.398.852-.912V7.649c0-.514-.393-.912-.852-.912h-.764c-.284 0-.502-.234-.524-.538V2.97c0-.515-.371-.912-.852-.912h-2.183c-.48 0-.852.397-.852.912v3.205c0 .304-.24.538-.502.538h-.546c-.48 0-.852.42-.852.912v1.076c0 .514.393.912.852.912h.59c.284 0 .502.257.502.562v9.894c0 .655.022 1.357.305 1.965.48 1.146 1.66 1.638 3.713 1.638h.022c.392 0 .786-.024 1.179-.07.48-.094.808-.539.83-1.03v-1.286a1.314 1.314 0 00-.088-.585zm2.599 2.971c-.568 0-1.005-.492-1.005-1.076 0-.585.459-1.077 1.005-1.077.546 0 1.004.468 1.004 1.053.022.585-.415 1.1-.983 1.1 0 .023-.021.023-.021 0zm0-2.035c-.503 0-.917.42-.917.958s.393.983.895.983.895-.421.917-.96c.022-.537-.371-.958-.852-.982h-.043zm0 .28a.66.66 0 01.305.07c.11.094.175.21.175.375a.42.42 0 01-.218.374l.218.561h-.306l-.174-.514h-.175v.514h-.262v-1.356h.437v-.024zm-.153.608h.174c.132 0 .197-.046.197-.187 0-.14-.066-.163-.197-.163h-.174v.35z"/></g><defs><clipPath id="clip0"><path fill="#fff" d="M0 0h98v24H0z"/></clipPath></defs></svg>