<svg width="16" height="16" fill="none" xmlns="http://www.w3.org/2000/svg"><g clip-path="url(#clip0)"><path d="M13.966 9.368c-.183-2.386-1.294-3.882-2.275-5.201C10.784 2.945 10 1.89 10 .334a.334.334 0 00-.527-.271C8 1.116 6.773 2.89 6.343 4.585c-.297 1.18-.337 2.505-.342 3.38-1.36-.29-1.668-2.323-1.67-2.345a.335.335 0 00-.477-.253c-.07.035-1.75.887-1.847 4.292A6.007 6.007 0 008 16h.018A6.007 6.007 0 0014 10c0-.165-.034-.631-.034-.631zM8 15.333c-1.103 0-2-.956-2-2.13 0-.04 0-.08.003-.13.013-.496.107-.834.21-1.059.194.415.54.797 1.1.797a.333.333 0 00.334-.333c0-.475.01-1.022.128-1.516.105-.438.357-.905.675-1.278.142.485.418.877.687 1.26.386.549.785 1.115.855 2.082.004.057.008.115.008.177 0 1.174-.897 2.13-2 2.13z" fill="#FF3B30"/></g><defs><clipPath id="clip0"><path fill="#fff" d="M0 0h16v16H0z"/></clipPath></defs></svg>