<svg width="41" height="40" fill="none" xmlns="http://www.w3.org/2000/svg"><ellipse opacity=".1" cx="20.032" cy="20" rx="20.016" ry="20" fill="#9AA5B6"/><g clip-path="url(#a)"><path d="M31.041 20L28.6 17.21l.34-3.69-3.612-.82-1.892-3.2-3.402 1.46L16.63 9.5l-1.892 3.19-3.613.81.34 3.7-2.44 2.8 2.442 2.79-.34 3.7 3.612.82 1.892 3.19 3.403-1.47 3.402 1.46 1.892-3.19 3.613-.82-.34-3.69L31.04 20zm-12.92 4.72l-3.803-3.81 1.481-1.48 2.322 2.33 5.855-5.87 1.48 1.48-7.335 7.35z" fill="#9AA5B6"/></g><defs><clipPath id="a"><path fill="#fff" transform="translate(8.023 8)" d="M0 0h24.019v24H0z"/></clipPath></defs></svg>