<svg width="400" height="429" fill="none" xmlns="http://www.w3.org/2000/svg"><path opacity=".08" d="M307.225 298.386c-6.735-19.738-19.047-35.957-31.722-50.718-14.412-16.82-29.984-32.267-42.441-51.318-12.239-18.794-21.799-40.077-27.086-62.99C195.764 89.25 201.051 39.905 219.954 0h-68.297a68.51 68.51 0 00-6.228 10.641c-7.17 15.276-7.243 33.555-3.187 50.032 3.621 14.589 9.27 28.491 13.254 42.908 3.983 14.332 7.966 31.152 4.345 46.17-3.621 15.018-16.44 23.342-29.259 22.312-16.223-1.287-30.201-14.417-42.08-26.345-12.166-12.272-23.247-26.775-37.805-35.185C35.343 101.693 17.382 97.574 0 99.205v105.383c15.571-7.981 32.374-11.499 49.394-6.436 13.18 3.947 26.29 12.529 33.315 26.689 5.939 12.014 7.17 26.432 6.084 40.077-2.173 27.289-12.095 52.005-23.394 75.433-12.022 24.973-25.855 49.945-32.59 77.836-.87 3.519-1.594 7.123-2.101 10.813h74.38c-6.373-27.29-6.373-56.039 4.201-82.814 13.471-33.812 42.078-64.706 74.09-69.769 13.906-2.231 29.477.601 40.051 12.272 8.691 9.611 12.964 23.685 15.137 37.245 4.997 31.58 1.521 64.534 1.448 96.458V429h52.001c.29-.601.58-1.201.869-1.716 9.126-18.537 14.558-39.133 17.599-60.244 3.332-22.999 4.346-46.513-3.259-68.654z" fill="url(#paint0_linear)"/><path opacity=".08" d="M362.355 39.976c-13.583 4.807-28.946 9.431-43.038 4.746-10.072-3.347-18.517-11.683-22.74-23.243-2.492-6.815-3.51-14.117-3.408-21.479h-26.301c-10.479 10.526-19.433 22.878-24.571 37.968-4.12 12.108-6.562 27.868-1.272 40.037 4.426 10.161 13.227 15.88 22.13 18.862 9.716 3.225 20.094 3.773 30.116 2.495 12.616-1.582 24.367-7.484 35.661-13.995 12.769-7.362 25.283-15.759 38.917-20.566 10.327-3.711 21.519-5.05 32.151-2.799V27.624c-12.769 2.617-25.131 7.85-37.645 12.352z" fill="url(#paint1_linear)"/><defs><linearGradient id="paint0_linear" x1="167" y1="-143" x2="169" y2="393" gradientUnits="userSpaceOnUse"><stop stop-color="#fff"/><stop offset=".896" stop-color="#fff" stop-opacity="0"/></linearGradient><linearGradient id="paint1_linear" x1="319" y1="0" x2="319" y2="100" gradientUnits="userSpaceOnUse"><stop stop-color="#fff"/><stop offset="1" stop-color="#fff" stop-opacity="0"/></linearGradient></defs></svg>